<?xml version="1.0" encoding="utf-8"?>
<!-- Generator: Adobe Illustrator 16.0.0, SVG Export Plug-In . SVG Version: 6.00 Build 0)  -->
<!DOCTYPE svg PUBLIC "-//W3C//DTD SVG 1.1//EN" "http://www.w3.org/Graphics/SVG/1.1/DTD/svg11.dtd">
<svg version="1.1" id="Layer_1" xmlns="http://www.w3.org/2000/svg" xmlns:xlink="http://www.w3.org/1999/xlink" x="0px" y="0px"
	 width="739.271px" height="739.263px" viewBox="-4.144 16.864 739.271 739.263"
	 enable-background="new -4.144 16.864 739.271 739.263" xml:space="preserve">
<g opacity="0.7">
	<polygon points="16.5,197.281 16.5,735.5 550.5,735.5 610.883,674.878 90.933,122.41 	"/>
	<polygon points="178.381,37.5 98.693,114.614 649.303,636.296 670.885,614.616 670.95,614.859 714.5,571.5 714.5,37.5 	"/>
</g>
<g>
	<polygon opacity="0.4" fill="#FFFFFF" points="724.5,745.5 714.5,571.5 649.362,636.353 98.693,114.614 178.381,37.5 6.5,27.5 
		16.5,197.281 90.933,122.41 610.883,674.878 550.5,735.5 	"/>
	<g opacity="0.7">
		<path d="M6.5,27.5l171.881,10l-79.688,77.114l550.669,521.738L714.5,571.5l10,174l-174-10l60.383-60.622L90.933,122.41
			L16.5,197.281L6.5,27.5 M-4.144,16.864l0.661,11.224l10,169.781l1.314,22.315l15.76-15.854l67.144-67.539l506.229,537.889
			l-53.55,53.763l-15.702,15.764l22.213,1.276l174,10l11.201,0.644l-0.644-11.201l-10-174l-1.276-22.206l-15.763,15.693l-58.255,58
			L113.152,114.538l72.183-69.852L201.71,28.84l-22.748-1.323l-171.881-10L-4.144,16.864L-4.144,16.864z"/>
	</g>
</g>
<g>
	<polygon fill="#582A87" points="183.165,568.571 133.415,470.421 287.271,156.781 436.896,156.781 485.771,266.157 
		429.298,391.664 542.367,391.664 590.753,479.109 541.267,568.571 	"/>
	<path fill="#F7931E" d="M433.329,162.281l46.414,103.868L427.772,381.65l-6.98,15.514h17.012h101.32l45.343,81.945l-46.443,83.962
		H186.544l-46.982-92.69l151.139-308.1H433.329 M440.462,151.281H283.844L127.27,470.461l52.518,103.61H544.51l52.528-94.963
		l-51.429-92.944H437.804l53.995-119.999L440.462,151.281L440.462,151.281z"/>
</g>
</svg>
