<?xml version="1.0" encoding="utf-8"?>
<!-- Generator: Adobe Illustrator 16.0.0, SVG Export Plug-In . SVG Version: 6.00 Build 0)  -->
<!DOCTYPE svg PUBLIC "-//W3C//DTD SVG 1.1//EN" "http://www.w3.org/Graphics/SVG/1.1/DTD/svg11.dtd">
<svg version="1.1" id="Layer_1" xmlns="http://www.w3.org/2000/svg" xmlns:xlink="http://www.w3.org/1999/xlink" x="0px" y="0px"
	 width="597.888px" height="538.1px" viewBox="-319.555 -489.5 597.888 538.1"
	 enable-background="new -319.555 -489.5 597.888 538.1" xml:space="preserve">
<radialGradient id="SVGID_1_" cx="-3.3452" cy="-271.8164" r="320.0505" gradientTransform="matrix(1 0 0 1.1766 0 47.9936)" gradientUnits="userSpaceOnUse">
	<stop  offset="0" style="stop-color:#F7931E"/>
	<stop  offset="1" style="stop-color:#582A87"/>
</radialGradient>
<path fill="url(#SVGID_1_)" d="M-25.842-488.931c-148.901,0-269.613,120.709-269.613,269.612
	c0,148.906,120.711,269.612,269.613,269.612c148.904,0,269.609-120.704,269.609-269.612
	C243.768-368.222,123.062-488.931-25.842-488.931z"/>
<g>
	<defs>
		<path id="SVGID_2_" d="M-25.842-488.931c-148.901,0-269.613,120.709-269.613,269.612c0,148.906,120.711,269.612,269.613,269.612
			c148.904,0,269.609-120.704,269.609-269.612C243.768-368.222,123.062-488.931-25.842-488.931z"/>
	</defs>
	<clipPath id="SVGID_3_">
		<use xlink:href="#SVGID_2_"  overflow="visible"/>
	</clipPath>
	<g clip-path="url(#SVGID_3_)">
		<path fill-rule="evenodd" clip-rule="evenodd" fill="#582A87" d="M191.169,6.148c-1.013-3.797,3.253-10.767,7.315-12.192
			c0.889-0.312,2.223-1.273,2.185-1.861c-0.058-0.896-0.95-2.074-1.807-2.521c-2.736-1.429-12.476,1.843-13.609,4.675
			c-0.928,2.317-1.712,4.774-4.688,3.697c-1.747-0.632-3.057-2.476-5.657-4.719c-3.288,3.268-7.228,7.352-11.383,11.203
			c-1.242,1.152-3.085,1.656-4.653,2.457c0.168-4.215,2.599-7.246,5.787-9.404c3.523-2.385,6.739-5.132,8.891-8.622
			c2.448-3.97,4.383-8.177,8.084-11.271c1.028-0.86,0.643-2.491,0.166-3.801c-0.557-1.533-1.526-2.957-1.348-4.309
			c-6.516,4.817-8.913,12.771-13.203,19.503c-3.632,5.699-6.984,11.318-8.285,17.998c-4.955,2.179-5.695,6.982-5.921,11.282
			c-0.406,7.757-2.089,14.977-4.881,22.236c-3.144,8.175-5.394,16.733-7.476,25.262c-1.311,5.367-4.089,8.927-9.169,10.752
			c-4.579,1.645-4.507,4.047-1.039,7.681c1.186-1.361,2.192-2.518,3.2-3.675c0.293,0.092,0.586,0.185,0.879,0.276
			c-2.372,6.573-4.533,13.232-7.164,19.701c-4.133,10.168-9.199,19.997-12.723,30.36c-3.488,10.261-3.859,21.012-3.098,32.003
			c0.623,8.984-1.055,18.146-1.949,27.205c-0.164,1.672-1.456,3.233-2.035,4.444c-3.029-0.224-5.484-0.406-8.419-0.623
			c-3.079-4.189-3.079-4.189-12.122,1.057c2.503-2.728,5.006-5.456,7.508-8.184c-0.222-0.247-0.443-0.494-0.666-0.741
			c-1.217,0.68-2.435,1.359-2.908,1.623c-2.516-1.888-4.726-3.428-6.787-5.146c-0.959-0.801-1.889-1.832-2.387-2.956
			c-1.71-3.856-3.224-7.801-4.959-12.071c0.872-0.653,2.133-1.597,4.43-3.318c-4.852-0.438-8.715-1.594-12.219-0.91
			c-5.154,1.006-9.35,1.427-10.906-4.356c-4.855,1.595-9.18,3.014-13.957,4.582c-0.452-1.778-0.783-3.083-1.113-4.392
			c-0.303-0.116-0.695-0.412-0.898-0.313c-7.423,3.574-13.605-1.591-18.754-4.558c-10-5.764-10.527-7.12-21.413-7.825
			c5.027-0.826,10.055-1.653,15.109-2.484c-0.698-1.836-1.521-3.998-2.499-6.566c0.555-0.39,1.545-1.087,2.98-2.097
			c-2.123-0.746-3.783-1.33-6.052-2.127c1.228-0.995,2.099-1.701,3.317-2.689c-1.799-0.939-3.453-1.804-5.108-2.668
			c0.106-0.433,0.211-0.864,0.317-1.297c3.887,0,7.773,0,12.199,0c-4.237-6.77-10.148-7.407-15.149-6.574
			c-1.302-3.118-2.405-5.265-3.089-7.538c-0.678-2.252-0.932-4.632-1.322-6.689c4.46,0,8.905,0,14.657,0
			c-1.938-3.141-2.835-5.309-4.352-6.878c-2.21-2.288-4.883-4.008-3.269-7.984c0.175-0.431-2.831-2.328-4.507-3.29
			c-2.276-1.306-4.667-2.424-7.06-3.51C-3.246,83.331-5,82.134-6.236,82.488c-5.634,1.617-10.954,3.777-13.82,9.663
			c-3.832,7.867-8.31,15.43-11.919,23.391c-2.64,5.825-4.41,12.055-6.375,18.166c-0.396,1.233,0.076,2.746,0.194,5.021
			c2.577-2.962,4.454-5.12,6.794-7.812c1.106,1.645,1.962,2.918,2.818,4.191c-1.186,0.604-2.509,1.037-3.523,1.854
			c-1.314,1.058-2.382,2.422-3.856,3.969c2.662-0.445,4.652-0.778,6.361-1.064c1.725,10.273,3.313,19.737,4.902,29.2
			c-0.472,0.128-0.943,0.256-1.415,0.384c-0.469-1.065-0.813-2.21-1.427-3.184c-2.983-4.731-5.773-8.822-12.528-9.739
			c-9.111-1.236-16.642-6.802-22.479-13.867c-2.156-2.609-3.812-6.646-3.681-9.953c0.526-13.322,5.368-26.486,0.073-40.019
			c0.648-0.06,1.297-0.119,1.946-0.178c0.607,2.854,1.215,5.709,2.086,9.803c1.863-2.86,3.063-4.917,4.471-6.821
			c2.86-3.868,5.979-7.552,8.718-11.501c2.895-4.174,7.589-4.557,11.774-5.469c1.232-0.269,3.216,2.905,4.855,4.501
			c-0.178,0.466-0.355,0.932-0.533,1.396c1.889-0.605,3.779-1.211,4.93-1.579c0.557,2.185,1.082,4.242,1.717,6.737
			c3.122-2.353,5.566-4.224,8.041-6.053c2.809-2.074,2.202-3.606-1.405-4.911c2.02-0.845,3.482-1.456,5.146-2.152
			c0.797,1.724,1.454,3.143,2.023,4.373c4.63-3.79,9.111-7.458,13.97-11.436c-3.887-2.276-8.172,0.106-12.819,0.747
			c0.437,1.824,0.835,3.489,1.583,6.613c-6.524-7.25-11.908-0.906-17.537-0.051c-0.187-0.434-0.373-0.867-0.559-1.302
			c1.625-1.04,3.162-2.271,4.897-3.072c2.412-1.113,4.973-1.901,7.47-2.831c6.73-2.508,7.284-3.135,5.89-10.24
			C-10.729,52.752-22.956,4.984-24.169,0.68c-0.707-2.508-1.686-4.938-2.307-6.725c-21,5.265-40,17.057-60.023,23.545
			c-14.951,4.845-30.608,5.294-45.127,11.564c-12.223,5.28-24.439,10.826-37.137,14.679c-10.078,3.058-20.859,3.867-31.377,5.321
			c-1.681,0.232-3.619-1.396-5.438-2.163c1.131-1.214,2.369-2.349,3.357-3.67c0.649-0.868,0.938-2.006,0.903-1.928
			c5.818-0.948,11.295-1.409,16.463-2.925c1.738-0.51,2.69-3.701,4.483-6.388c-4.42-0.823-7.727-1.649-11.083-2.015
			c-5.16-0.561-7.153-3.794-6.254-8.838c0.724-4.062-0.051-8.371,0.383-12.514c0.662-6.318,1.744-12.597,2.742-18.877
			c9.435-59.351,21.75-174.281,85.393-200.256c8.023,14.102,13.122,10.928,21.138,22.223c-41.368,1.988-36.676,48.479-53.284,78.997
			c-6.08,11.173-9.781,23.267-10.888,36.022c-0.148,1.71,0.423,3.482,0.764,5.977c7.079-4.222,12.739-9.668,19.767-12.004
			C-107-87.5-92-131-55.528-141.188c3.489-0.975,5.938-4.827,8.785-8.201c-12.497,0.022-23.259-2.625-30.174-15.314
			c1.596,1.358,2.247,2.074,3.04,2.56c3.426,2.101,6.357,4.831,11.193,2.084c2.695-1.531,6.685-0.785,8.409-0.927
			c6.232-4.721,30.01-19.72,29.847-26.989c-0.117-5.237,12.875-38.571,15.242-44.364c1.419-3.473,14.026-61.522,14.356-60.972
			c-4.896-8.184,21.119-58.222,25.194-53.477c10.209-20.909-9.95-23.08-23.083-28.525c1.754,18.047-15.192,0.93-17.563,9.821
			c-2.088,7.835-9.193,10.682-15.109,13.396c-6.452,2.959-14.12,4.018-21.316,4.272c-3.397,0.12-6.929-3.569-10.923-5.829
			c-3.035,2.354-2.512,9.549-9.812,11.421c0.728-2.128,1.338-3.39,1.562-4.717c0.21-1.247,0.492-3.383-0.083-3.719
			c-5.026-2.94-1.289-5.67,0.238-8.092c1.202-1.908,3.308-3.224,4.886-4.921c2.327-2.502,4.799-3.525,8.376-0.341
			c-0.57-6.11,3.185-6.349,6.948-6.774c4.301-0.486,8.662-0.854,12.825-1.934c1.762-0.457,3.087-2.599,5.719-4.975
			c-10.816-1.723-19.898-4.479-28.695,2.515c-4.083,3.247-9.388,4.911-13.807,7.801c-1.938,1.268-3.404,3.632-4.462,5.801
			c-3.489,7.153-6.651,14.465-10.047,21.665c-0.596,1.264-1.713,2.282-3.086,4.056c-1.015-1.704-1.791-2.69-2.235-3.809
			c-1.51-3.798-3.145-7.573-4.248-11.493c-0.65-2.312-0.883-4.979-0.432-7.317c0.999-5.17,3.601-10.236,3.589-15.34
			c-0.013-5.44,2.677-8.035,6.54-10.06c6.47-3.391,13.189-6.303,19.759-9.508c5.556-2.711,10.969-5.727,16.601-8.264
			c2.79-1.257,5.425-1.326,8.822,0.254c5.78,2.688,12.311,3.827,18.614,5.222c0.583,0.129,2.285-2.494,2.557-4.003
			c0.209-1.161-1.013-2.581-1.747-4.216c2.562-0.329,4.632-0.595,6.025-0.773c2.057-8.098,4.91-15.591,5.57-23.272
			c0.422-4.906,3.482-10.658-1.832-15.58c-2.463-2.28-3.315-6.3-3.541-9.382c0.503-2.615,2.134-6.98,1.3-7.519
			c-2.538-1.635-6.028-1.791-9.148-2.523c0.064,0.92,0.128,1.84,0.235,3.373c-5.586,0-11.512-0.484-17.326,0.115
			c-8.492,0.876-16.598-2.922-25.087-1.546c-1.013,0.164-2.285-1.105-3.402-1.769c-5.269-3.126-6.899-2.434-8.719,3.704
			c-0.134,0.453-0.441,0.855-0.842,1.61c-4.835-2.983-8.227,0.837-12.246,2.413c-14.552,5.708-22.043,18.424-29.529,30.632
			c-5.771,9.411-9.596,20.016-14.588,30.736c-3.12,0.314-4.783-2.558-5.638-5.508c-1.076-3.716-2.224-6.918-6.408-8.108
			c-0.596-0.17-0.82-1.646-0.452-3.023c1.882,1.346,3.764,2.692,5.687,4.068c7.412-12.46,5.311-19.822-6.833-22.662
			c2.09-1.341,4.004-2.568,5.917-3.796c-0.082-0.425-0.164-0.851-0.245-1.275c-2.307-0.492-4.614-0.983-6.921-1.475
			c-0.43-6.377-0.172-6.654,5.655-6.958c0.208-3.362,0.162-6.62,0.663-9.791c0.844-5.335,2.035-10.616,2.975-15.386
			c2.14,4.172,0.503,10.555,5.518,15.521c2.068-5.507,1.915-9.763-0.016-14.034c-1.846-4.084-4.571-8.896-0.699-12.34
			c2.036-1.812,2.861-2.888,2.202-6.508c5.725,7.179,13.088,7.255,21.627,9.124c-1.303-3.75-2.543-6.306-2.969-8.99
			c-0.201-1.265,1.163-2.778,1.817-4.179c67.667,0,135.334,0,203,0c1.182,0.996,2.678,1.123,4.09,1.37
			c12.298,2.151,20.674,9.018,25.287,20.632c1.367,3.445,4.148,6.004,6.437,8.858c3.285,4.099,5.571,8.202,4.61,14.065
			c-0.734,4.484,0.038,9.264-0.885,13.877c-0.264,1.317-0.064,2.824,0.805,3.834c4.896,5.689,4.221,12.862,4.912,19.504
			c0.598,5.739,1.934,11.204,4.033,16.418c2.012,4.993,3.791,10.079,4.436,15.311c1.504,12.18,3.41,25.307,2.258,24.818
			c-5.176-2.195-5.93-7.442-8.311-11.565c2.379,4.158,3.049,9.494,8.363,11.627c1.437,0.576-1.309,18.237-4.106,16.43
			c-1.252,3.022-1.704,6.193-1.767,9.233c-0.18,8.83-2.669,17.397-2.686,26.221c-0.004,2.015,0.175,4.045,1.132,5.841
			c1.582,2.97,1.912,5.894,0.688,9.118c-1.005,2.645-0.353,5.218,1.151,7.625c3.893,6.232,8.604,11.872,13.176,17.572
			c2.483,3.097,6.25,5.039,10.672,4.171c1.98-0.388,3.977-0.517,5.971-0.429c4.287,0.188,7.746-1.375,10.701-4.455
			c1.83-1.908,3.674-3.806,6.023-5.2c6.664-3.955,12.448-1.715,18.051,2.27c3.117,2.217,6.078,4.638,9.747,6.01
			c3.351,1.252,6.299,1.263,9.437-0.863c4.979-3.375,8.658-1.892,10.168,3.792c0.876,3.295,2.838,6.001,4.534,8.862
			c2.351,3.966,1.526,5.507-3.122,6.198c-5.518,0.82-11.381-0.208-16.51,2.692c-7.709,4.358-15.794,8.276-22.809,13.561
			c-4.836,3.642-6.943,10.347-12.112,14.218c5.496-4.457,9.12-11.694,18.156-10.972c-2.115-2.1-3.098-4.449-0.315-6.197
			c6.393-4.018,12.25-8.96,19.479-11.569c0.471-0.17,0.896-0.585,1.358-0.604c2.531-0.104,5.626-1.538,7.084,1.719
			c1.496,3.343-1.795,4.068-3.059,5.095c3.688-2.373,19.313-9.183,21.473-9.232c-3.818-4.949-4.146-7.929-1.098-10.902
			c-2.646,0.013,20.625-2.363,24.113-2.433c2.674-0.054,4.412,1.089,5.434,3.481c0,79.333,0,158.667,0,238
			c-3.144,0.248-6.294,0.434-9.43,0.756c-8.729,0.896-17.526,1.413-26.158,2.892c-10.654,1.826-21.246,4.169-31.715,6.867
			c-7.16,1.846-14.066,4.68-21.086,7.071L191.169,6.148z"/>
		<path fill-rule="evenodd" clip-rule="evenodd" d="M279.5,398.5c-2.899,5.032-5.238,10.515-8.838,14.981
			c-4.537,5.63-9.472,11.349-15.358,15.393c-11.374,7.813-23.484,14.565-35.386,21.596c-8.816,5.207-18.241,8.007-28.646,6.355
			c-1.783-0.282-3.648-0.04-5.701-0.04c0.499,0.662,0.904,1.199,1.979,2.623c-14.644-0.229-27.932-2.027-39.49-10.871
			c4.205,1.026,8.377,2.225,12.622,3.036c5.876,1.123,11.778,2.278,17.724,2.846c13.324,1.271,25.254-7.453,29.171-20.84
			c0.743-2.539,1.873-4.963,2.758-7.464c1.509-4.262,3.729-7.39,2.192-13.326c-2.234-8.629-2.328-18.822,3.541-27.317
			c0.41-0.593,0.682-1.823,0.354-2.3c-3.031-4.395-1.161-7.05,2.941-9.092c0.563-0.28,1.149-0.825,1.393-1.391
			c2.225-5.178,4.33-10.407,6.586-15.571c0.501-1.146,1.457-2.093,2.07-2.946c-1.061-3.444-2.211-7.179-2.883-9.36
			c3.718-9.17,6.926-17.08,10.243-25.264c0.22,0.044,1.128,0.225,1.534,0.306c0.309-2.123,0.196-4.314,0.976-6.122
			c2.038-4.726,5.228-8.737,4.597-14.67c-0.402-3.772,2.146-7.795,2.965-11.789c0.457-2.23,0.082-4.632,0.082-7.646
			c6.51-3.635,5.902-10.084,4.873-17.396c-0.559-3.964,1.672-8.326,2.68-12.501c0.423-1.747,0.938-3.472,1.505-5.556
			c-1.878-0.442-3.362-0.792-4.822-1.136c1.224-9.227,5.03-14.582,9.974-14.331c0.725-1.817,1.294-3.692,2.188-5.399
			c3.192-6.1,5.017-12.477,3.528-19.342c-0.275-1.27-1.919-2.486-3.217-3.232c-1.956-1.126-4.163-1.815-6.264-2.69
			c-0.575-0.801-1.15-1.603-1.726-2.403c1.683-0.749,3.863-1.081,4.93-2.35c1.484-1.764,2.904-4.203,2.979-6.399
			c0.152-4.49,1.274-5.713,5.202-2.948c0.447,0.315,1.254,0.122,2.058,0.175c0.451-3.543,0.729-6.936,1.346-10.267
			c0.771-4.163,1.388-8.435,2.841-12.375c2.738-7.428,3.108-14.605,0.366-22.141c-2.18-5.989,2.021-10.734,4.136-15.834
			C279.5,215.167,279.5,306.833,279.5,398.5z"/>
		<path fill-rule="evenodd" clip-rule="evenodd" fill="#582A87" d="M-104.429-266.661c1.271-5.994,2.325-10.966,3.071-14.483
			c3.483-0.352,6.11-0.404,8.64-0.925c3.411-0.701,6.708-1.972,10.126-2.621c5.821-1.105,8.297,1.188,8.068,7.109
			c0.265,0.184,0.602,0.57,0.793,0.509c4.75-1.53,7.591-12.2,3.671-14.956c-3.119-2.192-7.05-3.285-10.71-4.623
			c-1.522-0.557-3.291-0.396-4.919-0.711c-1.992-0.384-5.278-0.242-3.875-3.424c0.738-1.674,3.765-3.423,5.658-3.319
			c8.903,0.49,15.875,5.344,22.243,11.157c4.532,4.138,5.44,9.326,1.177,13.598c-6.092,6.103-12.24,12.511-22.489,11.134
			c-3.137-0.422-6.689,1.38-9.899,2.575C-97.654-263.861-101.663-265.35-104.429-266.661z"/>
		<path fill-rule="evenodd" clip-rule="evenodd" fill="#582A87" d="M-82.439-227.183c1.769-7.005,4.606-5.151,11.553-4.644
			c4.219-5.84,15.713-9.627,18.382-10.382c1.104-0.312,6.672,0.066,7.019-0.542c2.618-4.604,5.781-1.731,7.526,0.065
			c0.831,0.855-0.338,5.311-1.867,6.481c-4.171,3.196-8.966,5.607-13.635,8.103c-0.99,0.529-2.496,0.06-3.762,0.11
			c-5.173,0.207-10.713-0.621-15.396,1.007c-3.468,1.206-9.031,0.866-10.225,6.475c-0.089,0.418-1.825,0.387-2.719,0.751
			c-1.94,0.79-3.799,1.786-5.754,2.533c-1.296,0.495-2.702,0.704-4.058,1.041c-0.264-1.37-0.98-2.841-0.702-4.09
			C-95.444-223.104-85.78-227.984-82.439-227.183z"/>
		<path fill-rule="evenodd" clip-rule="evenodd" fill="#582A87" d="M-110.715-337.673c-8.586,0.341-15.422,4.119-22.056,9.196
			c-3.471,2.656-4.747,4.562-3.101,8.417c0.302,0.707,0.264,1.56,0.383,2.345c-0.395,0.216-0.789,0.431-1.184,0.646
			c-3.081-4.961-6.447-9.773-9.124-14.942c-1.353-2.613,0.615-4.844,2.035-7.502c3.453-6.465,10.847-6.535,15.166-11.257
			c2.223-2.43,4.461-1.027,5.24,2.283c0.308,1.308,1.772,2.583,3.023,3.382c3.197,2.039,6.57,3.802,9.873,5.675
			C-110.545-338.844-110.63-338.258-110.715-337.673z"/>
		<path fill-rule="evenodd" clip-rule="evenodd" fill="#582A87" d="M-79.5-203.167c2.254-1.917,4.586-1.569,6.835-3.145
			c2.293-1.607,5.832-4.855,16.583-11.039c0.743-0.428,4.994-3.755,5.249-3.1c0.88,2.269-3.893,8.22-3.667,10.617
			C-54.178-206.416-76.638-195.987-79.5-203.167z"/>
		<path fill-rule="evenodd" clip-rule="evenodd" fill="#582A87" d="M-109.829-324.891c-2.057,5.318-3.936,10.176-6.149,15.899
			c-2.398-2.258-4.244-3.995-6.065-5.709c-1.762,3.981-0.915,6.256,3.865,8.549c-3.153,1.778-5.88,3.316-8.607,4.854
			c-0.328-0.297-0.655-0.594-0.982-0.891c0.344-1.283,0.688-2.566,1.127-4.207c-1.342,0.164-2.664,0.325-3.992,0.487
			C-133.165-320.557-126.052-327.375-109.829-324.891z"/>
		<path fill-rule="evenodd" clip-rule="evenodd" d="M-9.159,246.75c2.387,1.741,4.269,2.534,5.782-1.124
			c-2.577,7.782,1.732,13.854,3.565,20.355c0.357,1.268,1.819,2.246,2.829,3.303c0.908,0.95,2.194,1.66,2.8,2.759
			c5.212,9.459,10.258,19.01,15.458,28.476c2.786,5.071,5.775,10.031,7.749,15.557C14.124,294.355-0.145,272.282-9.159,246.75z"/>
		<path fill-rule="evenodd" clip-rule="evenodd" d="M253.469,201.934c-1.32,1.682-2.634,3.367-3.961,5.043
			c-2.252,2.847-3.162,5.177-1.447,9.347c1.223,2.975-1.381,7.631-2.56,11.449c-1,3.24-2.265,6.421-3.712,9.487
			c-0.492,1.044-1.895,1.659-2.545,2.193c-0.273-4.664-0.857-8.92-0.639-13.135c0.121-2.343,1.58-4.616,2.763-7.803
			c-3.078-3.745,0.864-6.562,3.405-9.653c2.337-2.844,4.892-5.509,7.35-8.253C252.572,201.051,253.021,201.492,253.469,201.934z"/>
		<path fill-rule="evenodd" clip-rule="evenodd" d="M191.111,6.086c-3.639,0.246-7.275,0.493-11.787,0.799
			c0.868-2.947,1.313-4.459,1.688-5.73c3.536,1.733,6.829,3.347,10.139,4.977C191.169,6.148,191.111,6.086,191.111,6.086z"/>
		<path fill-rule="evenodd" clip-rule="evenodd" d="M-15.614,115.564c1.105-3.17,6.199-3.72,12.422,0
			C-8.155,115.564-11.941,115.564-15.614,115.564z"/>
		<path fill-rule="evenodd" clip-rule="evenodd" d="M-19.083,188.982c-0.157,2.859-0.279,5.069-0.425,7.724
			C-22.725,192.026-22.714,191.057-19.083,188.982z"/>
		<path fill-rule="evenodd" clip-rule="evenodd" d="M-19.778,112.901c0.773,4.763,0.54,4.964-4.223,3.647
			C-22.472,115.228-21.281,114.199-19.778,112.901z"/>
		<path fill-rule="evenodd" clip-rule="evenodd" d="M-21.084,181.462c0.077,1.108,0.154,2.218,0.231,3.326
			c-0.744-0.066-1.489-0.132-2.233-0.198c0.185-1.069,0.37-2.139,0.555-3.209C-22.049,181.408-21.566,181.435-21.084,181.462z"/>
		<path fill-rule="evenodd" clip-rule="evenodd" d="M-13.1,228.494c0.419,2.217,0.838,4.433,1.258,6.649
			c-0.184,0.045-0.368,0.091-0.551,0.137c-0.577-2.233-1.154-4.466-1.731-6.698C-13.783,228.553-13.442,228.523-13.1,228.494z"/>
		<path fill-rule="evenodd" clip-rule="evenodd" d="M98.984,408.499c1.6,1.75,3.199,3.501,4.799,5.252
			c-0.258,0.252-0.515,0.504-0.771,0.756c-1.65-1.73-3.3-3.46-4.949-5.189C98.369,409.044,98.677,408.771,98.984,408.499z"/>
		<path fill-rule="evenodd" clip-rule="evenodd" d="M245.497,195.663c1.103,0.134,2.204,0.268,3.306,0.401
			c-0.036,0.435-0.073,0.87-0.109,1.305c-1.086,0-2.17,0-3.256,0C245.457,196.801,245.477,196.231,245.497,195.663z"/>
		<path fill-rule="evenodd" clip-rule="evenodd" d="M260.565,205.08c1.211,1.868,1.724,2.444,1.923,3.113
			c0.051,0.171-1.062,1.016-1.346,0.89c-0.598-0.268-1.244-0.905-1.409-1.516C259.593,207.051,260.103,206.359,260.565,205.08z"/>
		<g>
			<radialGradient id="SVGID_4_" cx="-117.9033" cy="-270.3955" r="574.2973" gradientUnits="userSpaceOnUse">
				<stop  offset="0" style="stop-color:#F7931E"/>
				<stop  offset="1" style="stop-color:#582A87"/>
			</radialGradient>
			<path fill-rule="evenodd" clip-rule="evenodd" fill="url(#SVGID_4_)" d="M102.381-161.636c-0.393-0.781-3.461,0.007-4.216-0.865
				c-1.39-1.609-2.847-3.992-2.681-5.915c0.239-2.772,1.902-5.422,3.05-8.356c-3.858,1.609-7.421,3.096-10.985,4.582
				c-10.409,8.808-18.903,20.764-34.754,21.86c-0.739,0.051-1.41,1.244-2.093,1.927c-0.92,0.922-1.699,2.039-2.751,2.766
				c-2.994,2.071-6.098,3.988-9.992,6.505c-1.908-0.736-5.33-1.587-8.228-3.317c-2.482-1.482-4.235-1.075-6.563,0.026
				c-4.06,1.923-8.072,2.582-12.039-0.854c-2.574-2.229-5.563-4.337-8.735-5.443c-6.059-2.115-12.38-3.477-19.226-5.321
				c8.639,13.098,20.184,22.156,31.107,31.874c14.41,12.818,28.723,25.757,42.719,39.022c2.811,2.664,4.488,2.979,7.492,1.063
				c11.694-7.456,20.188-17.789,26.845-29.725c7.397-13.265,11.511-27.599,12.798-42.692
				C104.329-156.848,103.459-159.485,102.381-161.636z"/>
		</g>
		<path fill-rule="evenodd" clip-rule="evenodd" fill="#582A87" d="M71.522,16.883c-3.446-6.468,0.641-12.519,0.919-18.943
			c6.291,9.065,15.061,16.479,14.04,29.146c-0.437,5.416,1.469,11.021,2.311,16.54c0.526,0.215,1.054,0.43,1.581,0.645
			c7.634-6.468,15.268-12.936,23.785-20.152c3.307,14.478,6.463,28.296,9.619,42.113c-0.584,0.305-1.17,0.61-1.754,0.915
			c-1.158-0.716-2.303-1.456-3.479-2.139c-1.28-0.743-2.938-2.327-3.826-1.983c-3.23,1.25-5.381-0.297-8.146-1.466
			c-3.261-1.379-6.869-3.096-10.564,1.008c-2.824,3.136-9.988-1.512-10.504-6.603c-0.42-4.137-0.954-8.334-0.68-12.453
			c0.495-7.438-2.776-13.605-6.222-19.595c-1.649-2.866-4.796-4.872-7.265-7.268L71.522,16.883z"/>
		<path fill-rule="evenodd" clip-rule="evenodd" fill="#582A87" d="M147.716,1.525c-0.394-11.373-1.699-22.811-0.903-34.099
			c0.676-9.568,4.558-18.671,9.998-26.829c3.606-5.409,7.217-10.817,10.933-16.152c2.198-3.155,4.494-2.825,6.203,0.759
			c0.43,0.901,0.853,1.821,1.13,2.775c1.088,3.74,2.887,5.234,6.394,2.288c0.519-0.437,1.39-0.453,2.724-0.852
			c-1.083,2.424-1.876,4.2-2.852,6.387c-2.145-0.386-4.396-1.076-6.648-1.081c-1.221-0.003-2.441,1.166-3.663,1.806
			c0.625,1.052,1.12,2.215,1.907,3.128c1.095,1.271,2.407,2.356,3.91,3.792c-2.647,1.958-4.679,3.46-6.711,4.962
			c0.146,0.284,0.293,0.568,0.439,0.853c1.066-0.442,2.134-0.885,3.479-1.442c3.146,6.663-1.768,10.769-4.41,15.459
			c-3.309,5.874-6.849,11.619-10.088,17.529c-3.791,6.917-7.366,13.952-11.035,20.936C148.254,1.67,147.984,1.598,147.716,1.525z"/>
		<path fill-rule="evenodd" clip-rule="evenodd" fill="#F7931E" d="M98.998-375.318c0.144-5.896,4.4-9.041,9.012-11.117
			c5.815-2.619,11.783-1.089,16.282,3.096c9.623,8.95,13.505,20.312,12.188,33.393c-1.156,11.502-5.572,21.856-11.633,31.528
			c-1.359,2.171-3.682,3.74-6.434,5.039c7.649-12.973,13.926-26.075,12.268-41.712c-0.283,0.083-0.695,0.123-1.014,0.318
			c-0.387,0.239-0.693,0.608-1.737,1.565c-0.458-2.94-0.819-5.258-1.309-8.404c1.409,0.871,2.155,1.332,3.986,2.463
			c-2.378-7.737-3.855-14.51-9.103-19.612c-6.191-6.021-12.347-5.869-18.089,0.548c-1.159,1.295-1.929,2.939-2.878,4.423
			C100.025-374.301,99.512-374.81,98.998-375.318z"/>
		<path fill-rule="evenodd" clip-rule="evenodd" fill="#582A87" d="M210.156-192.613c-4.251,4.814-10.369,8.551-10.933,12.992
			c-1.554,12.237-14.552,11.946-18.396,20.922c-0.615-0.457-1.229-0.913-1.845-1.369c1.444-2.278,2.89-4.557,4.524-7.136
			c-2.139-3-2.107-6.108,2.457-8.543c-3.277-0.237-5.441-0.394-8.791-0.636c9.505-8.805,18.21-16.868,26.915-24.932
			c0.283,0.145,0.566,0.289,0.85,0.434c-0.483,1.398-1.196,2.77-1.362,4.204c-0.102,0.874,0.639,1.847,1,2.775
			c0.703-0.552,1.621-0.974,2.052-1.688c0.487-0.811,0.293-2.074,0.85-2.785c0.485-0.62,1.603-0.745,2.44-1.089
			c0.222,0.719,0.646,1.443,0.626,2.155C210.49-195.432,210.242-193.561,210.156-192.613z"/>
		<path fill-rule="evenodd" clip-rule="evenodd" fill="#F7931E" d="M109.947-324.325c1.586-1.685,3.278-2.817,3.955-4.388
			c0.687-1.594,0.9-3.784,0.391-5.426c-1.403-4.525-3.048-9.017-5.076-13.295c-1.364-2.879-3.543-5.372-5.122-7.693
			c1.08-2.513,1.927-5.216,3.366-7.557c0.871-1.418,2.531-2.611,4.103-3.2c0.55-0.206,2.259,1.521,2.806,2.666
			c2.357,4.936,4.815,9.865,6.614,15.015c3.271,9.364,2.245,17.95-5.509,25.097C112.902-320.736,111.571-321.57,109.947-324.325z"/>
		<path fill-rule="evenodd" clip-rule="evenodd" fill="#FFFFFF" d="M158.963,6.98c-3.541-6.289,1.772-10.633,3.663-15.618
			c1.44-3.798,3.762-7.324,6.063-10.719c3.758-5.541,7.691-10.978,11.847-16.223c0.946-1.194,3.103-1.429,5.55-1.185
			c-0.699,1.364-1.662,2.662-2.023,4.11c-0.369,1.479-0.831,3.727-0.07,4.562c4.094,4.498,0.963,7.066-2.19,9.68
			c-4.751,3.938-4.815,4.234-0.885,8.886C169.629-9.322,165.775,0.83,158.855,6.871C158.871,6.887,158.963,6.98,158.963,6.98z"/>
		<path fill-rule="evenodd" clip-rule="evenodd" fill="#F7931E" d="M105.475-311.312c1.809-1.066,2.742-1.617,3.85-2.271
			c2.801,4.111,3.061,8.139-0.262,11.496c-3.208,3.241-6.957,6.003-10.736,8.583c-0.941,0.643-3.903,0.209-4.211-0.49
			c-0.68-1.541-0.824-3.807-0.172-5.346c1.426-3.359,3.486-6.45,5.697-10.382c-2.305,0-3.492,0.296-4.416-0.073
			c-1.191-0.477-2.633-1.281-3.093-2.328c-0.351-0.797,0.351-2.505,1.12-3.264c2.453-2.422,4.959-4.899,7.838-6.738
			c1.721-1.1,4.178-1.045,6.305-1.509c0.254,1.964,0.904,3.98,0.652,5.878C107.799-315.873,106.643-314.111,105.475-311.312z"/>
		<path fill-rule="evenodd" clip-rule="evenodd" fill="#582A87" d="M145.98-82.031c1.89-6.01,3.246-12.255,5.788-17.975
			c4.41-9.926,8.323-20.22,15.646-28.551c0.933-1.062,3.542-2.244,3.984-1.842c1.28,1.163,1.851,3.107,2.88,5.095
			c-3.062,0.828-6.512,0.731-7.385,2.185c-2.93,4.877-4.941,10.306-6.305,16.091c2.609-4.248,5.22-8.496,7.829-12.745
			c0.479,0.236,0.958,0.472,1.437,0.708c-0.746,1.772-1.422,3.579-2.25,5.312c-3.695,7.744-7.797,15.32-11.029,23.252
			c-2.102,5.154-6.304,6.648-10.671,8.402L145.98-82.031z"/>
		<path fill-rule="evenodd" clip-rule="evenodd" fill="#582A87" d="M133.877-71.888c-0.803,1.715-2.145,4.576-3.486,7.438
			c0.776-30.385,8.268-59.527,16.359-88.555c0.469,0.09,0.936,0.18,1.404,0.27c-0.508,2.109-1.016,4.219-1.523,6.328
			c0.333,0.136,0.665,0.272,0.998,0.408c1.4-2.759,2.803-5.518,4.205-8.277c0.311,0.115,0.622,0.23,0.934,0.345
			c-0.122,1.241-0.026,2.553-0.398,3.713c-3.088,9.616-4.949,19.927-9.742,28.616c-5.873,10.647-4.521,22.541-8.481,33.398
			C132.525-83.762,133.877-78.236,133.877-71.888z"/>
		<path fill-rule="evenodd" clip-rule="evenodd" fill="#582A87" d="M37.37,41.383c-0.816-3.669-1.55-7.36-2.472-11.004
			c-1.137-4.491-2.715-8.892-3.551-13.433c-0.516-2.794,0.034-5.778,0.048-8.678C31.421,3,31.402-2.269,31.402-8.918
			C36.261-0.58,40.43,6.576,44.871,14.198c-9.675,4.393-4.408,13.424-6.412,20.314c-0.607,2.086-0.094,4.497-0.094,6.76
			C38.033,41.31,37.701,41.346,37.37,41.383z"/>
		<path fill-rule="evenodd" clip-rule="evenodd" fill="#FFFFFF" d="M-37.97,94.778c-5.166-4.363,0.688-8.74,1.391-13.751
			c0.839,1.761,1.679,3.521,2.386,5.004c2.527,0.947,5.072,1.901,8.64,3.238c-3.027,2.795-4.974,4.535-6.855,6.344
			c-2.659,2.556-6.105,4.591-5.5,9.222c0.122,0.931-0.734,2.379-1.575,2.983c-6.503,4.67-8.41,12.206-12.048,18.684
			c-1.356,2.413-3.559,4.352-6.574,6.348c0.307-1.961,0.144-4.16,0.998-5.843c4.335-8.54,8.821-17.009,13.509-25.359
			C-42.228,99.205-40.019,97.234-37.97,94.778z"/>
		<path fill-rule="evenodd" clip-rule="evenodd" fill="#582A87" d="M71.522,16.883c0,0-0.188-0.233-0.187-0.234
			c-0.208,4.254-3.583,3.292-5.5,2.586c-5.371-1.978-10.507-4.596-16.031-7.096c3.42-6.369,6.594-12.282,9.986-18.601
			c2.065,5.521,3.782,10.979,6.168,16.126C67.205,12.353,69.631,14.494,71.522,16.883z"/>
		<path fill-rule="evenodd" clip-rule="evenodd" fill="#582A87" d="M19.297,23.597C12.475,19.476-0.957,0.182,0.182-4.203
			C6.656,5.275,17.936,11.417,19.297,23.597z"/>
		<path fill-rule="evenodd" clip-rule="evenodd" fill="#582A87" d="M168.499-108.384c1.198,0.618,2.116,0.796,2.513,1.348
			c1.882,2.616,1.609,11.765-0.229,14.44c-2.597,3.779-4.874,7.81-7.752,11.356c-2.219,2.732-5.151,4.884-8.393,6.964
			C158.002-85.898,168.361-94.629,168.499-108.384z"/>
		<path fill-rule="evenodd" clip-rule="evenodd" fill="#582A87" d="M145.905-82.099c0.635,1.145,1.27,2.288,2.117,3.816
			c1.242-1.097,2.249-1.984,3.358-2.964c0.229,3.808-5.615,7.412,0.248,10.929c-3.365,5.794-6.668,11.478-9.971,17.162
			c-0.377-0.037-0.754-0.074-1.131-0.111c0.369-3.262,0.921-6.516,1.057-9.786c0.166-3.984,2.137-6.116,6.191-7.303
			c-1.307-0.675-2.613-1.349-4.398-2.271c0.861-3.059,1.751-6.212,2.621-9.386C145.98-82.031,145.905-82.099,145.905-82.099z"/>
		<path fill-rule="evenodd" clip-rule="evenodd" fill="#582A87" d="M181.244-202.545c-3.366,9.678-10.6,16.72-16.623,24.587
			C169.678-186.484,172.243-196.707,181.244-202.545z"/>
		<path fill-rule="evenodd" clip-rule="evenodd" fill="#582A87" d="M184.407-249.806c-5.503,7.006-11.007,14.013-16.511,21.02
			c-0.408-0.329-0.815-0.658-1.223-0.987c5.15-7.25,10.302-14.5,15.453-21.751C182.887-250.951,183.647-250.379,184.407-249.806z"/>
		<path fill-rule="evenodd" clip-rule="evenodd" fill="#582A87" d="M162.496-226.005c2.545,0.969,4.395,1.672,6.576,2.503
			c-4.135,3.127-8.265,6.25-12.395,9.373c-0.521-0.438-1.041-0.878-1.562-1.317C157.659-219.085,160.202-222.724,162.496-226.005z"
			/>
		<path fill-rule="evenodd" clip-rule="evenodd" fill="#F7931E" d="M91.486-339.555c0,3.716,0.419,6.7-0.125,9.499
			c-0.486,2.509-1.951,4.855-3.16,7.182c-0.367,0.707-1.322,1.108-2.008,1.649c-0.408-0.928-1.117-1.85-1.136-2.786
			c-0.019-0.886,0.698-1.782,1.073-2.681C87.725-330.508,89.311-334.326,91.486-339.555z"/>
		<path fill-rule="evenodd" clip-rule="evenodd" fill="#FFFFFF" d="M205.294-31.444c-5.045,1.86-8.868,3.27-13.185,4.861
			c2.416-3.734,3.703-8.154,8.781-8.432C201.961-35.073,203.132-33.267,205.294-31.444z"/>
		<path fill-rule="evenodd" clip-rule="evenodd" fill="#F7931E" stroke="#C68328" stroke-miterlimit="10" d="M-136.083-444.02
			c2.421,0.319,6.093,0.804,9.764,1.288c0.211,0.7,0.423,1.399,0.634,2.099c-2.117,1.027-4.967,3.426-6.186,2.773
			C-133.868-438.927-134.806-441.978-136.083-444.02z"/>
		<path fill-rule="evenodd" clip-rule="evenodd" fill="#582A87" d="M221.725-211.507c3.492-1.172,6.986-2.343,11.009-3.692
			c-1.532,4.11-4.475,5.346-10.526,5.107C222.047-210.563,221.885-211.035,221.725-211.507z"/>
		<path fill-rule="evenodd" clip-rule="evenodd" fill="#582A87" d="M177.568-51.513c2.156-2.596,4.311-5.191,6.466-7.787
			c0.551,0.477,1.102,0.954,1.652,1.431c-2.276,2.491-4.552,4.982-6.828,7.474C178.429-50.769,177.999-51.141,177.568-51.513z"/>
		<path fill-rule="evenodd" clip-rule="evenodd" fill="#582A87" d="M150.385-203.495c1.318-2.417,2.637-4.834,3.955-7.251
			c0.456,0.237,0.911,0.475,1.367,0.712c-1.281,2.462-2.562,4.924-3.844,7.387C151.371-202.93,150.877-203.213,150.385-203.495z"/>
		<path fill-rule="evenodd" clip-rule="evenodd" fill="#582A87" d="M-36.907-357.369c3.12,4.349,3.12,4.349-1.75,6.534
			C-38.052-353.094-37.611-354.739-36.907-357.369z"/>
		<path fill-rule="evenodd" clip-rule="evenodd" fill="#582A87" d="M161.371-170.771c-0.971,2.531-1.943,5.062-2.914,7.593
			c-0.539-0.223-1.078-0.446-1.616-0.669c1.095-2.479,2.188-4.959,3.282-7.438C160.539-171.113,160.955-170.941,161.371-170.771z"/>
		<path fill-rule="evenodd" clip-rule="evenodd" fill="#FFFFFF" d="M-56.188,106.358c1.409-3.049,2.819-6.097,4.229-9.145
			c0.449,0.216,0.897,0.433,1.346,0.648c-1.494,3.043-2.988,6.086-4.483,9.128C-55.459,106.78-55.824,106.569-56.188,106.358z"/>
		<path fill-rule="evenodd" clip-rule="evenodd" fill="#FFFFFF" d="M193.16-18.99c-1.516,0.432-3.033,0.862-4.549,1.294
			c-0.143-0.39-0.284-0.779-0.427-1.169c1.532-0.537,3.065-1.075,4.597-1.612C192.908-19.981,193.034-19.486,193.16-18.99z"/>
		<path fill-rule="evenodd" clip-rule="evenodd" fill="#FFFFFF" d="M53.451,155.938c-1.186,0.067-2.371,0.135-3.556,0.202
			c-0.048-0.414-0.096-0.827-0.144-1.24c1.167-0.2,2.334-0.4,3.502-0.601C53.319,154.846,53.385,155.392,53.451,155.938z"/>
		<path fill-rule="evenodd" clip-rule="evenodd" fill="#FFFFFF" d="M260.178,253.441c-0.812,1.712-1.623,3.424-2.435,5.136
			c-0.66-0.296-1.32-0.591-1.981-0.887c0.772-1.796,1.544-3.592,2.315-5.389C258.777,252.682,259.478,253.062,260.178,253.441z"/>
		<path fill-rule="evenodd" clip-rule="evenodd" d="M170.734-7.96c-1.475,1.262-2.95,2.522-4.426,3.784
			c-0.166-0.192-0.334-0.385-0.5-0.576c1.275-1.472,2.551-2.942,3.827-4.413C170.002-8.764,170.369-8.361,170.734-7.96z"/>
	</g>
</g>
<g>
	<linearGradient id="SVGID_5_" gradientUnits="userSpaceOnUse" x1="-248.8662" y1="-287.0361" x2="-128.8726" y2="-240.5386">
		<stop  offset="0" style="stop-color:#F7931E"/>
		<stop  offset="1" style="stop-color:#F7931E"/>
	</linearGradient>
	<path opacity="0.7" fill="url(#SVGID_5_)" d="M-136.672-317.068c-3.081-4.961-6.447-9.773-9.124-14.942
		c-1.353-2.613,0.615-4.844,2.035-7.502c1.126-2.109,2.676-3.533,4.398-4.664c0,0,0,0,0,0c1.435-1.054,6.983-50.003,6.983-50.003
		c-3.12,0.314-4.783-2.558-5.638-5.508c-1.076-3.716-2.224-6.918-6.408-8.108c-0.596-0.17-0.82-1.646-0.452-3.023
		c1.882,1.346,3.764,2.692,5.687,4.068c7.412-12.46,5.311-19.822-6.833-22.662c2.09-1.341,4.004-2.568,5.917-3.796
		c-0.082-0.425-0.164-0.851-0.245-1.275c-2.307-0.492-4.614-0.983-6.921-1.475c-0.43-6.377-0.172-6.654,5.655-6.958
		c0.208-3.362,0.162-6.62,0.663-9.791c0.62-3.919,1.427-7.805,2.184-11.484c-92.494,42.727-156.685,136.298-156.685,244.874
		c0,56.525,17.407,108.977,47.135,152.315c4.031-14.698,11.957-39.968,24.152-63.475c18.667-35.979,47.333-107.354,56-136.688
		S-136.672-317.068-136.672-317.068z"/>
	<linearGradient id="SVGID_6_" gradientUnits="userSpaceOnUse" x1="-175.4888" y1="-476.3965" x2="-55.4951" y2="-429.8989">
		<stop  offset="0" style="stop-color:#F7931E"/>
		<stop  offset="1" style="stop-color:#F7931E"/>
	</linearGradient>
	<path fill="url(#SVGID_6_)" d="M-132.461-452.573c2.068-5.507,1.915-9.763-0.016-14.034c-0.049-0.108-0.102-0.221-0.152-0.33
		c-1.461,0.631-2.923,1.262-4.372,1.918C-136.242-461.15-136.36-456.436-132.461-452.573z"/>
</g>
</svg>
