<?xml version="1.0" encoding="utf-8"?>
<!-- Generator: Adobe Illustrator 16.0.0, SVG Export Plug-In . SVG Version: 6.00 Build 0)  -->
<!DOCTYPE svg PUBLIC "-//W3C//DTD SVG 1.1//EN" "http://www.w3.org/Graphics/SVG/1.1/DTD/svg11.dtd">
<svg version="1.1" id="Layer_1" xmlns="http://www.w3.org/2000/svg" xmlns:xlink="http://www.w3.org/1999/xlink" x="0px" y="0px"
	 width="944.831px" height="868.235px" viewBox="-482.688 -696.659 944.831 868.235"
	 enable-background="new -482.688 -696.659 944.831 868.235" xml:space="preserve">
<rect x="-482.381" y="-696.659" fill="#200F2F" width="944.523" height="868.235"/>
<g>
	<path fill="#582A87" d="M201.606,15.306H-196.35l-74.697-43.145v-458.486l74.697-43.144h397.957l74.697,43.144v343.865
		l-74.697,43.144H66.378l-42.5-26.402l-48.939,26.402h-52.159l-70.189-43.144l25.114-235.683l79.205-43.144H9.067l42.5,26.402
		l48.939-26.402h42.501L116.605-170.15h75.985v-288.486h-379.926v403.108h388.941V15.306z M-37.94-345.946l-17.386,171.289h84.356
		l17.387-171.289H-37.94z"/>
</g>
<linearGradient id="SVGID_1_" gradientUnits="userSpaceOnUse" x1="-271.0474" y1="-269.082" x2="276.3037" y2="-269.082">
	<stop  offset="0" style="stop-color:#F7931E"/>
	<stop  offset="1" style="stop-color:#FF9022"/>
</linearGradient>
<path fill="url(#SVGID_1_)" d="M201.606,3.306H-196.35l-74.697-43.145v-458.486l74.697-43.144h397.957l74.697,43.144v343.865
	l-74.697,43.144H66.378l-42.5-26.402l-48.939,26.402h-52.159l-70.189-43.144l25.114-235.683l79.205-43.144H9.067l42.5,26.402
	l48.939-26.402h42.501L116.605-182.15h75.985v-288.486h-379.926v403.108h388.941V3.306z M-37.94-357.946l-17.386,171.289h84.356
	l17.387-171.289H-37.94z"/>
</svg>
