<?xml version="1.0" encoding="utf-8"?>
<!-- Generator: Adobe Illustrator 16.0.0, SVG Export Plug-In . SVG Version: 6.00 Build 0)  -->
<!DOCTYPE svg PUBLIC "-//W3C//DTD SVG 1.1//EN" "http://www.w3.org/Graphics/SVG/1.1/DTD/svg11.dtd">
<svg version="1.1" id="Layer_1" xmlns="http://www.w3.org/2000/svg" xmlns:xlink="http://www.w3.org/1999/xlink" x="0px" y="0px"
	 width="153px" height="300px" viewBox="0 0 153 300" enable-background="new 0 0 153 300" xml:space="preserve">
<g>
	<path fill="#48226A" d="M22.27,2.831l3.777,7.942l-9.953,4.732l-3.777-7.942L22.27,2.831z M16.618,13.34l7.427-3.531l-2.291-4.816
		l-7.427,3.532L16.618,13.34z"/>
	<path fill="#48226A" d="M28.188,17.356l-1.031-1.738l1.199-0.711l1.919,3.234l-5.287,3.137L24.1,19.781L28.188,17.356z"/>
	<path fill="#48226A" d="M33.278,28.665c0.488-0.347,0.772-0.764,0.851-1.251s-0.058-0.98-0.412-1.479l-2.141-3.024l1.138-0.805
		l2.173,3.069c0.436,0.615,0.701,1.227,0.794,1.834c0.093,0.606,0.012,1.178-0.243,1.713c-0.255,0.536-0.678,1.013-1.268,1.432
		l-6.169,4.368l-1-1.413L33.278,28.665z"/>
	<path fill="#48226A" d="M39.255,33.38l-0.4-0.678l1.023-0.862l3.448,4.093l-1.072,0.892l-1.832-2.176l-6.356,7.397l-1.151-1.367
		L39.255,33.38z"/>
	<path fill="#48226A" d="M46.312,41.192l-1.407-1.45l1-0.971l2.619,2.699l-4.413,4.28L42.9,44.502L46.312,41.192z"/>
	<path fill="#48226A" d="M52.241,58.011l-0.874,1l-6.821-5.958l0.923-1.057l4.51,3.939l3.625-4.15
		c0.628-0.719,0.921-1.38,0.881-1.982c-0.041-0.604-0.423-1.221-1.146-1.853l-2.008-1.754l0.917-1.05l2.079,1.815
		c1.085,0.948,1.674,1.926,1.767,2.935c0.092,1.008-0.313,2.028-1.215,3.062l-3.551,4.065L52.241,58.011z"/>
	<path fill="#48226A" d="M63.782,62.185l0.101,5.948l-1.588-1.108l-0.146-8.366c-0.787-0.04-1.471,0.357-2.053,1.19l-2.647,3.788
		l-1.38-0.964l2.288-3.275c0.547-0.782,1.127-1.329,1.741-1.642c0.614-0.313,1.29-0.402,2.025-0.269l-0.064-4.074l1.595,1.115
		l0.098,5.821l4.879-2.344l1.603,1.12L63.782,62.185z"/>
	<path fill="#48226A" d="M74.412,63.17l-1.113-0.636l0.691-1.21l2.624,1.498l-5.465,9.57l-1.511-0.862L74.412,63.17z"/>
	<path fill="#48226A" d="M91.559,73.507c0.222-0.557,0.233-1.061,0.034-1.513s-0.582-0.791-1.15-1.018l-3.441-1.372l0.516-1.295
		l3.494,1.393c0.701,0.28,1.256,0.648,1.664,1.107c0.408,0.458,0.65,0.981,0.729,1.569c0.078,0.589-0.018,1.219-0.285,1.891
		l-2.801,7.021L88.71,80.65L91.559,73.507z"/>
	<path fill="#48226A" d="M99.889,74.354l-1.226-0.377l0.41-1.332l2.889,0.889L98.72,84.067l-1.664-0.512L99.889,74.354z"/>
	<path fill="#48226A" d="M107.358,86.384c-0.606-0.235-1.179-0.516-1.716-0.839l0.598-1.203c0.503,0.277,1.021,0.516,1.556,0.715
		s1.022,0.345,1.462,0.438c1.003,0.198,1.829,0.107,2.476-0.272c0.648-0.38,1.068-1.03,1.264-1.952l1.122-5.328l-4.321-0.91
		c-0.266,0.294-0.513,0.687-0.74,1.178c-0.228,0.49-0.396,0.992-0.504,1.505l-0.174,0.824c0.122,0.089,0.293,0.17,0.514,0.241
		c0.221,0.072,0.514,0.146,0.881,0.225l-0.309,1.464c-0.758-0.159-1.344-0.329-1.758-0.509c-0.415-0.18-0.814-0.431-1.199-0.754
		l0.258-1.399c0.129-0.616,0.334-1.203,0.613-1.759c0.28-0.557,0.595-0.999,0.944-1.326l-1.31-0.276l0.288-1.364l8.798,1.854
		l-1.343,6.372c-0.214,1.013-0.591,1.821-1.132,2.424c-0.542,0.603-1.201,1-1.977,1.189c-0.777,0.19-1.632,0.188-2.566-0.01
		C108.54,86.796,107.966,86.62,107.358,86.384z"/>
	<path fill="#48226A" d="M122.634,79.232l-2.007-0.235l0.163-1.384l3.734,0.438l-0.716,6.105l-1.729-0.203L122.634,79.232z"/>
	<path fill="#48226A" d="M136.245,84.958l3.363,4.906l-1.936-0.05l-4.736-6.897c-0.678,0.4-1.029,1.108-1.056,2.125l-0.118,4.62
		l-1.684-0.043l0.102-3.994c0.025-0.954,0.207-1.73,0.547-2.33s0.854-1.047,1.541-1.341l-2.299-3.363l1.945,0.051l3.292,4.802
		l2.777-4.646l1.955,0.05L136.245,84.958z"/>
</g>
<g>
	<path fill="#48226A" d="M22.27,152.831l3.777,7.942l-9.953,4.732l-3.777-7.942L22.27,152.831z M16.618,163.34l7.427-3.531
		l-2.291-4.816l-7.427,3.532L16.618,163.34z"/>
	<path fill="#48226A" d="M28.188,167.356l-1.031-1.738l1.199-0.711l1.919,3.234l-5.287,3.137l-0.888-1.497L28.188,167.356z"/>
	<path fill="#48226A" d="M33.278,178.665c0.488-0.347,0.772-0.764,0.851-1.251s-0.058-0.98-0.412-1.479l-2.141-3.024l1.138-0.805
		l2.173,3.069c0.436,0.615,0.701,1.227,0.794,1.834c0.093,0.606,0.012,1.178-0.243,1.713c-0.255,0.536-0.678,1.013-1.268,1.432
		l-6.169,4.368l-1-1.413L33.278,178.665z"/>
	<path fill="#48226A" d="M39.255,183.38l-0.4-0.678l1.023-0.862l3.448,4.093l-1.072,0.892l-1.832-2.176l-6.356,7.397l-1.151-1.367
		L39.255,183.38z"/>
	<path fill="#48226A" d="M46.312,191.192l-1.407-1.45l1-0.971l2.619,2.699l-4.413,4.28l-1.211-1.249L46.312,191.192z"/>
	<path fill="#FFFFFF" d="M52.241,208.011l-0.874,1l-6.821-5.958l0.923-1.057l4.51,3.939l3.625-4.15
		c0.628-0.719,0.921-1.38,0.881-1.982c-0.041-0.604-0.423-1.221-1.146-1.853l-2.008-1.754l0.917-1.05l2.079,1.815
		c1.085,0.948,1.674,1.926,1.767,2.935c0.092,1.008-0.313,2.028-1.215,3.062l-3.551,4.065L52.241,208.011z"/>
	<path fill="#FFFFFF" d="M63.782,212.185l0.101,5.948l-1.588-1.108l-0.146-8.366c-0.787-0.04-1.471,0.357-2.053,1.19l-2.647,3.788
		l-1.38-0.964l2.288-3.275c0.547-0.782,1.127-1.329,1.741-1.642c0.614-0.313,1.29-0.402,2.025-0.269l-0.064-4.074l1.595,1.115
		l0.098,5.821l4.879-2.344l1.603,1.12L63.782,212.185z"/>
	<path fill="#FFFFFF" d="M74.412,213.17l-1.113-0.636l0.691-1.21l2.624,1.498l-5.465,9.57l-1.511-0.862L74.412,213.17z"/>
	<path fill="#FFFFFF" d="M91.559,223.507c0.222-0.557,0.233-1.061,0.034-1.513s-0.582-0.791-1.15-1.018l-3.441-1.372l0.516-1.295
		l3.494,1.393c0.701,0.28,1.256,0.648,1.664,1.107c0.408,0.458,0.65,0.981,0.729,1.569c0.078,0.589-0.018,1.219-0.285,1.891
		l-2.801,7.021l-1.607-0.641L91.559,223.507z"/>
	<path fill="#FFFFFF" d="M99.889,224.354l-1.226-0.377l0.41-1.332l2.889,0.889l-3.242,10.533l-1.664-0.512L99.889,224.354z"/>
	<path fill="#FFFFFF" d="M107.358,236.384c-0.606-0.235-1.179-0.516-1.716-0.839l0.598-1.203c0.503,0.277,1.021,0.516,1.556,0.715
		s1.022,0.345,1.462,0.438c1.003,0.198,1.829,0.107,2.476-0.272c0.648-0.38,1.068-1.03,1.264-1.952l1.122-5.328l-4.321-0.91
		c-0.266,0.294-0.513,0.687-0.74,1.178c-0.228,0.49-0.396,0.992-0.504,1.505l-0.174,0.824c0.122,0.089,0.293,0.17,0.514,0.241
		c0.221,0.072,0.514,0.146,0.881,0.225l-0.309,1.464c-0.758-0.159-1.344-0.329-1.758-0.509c-0.415-0.18-0.814-0.431-1.199-0.754
		l0.258-1.399c0.129-0.616,0.334-1.203,0.613-1.759c0.28-0.557,0.595-0.999,0.944-1.326l-1.31-0.276l0.288-1.364l8.798,1.854
		l-1.343,6.372c-0.214,1.013-0.591,1.821-1.132,2.424c-0.542,0.603-1.201,1-1.977,1.189c-0.777,0.19-1.632,0.188-2.566-0.01
		C108.54,236.796,107.966,236.62,107.358,236.384z"/>
	<path fill="#48226A" d="M122.634,229.232l-2.007-0.235l0.163-1.384l3.734,0.438l-0.716,6.105l-1.729-0.203L122.634,229.232z"/>
	<path fill="#48226A" d="M136.245,234.958l3.363,4.906l-1.936-0.05l-4.736-6.897c-0.678,0.4-1.029,1.108-1.056,2.125l-0.118,4.62
		l-1.684-0.043l0.102-3.994c0.025-0.954,0.207-1.73,0.547-2.33s0.854-1.047,1.541-1.341l-2.299-3.363l1.945,0.051l3.292,4.802
		l2.777-4.646l1.955,0.05L136.245,234.958z"/>
</g>
</svg>
