<?xml version="1.0" encoding="utf-8"?>
<!-- Generator: Adobe Illustrator 16.0.0, SVG Export Plug-In . SVG Version: 6.00 Build 0)  -->
<!DOCTYPE svg PUBLIC "-//W3C//DTD SVG 1.1//EN" "http://www.w3.org/Graphics/SVG/1.1/DTD/svg11.dtd">
<svg version="1.1" id="Layer_1" xmlns="http://www.w3.org/2000/svg" xmlns:xlink="http://www.w3.org/1999/xlink" x="0px" y="0px"
	 width="153px" height="300px" viewBox="0 0 153 300" enable-background="new 0 0 153 300" xml:space="preserve">
<g>
	<path fill="#48226A" d="M10.901,84.647c0.676,0.798,0.938,1.936,0.787,3.412l-0.719,7.063L9.172,94.94l0.72-7.171
		c0.101-0.991-0.038-1.732-0.417-2.222c-0.379-0.49-1.041-0.783-1.986-0.88l-1.623-0.165c-0.249,0.328-0.465,0.76-0.646,1.294
		s-0.303,1.09-0.361,1.666L4.465,91.32c-0.106,1.049-0.438,1.82-0.991,2.313s-1.308,0.691-2.259,0.595
		c-0.279-0.028-0.648-0.096-1.109-0.201l0.148-1.447c0.204,0.047,0.426,0.082,0.666,0.106c0.563,0.058,0.988-0.046,1.273-0.312
		s0.46-0.713,0.523-1.341l0.368-3.614c0.06-0.589,0.198-1.169,0.413-1.739s0.477-1.017,0.783-1.339l-2.146-0.219l0.146-1.447
		l5.334,0.543C9.131,83.373,10.227,83.849,10.901,84.647z"/>
	<path fill="#48226A" d="M18.591,85.313l-1.338-0.021l0.024-1.455l3.153,0.051l-0.187,11.503l-1.816-0.03L18.591,85.313z"/>
	<path fill="#48226A" d="M27.628,85.167l-2.106,0.11l-0.076-1.453l3.92-0.206l0.338,6.407l-1.814,0.096L27.628,85.167z"/>
	<path fill="#48226A" d="M36.721,87.208c-0.014-0.538,0.064-1.058,0.232-1.559s0.391-0.9,0.67-1.197
		c0.023-0.022,0.082-0.077,0.174-0.163l-0.023-0.026c-0.281,0.094-0.633,0.229-1.051,0.403c-0.418,0.176-0.799,0.352-1.143,0.525
		l-0.611-1.293c0.709-0.365,1.518-0.696,2.422-0.991s1.746-0.499,2.527-0.612c1.533-0.222,2.762,0.017,3.689,0.715
		c0.926,0.698,1.506,1.837,1.742,3.414l0.98,6.785l-4.688,0.678l-0.209-1.44l2.9-0.419l-0.803-5.548
		c-0.146-1.012-0.486-1.748-1.02-2.211c-0.535-0.462-1.236-0.63-2.105-0.505c-0.625,0.091-1.113,0.406-1.463,0.946
		c-0.35,0.541-0.512,1.23-0.49,2.069l0.213,7.538l-1.77,0.255L36.721,87.208z"/>
	<path fill="#48226A" d="M58.196,78.597l0.363,1.409l-1.863,0.479l2.504,9.732l-1.76,0.452l-2.504-9.731l-5.297,1.362l-0.361-1.409
		L58.196,78.597z"/>
	<path fill="#48226A" d="M70.741,78.749c-0.348-0.934-0.811-1.53-1.389-1.791c-0.576-0.261-1.33-0.218-2.264,0.13l-3.908,1.457
		l-0.508-1.363l3.99-1.487c1.408-0.525,2.602-0.581,3.58-0.168c0.977,0.414,1.717,1.292,2.217,2.634l2.504,6.716l-1.701,0.635
		L70.741,78.749z M65.338,84.275c-0.207-0.555-0.328-1.008-0.365-1.358c-0.037-0.352-0.041-0.717-0.008-1.097l1.391-0.52
		c0.031,0.309,0.092,0.64,0.184,0.995c0.09,0.355,0.225,0.774,0.404,1.256l1.414,3.788l-1.648,0.614L65.338,84.275z"/>
	<path fill="#48226A" d="M77.468,72.73l-1.207,0.576l-0.627-1.313l2.848-1.358l4.951,10.384l-1.639,0.782L77.468,72.73z"/>
	<path fill="#48226A" d="M97.997,60.312c1.029,0.181,1.959,0.886,2.789,2.116l3.975,5.884l-1.498,1.011l-4.041-5.967
		c-0.559-0.826-1.139-1.306-1.744-1.439c-0.605-0.133-1.301,0.066-2.088,0.598l-1.352,0.913c0.018,0.411,0.129,0.881,0.332,1.408
		c0.203,0.526,0.465,1.03,0.789,1.511l2.17,3.213c0.592,0.874,0.832,1.678,0.723,2.411c-0.109,0.734-0.561,1.368-1.354,1.904
		c-0.232,0.156-0.559,0.342-0.98,0.556l-0.814-1.206c0.188-0.095,0.381-0.21,0.58-0.345c0.469-0.316,0.729-0.669,0.777-1.056
		s-0.102-0.842-0.455-1.365l-2.033-3.011c-0.332-0.49-0.598-1.023-0.799-1.6c-0.199-0.575-0.285-1.086-0.256-1.53l-1.787,1.208
		l-0.814-1.206l4.441-3C95.821,60.467,96.968,60.131,97.997,60.312z"/>
	<path fill="#48226A" d="M104.3,55.917l-1.037,0.846l-0.92-1.129l2.445-1.992l7.266,8.919l-1.408,1.147L104.3,55.917z"/>
	<path fill="#48226A" d="M113.011,52.069c-0.328-0.427-0.57-0.893-0.73-1.396c-0.16-0.504-0.215-0.958-0.164-1.362
		c0.004-0.032,0.02-0.11,0.043-0.234l-0.033-0.008c-0.174,0.242-0.377,0.558-0.611,0.946s-0.439,0.755-0.613,1.098l-1.256-0.684
		c0.357-0.714,0.814-1.457,1.371-2.229c0.557-0.771,1.117-1.433,1.68-1.983c1.107-1.083,2.242-1.615,3.402-1.598
		s2.299,0.595,3.42,1.73l4.791,4.902l-3.387,3.311l-1.018-1.04l2.096-2.048l-3.918-4.009c-0.715-0.73-1.424-1.125-2.127-1.185
		c-0.705-0.058-1.371,0.22-1.998,0.834c-0.453,0.441-0.66,0.983-0.623,1.626c0.035,0.643,0.311,1.296,0.822,1.961l4.615,5.963
		l-1.277,1.25L113.011,52.069z"/>
	<path fill="#48226A" d="M121.655,39.113l-0.869,1.018l-1.105-0.944l2.047-2.399l8.752,7.467l-1.18,1.382L121.655,39.113z"/>
	<path fill="#48226A" d="M135.952,36.581c-0.781,0.344-1.615,0.452-2.504,0.326c-0.889-0.125-1.762-0.488-2.621-1.089l-0.957-0.677
		c-0.408-0.29-0.775-0.635-1.098-1.034c-0.322-0.4-0.574-0.815-0.752-1.245c-0.18-0.429-0.264-0.832-0.252-1.207
		c-0.002-0.065,0.002-0.117,0.014-0.157l-0.029-0.009c-0.166,0.305-0.434,0.957-0.799,1.959l-1.32-0.503
		c0.256-0.754,0.604-1.561,1.043-2.421c0.441-0.859,0.896-1.619,1.363-2.278c0.615-0.871,1.318-1.501,2.107-1.888
		c0.787-0.388,1.625-0.521,2.51-0.401c0.883,0.119,1.771,0.495,2.666,1.127l1.123,0.795c0.855,0.605,1.492,1.304,1.91,2.094
		s0.594,1.612,0.527,2.467s-0.379,1.675-0.934,2.462C137.399,35.677,136.735,36.236,135.952,36.581z M137.247,32.436
		c0.018-0.558-0.133-1.104-0.449-1.64c-0.314-0.534-0.775-1.016-1.381-1.444l-1.117-0.79c-0.627-0.443-1.246-0.725-1.861-0.845
		c-0.613-0.118-1.182-0.07-1.705,0.146s-0.971,0.586-1.344,1.112c-0.334,0.473-0.502,0.979-0.504,1.516s0.166,1.074,0.5,1.609
		c0.334,0.536,0.818,1.037,1.455,1.503l1.043,0.739c0.607,0.429,1.215,0.703,1.822,0.823c0.609,0.119,1.174,0.081,1.691-0.114
		c0.518-0.196,0.951-0.541,1.301-1.035C137.048,33.521,137.231,32.994,137.247,32.436z"/>
	<path fill="#48226A" d="M139.528,16.808c-0.545-0.306-1.064-0.386-1.561-0.241c-0.494,0.145-0.898,0.495-1.209,1.052l-1.889,3.374
		l-1.27-0.71l1.916-3.426c0.385-0.688,0.844-1.211,1.373-1.571s1.104-0.54,1.723-0.54c0.621-0.001,1.26,0.184,1.918,0.553
		l6.887,3.854l-0.883,1.577L139.528,16.808z"/>
	<path fill="#48226A" d="M151.464,10.881c-0.365,0.572-0.77,1.101-1.211,1.585l-1.109-0.858c0.389-0.457,0.738-0.939,1.051-1.446
		s0.562-0.976,0.746-1.406c0.408-0.986,0.484-1.85,0.229-2.591c-0.256-0.74-0.836-1.304-1.74-1.691l-5.223-2.238l-1.816,4.236
		c0.246,0.332,0.598,0.665,1.055,0.999c0.455,0.333,0.934,0.607,1.436,0.823l0.809,0.346c0.117-0.105,0.234-0.264,0.354-0.476
		c0.117-0.211,0.254-0.496,0.408-0.855l1.436,0.616c-0.316,0.742-0.611,1.307-0.879,1.694c-0.27,0.388-0.609,0.745-1.018,1.072
		l-1.381-0.549c-0.604-0.259-1.162-0.588-1.674-0.988s-0.9-0.812-1.164-1.237l-0.551,1.283l-1.338-0.573L143.579,0l6.248,2.678
		c0.992,0.426,1.742,0.978,2.25,1.655c0.506,0.678,0.777,1.433,0.812,2.267c0.037,0.833-0.143,1.708-0.535,2.623
		C152.126,9.756,151.829,10.308,151.464,10.881z"/>
</g>
<g>
	<path fill="#48226A" d="M10.901,234.479c0.676,0.798,0.938,1.936,0.787,3.412l-0.719,7.063l-1.797-0.183l0.72-7.171
		c0.101-0.991-0.038-1.732-0.417-2.222c-0.379-0.49-1.041-0.783-1.986-0.88l-1.623-0.165c-0.249,0.328-0.465,0.76-0.646,1.294
		s-0.303,1.09-0.361,1.666l-0.393,3.857c-0.106,1.049-0.438,1.82-0.991,2.313s-1.308,0.691-2.259,0.595
		c-0.279-0.028-0.648-0.096-1.109-0.201l0.148-1.447c0.204,0.047,0.426,0.082,0.666,0.106c0.563,0.058,0.988-0.046,1.273-0.312
		s0.46-0.713,0.523-1.341l0.368-3.614c0.06-0.589,0.198-1.169,0.413-1.739s0.477-1.017,0.783-1.339l-2.146-0.219l0.146-1.447
		l5.334,0.543C9.131,233.204,10.227,233.68,10.901,234.479z"/>
	<path fill="#48226A" d="M18.591,235.145l-1.338-0.021l0.024-1.455l3.153,0.051l-0.187,11.503l-1.816-0.03L18.591,235.145z"/>
	<path fill="#FFFFFF" d="M27.628,234.998l-2.106,0.11l-0.076-1.453l3.92-0.206l0.338,6.407l-1.814,0.096L27.628,234.998z"/>
	<path fill="#FFFFFF" d="M36.721,237.039c-0.014-0.538,0.064-1.058,0.232-1.559s0.391-0.9,0.67-1.197
		c0.023-0.022,0.082-0.077,0.174-0.163l-0.023-0.026c-0.281,0.094-0.633,0.229-1.051,0.403c-0.418,0.176-0.799,0.352-1.143,0.525
		l-0.611-1.293c0.709-0.365,1.518-0.696,2.422-0.991s1.746-0.499,2.527-0.612c1.533-0.222,2.762,0.017,3.689,0.715
		c0.926,0.698,1.506,1.837,1.742,3.414l0.98,6.785l-4.688,0.678l-0.209-1.44l2.9-0.419l-0.803-5.548
		c-0.146-1.012-0.486-1.748-1.02-2.211c-0.535-0.462-1.236-0.63-2.105-0.505c-0.625,0.091-1.113,0.406-1.463,0.946
		c-0.35,0.541-0.512,1.23-0.49,2.069l0.213,7.538l-1.77,0.255L36.721,237.039z"/>
	<path fill="#FFFFFF" d="M58.196,228.428l0.363,1.409l-1.863,0.479l2.504,9.732l-1.76,0.452l-2.504-9.731l-5.297,1.362l-0.361-1.409
		L58.196,228.428z"/>
	<path fill="#FFFFFF" d="M70.741,228.58c-0.348-0.934-0.811-1.53-1.389-1.791c-0.576-0.261-1.33-0.218-2.264,0.13l-3.908,1.457
		l-0.508-1.363l3.99-1.487c1.408-0.525,2.602-0.581,3.58-0.168c0.977,0.414,1.717,1.292,2.217,2.634l2.504,6.716l-1.701,0.635
		L70.741,228.58z M65.338,234.106c-0.207-0.555-0.328-1.008-0.365-1.358c-0.037-0.352-0.041-0.717-0.008-1.097l1.391-0.52
		c0.031,0.309,0.092,0.64,0.184,0.995c0.09,0.355,0.225,0.774,0.404,1.256l1.414,3.788l-1.648,0.614L65.338,234.106z"/>
	<path fill="#FFFFFF" d="M77.468,222.562l-1.207,0.576l-0.627-1.313l2.848-1.358l4.951,10.384l-1.639,0.782L77.468,222.562z"/>
	<path fill="#FFFFFF" d="M97.997,210.143c1.029,0.181,1.959,0.886,2.789,2.116l3.975,5.884l-1.498,1.011l-4.041-5.967
		c-0.559-0.826-1.139-1.306-1.744-1.439c-0.605-0.133-1.301,0.066-2.088,0.598l-1.352,0.913c0.018,0.411,0.129,0.881,0.332,1.408
		c0.203,0.526,0.465,1.03,0.789,1.511l2.17,3.213c0.592,0.874,0.832,1.678,0.723,2.411c-0.109,0.734-0.561,1.368-1.354,1.904
		c-0.232,0.156-0.559,0.342-0.98,0.556l-0.814-1.206c0.188-0.095,0.381-0.21,0.58-0.345c0.469-0.316,0.729-0.669,0.777-1.056
		s-0.102-0.842-0.455-1.365l-2.033-3.011c-0.332-0.49-0.598-1.023-0.799-1.6c-0.199-0.575-0.285-1.086-0.256-1.53l-1.787,1.208
		l-0.814-1.206l4.441-3C95.821,210.298,96.968,209.962,97.997,210.143z"/>
	<path fill="#FFFFFF" d="M104.3,205.748l-1.037,0.846l-0.92-1.129l2.445-1.992l7.266,8.919l-1.408,1.147L104.3,205.748z"/>
	<path fill="#48226A" d="M113.011,201.9c-0.328-0.427-0.57-0.893-0.73-1.396c-0.16-0.504-0.215-0.958-0.164-1.362
		c0.004-0.032,0.02-0.11,0.043-0.234l-0.033-0.008c-0.174,0.242-0.377,0.558-0.611,0.946s-0.439,0.755-0.613,1.098l-1.256-0.684
		c0.357-0.714,0.814-1.457,1.371-2.229c0.557-0.771,1.117-1.433,1.68-1.983c1.107-1.083,2.242-1.615,3.402-1.598
		s2.299,0.595,3.42,1.73l4.791,4.902l-3.387,3.311l-1.018-1.04l2.096-2.048l-3.918-4.009c-0.715-0.73-1.424-1.125-2.127-1.185
		c-0.705-0.058-1.371,0.22-1.998,0.834c-0.453,0.441-0.66,0.983-0.623,1.626c0.035,0.643,0.311,1.296,0.822,1.961l4.615,5.963
		l-1.277,1.25L113.011,201.9z"/>
	<path fill="#48226A" d="M121.655,188.944l-0.869,1.018l-1.105-0.944l2.047-2.399l8.752,7.467l-1.18,1.382L121.655,188.944z"/>
	<path fill="#48226A" d="M135.952,186.412c-0.781,0.344-1.615,0.452-2.504,0.326c-0.889-0.125-1.762-0.488-2.621-1.089l-0.957-0.677
		c-0.408-0.29-0.775-0.635-1.098-1.034c-0.322-0.4-0.574-0.815-0.752-1.245c-0.18-0.429-0.264-0.832-0.252-1.207
		c-0.002-0.065,0.002-0.117,0.014-0.157l-0.029-0.009c-0.166,0.305-0.434,0.957-0.799,1.959l-1.32-0.503
		c0.256-0.754,0.604-1.561,1.043-2.421c0.441-0.859,0.896-1.619,1.363-2.278c0.615-0.871,1.318-1.501,2.107-1.888
		c0.787-0.388,1.625-0.521,2.51-0.401c0.883,0.119,1.771,0.495,2.666,1.127l1.123,0.795c0.855,0.605,1.492,1.304,1.91,2.094
		s0.594,1.612,0.527,2.467s-0.379,1.675-0.934,2.462C137.399,185.508,136.735,186.067,135.952,186.412z M137.247,182.267
		c0.018-0.558-0.133-1.104-0.449-1.64c-0.314-0.534-0.775-1.016-1.381-1.444l-1.117-0.79c-0.627-0.443-1.246-0.725-1.861-0.845
		c-0.613-0.118-1.182-0.07-1.705,0.146s-0.971,0.586-1.344,1.112c-0.334,0.473-0.502,0.979-0.504,1.516s0.166,1.074,0.5,1.609
		c0.334,0.536,0.818,1.037,1.455,1.503l1.043,0.739c0.607,0.429,1.215,0.703,1.822,0.823c0.609,0.119,1.174,0.081,1.691-0.114
		c0.518-0.196,0.951-0.541,1.301-1.035C137.048,183.352,137.231,182.825,137.247,182.267z"/>
	<path fill="#48226A" d="M139.528,166.639c-0.545-0.306-1.064-0.386-1.561-0.241c-0.494,0.145-0.898,0.495-1.209,1.052l-1.889,3.374
		l-1.27-0.71l1.916-3.426c0.385-0.688,0.844-1.211,1.373-1.571s1.104-0.54,1.723-0.54c0.621-0.001,1.26,0.184,1.918,0.553
		l6.887,3.854l-0.883,1.577L139.528,166.639z"/>
	<path fill="#48226A" d="M151.464,160.712c-0.365,0.572-0.77,1.101-1.211,1.585l-1.109-0.858c0.389-0.457,0.738-0.939,1.051-1.446
		s0.562-0.976,0.746-1.406c0.408-0.986,0.484-1.85,0.229-2.591c-0.256-0.74-0.836-1.304-1.74-1.691l-5.223-2.238l-1.816,4.236
		c0.246,0.332,0.598,0.665,1.055,0.999c0.455,0.333,0.934,0.607,1.436,0.823l0.809,0.346c0.117-0.105,0.234-0.264,0.354-0.476
		c0.117-0.211,0.254-0.496,0.408-0.855l1.436,0.616c-0.316,0.742-0.611,1.307-0.879,1.694c-0.27,0.388-0.609,0.745-1.018,1.072
		l-1.381-0.549c-0.604-0.259-1.162-0.588-1.674-0.988s-0.9-0.812-1.164-1.237l-0.551,1.283l-1.338-0.573l3.697-8.626l6.248,2.678
		c0.992,0.426,1.742,0.978,2.25,1.655c0.506,0.678,0.777,1.433,0.812,2.267c0.037,0.833-0.143,1.708-0.535,2.623
		C152.126,159.587,151.829,160.139,151.464,160.712z"/>
</g>
</svg>
