<?xml version="1.0" encoding="utf-8"?>
<!-- Generator: Adobe Illustrator 16.0.0, SVG Export Plug-In . SVG Version: 6.00 Build 0)  -->
<!DOCTYPE svg PUBLIC "-//W3C//DTD SVG 1.1//EN" "http://www.w3.org/Graphics/SVG/1.1/DTD/svg11.dtd">
<svg version="1.1" id="Layer_1" xmlns="http://www.w3.org/2000/svg" xmlns:xlink="http://www.w3.org/1999/xlink" x="0px" y="0px"
	 width="310.829px" height="737.264px" viewBox="362.38 30.736 310.829 737.264"
	 enable-background="new 362.38 30.736 310.829 737.264" xml:space="preserve">
<symbol  id="New_Symbol" viewBox="-109 -248.734 218 497.47">
	<g display="none" opacity="0.6">
		<defs>
			<filter id="Adobe_OpacityMaskFilter" filterUnits="userSpaceOnUse" x="-108.049" y="-216.845" width="215.099" height="172.489">
				<feColorMatrix  type="matrix" values="1 0 0 0 0  0 1 0 0 0  0 0 1 0 0  0 0 0 1 0"/>
			</filter>
		</defs>
		<mask maskUnits="userSpaceOnUse" x="-108.049" y="-216.845" width="215.099" height="172.489" id="SVGID_6_" display="inline">
			<g filter="url(#Adobe_OpacityMaskFilter)">
				
					<image overflow="visible" enable-background="new    " width="221" height="177" xlink:href="ACB9D7ED4F61B6C5.jpg"  transform="matrix(1 0 0 -1 -111 219.2656)">
				</image>
			</g>
		</mask>
		<g display="inline" mask="url(#SVGID_6_)">
			
				<radialGradient id="SVGID_3_" cx="-0.4995" cy="-8311.2598" r="83.052" gradientTransform="matrix(1 0 0 1.827 0 15315.2734)" gradientUnits="userSpaceOnUse">
				<stop  offset="0.0056" style="stop-color:#005B97"/>
				<stop  offset="0.1348" style="stop-color:#0075BE"/>
				<stop  offset="0.4326" style="stop-color:#1E9CD7"/>
				<stop  offset="0.5351" style="stop-color:#47ACDE"/>
				<stop  offset="0.6934" style="stop-color:#80C2E7"/>
				<stop  offset="0.8294" style="stop-color:#A9D2EE"/>
				<stop  offset="0.9359" style="stop-color:#C3DCF2"/>
				<stop  offset="1" style="stop-color:#CCE0F4"/>
			</radialGradient>
			<path opacity="0.6" fill="url(#SVGID_3_)" enable-background="new    " d="M36.448,110.251
				c15.29,35.854,42.08,13.926,45.263-15.991c6.896,15.991,18.479-18.438,25.339-29.554
				c-6.774,82.367-60.675,152.139-108.61,152.139c-47.938,0-96.532-49.421-106.489-172.489c6.013,9.743,16.321,69.715,25.339,58.144
				c4.773,27.134,19.094,26.164,28.111,4.846c-0.144,27.926,16.249,34.887,20.097,11.628
				C-26.018,166.455,8.726,180.021,36.448,110.251z"/>
		</g>
	</g>
	<polygon opacity="0.3" fill="#333333" enable-background="new    " points="63,20.085 63,152.735 27.13,224.266 -7.777,224.266 
		-7.858,223.778 -8.24,223.896 -45,152.735 -45,20.085 -87,-51.661 -87,-78.023 -56.558,-91.038 -44.5,-84.734 -33.473,-84.734 
		-45.276,-108.091 -45.268,-108.234 -45.276,-108.051 -33.483,-130.734 50.5,-130.734 62,-107.938 62,-107.438 50.805,-84.734 
		63.5,-84.734 75.058,-91.038 105,-78.023 105,-51.661 	"/>
	<g>
		<polygon fill="#848484" points="-46.531,-136.734 -61.279,-109.876 -51.644,-91.133 -66.396,-97.771 -102,-82.286 -102,-51.306 
			-60,20.44 -60,152.945 -21.278,228.266 20.187,228.266 58,152.941 58,20.44 100,-51.306 100,-82.286 64.896,-97.837 
			48.969,-91.265 57.438,-109.884 43.551,-136.734 		"/>
	</g>
	<polygon fill="#DD7D1D" points="-55.855,19.585 -55.855,19.585 -45,13.237 -45,12.019 -45,-14.454 -45,-79.023 -45,-79.023 
		-66.808,-92.304 -97,-79.023 -97,-52.661 	"/>
	<linearGradient id="SVGID_7_" gradientUnits="userSpaceOnUse" x1="-55" y1="69.2656" x2="53" y2="69.2656">
		<stop  offset="0.0056" style="stop-color:#AF69F9"/>
		<stop  offset="0.3968" style="stop-color:#662D91"/>
		<stop  offset="0.53" style="stop-color:#54118E"/>
		<stop  offset="0.7242" style="stop-color:#41156A"/>
		<stop  offset="0.8964" style="stop-color:#341750"/>
		<stop  offset="1" style="stop-color:#2F1847"/>
	</linearGradient>
	<polygon fill="url(#SVGID_7_)" points="53,19.085 53,151.735 17.13,223.266 -17.777,223.266 -17.858,222.778 -18.24,222.896 
		-55,151.735 -55,19.085 -55,-84.734 53,-84.734 	"/>
	<polygon fill="#F7931E" points="53.855,19.585 53.855,19.585 43,13.237 43,12.019 43,-14.454 43,-79.023 43,-79.023 
		64.808,-92.304 95,-79.023 95,-52.661 	"/>
	<polygon fill="#311D51" points="26.034,-135.266 19.184,-121.734 -20.055,-121.734 -20.14,-121.734 -26.956,-135.264 
		-24.856,-138.734 -9.304,-138.734 7.465,-138.734 23.979,-138.734 	"/>
	<polygon fill="#F7931E" points="12.325,-181.734 60.118,-181.734 35.557,-131.734 -35.961,-131.734 -36.127,-132.841 
		-36.397,-132.959 -60.997,-181.734 -15.758,-181.734 	"/>
	<polygon fill="#FBD43B" points="13.966,-188.734 48.894,-188.734 27.914,-131.734 -27.686,-131.734 -49.771,-188.734 
		-17.4,-188.734 	"/>
	<g>
		<polygon fill="#FBB03B" points="-27.322,-199.734 -0.005,-116.115 27.334,-199.734 		"/>
		<path fill="#FBD43B" d="M-0.004-122.554l24.58-75.181h-49.141L-0.004-122.554 M-0.005-109.389l-3.801-11.634l-24.561-75.325
			l-1.712-5.387h5.515h49.141h5.516l-1.714,5.388l-24.58,75.253L-0.005-109.389L-0.005-109.389z"/>
	</g>
	<polygon fill="#402366" points="53,152.312 41.115,176.266 17.13,176.266 29.118,199.766 17.13,223.266 -17.777,223.266 
		-17.858,222.778 -17.99,222.896 -54.438,151.492 -54.43,151.433 -54.438,151.394 -42.831,127.924 -42.645,128.266 41,128.266 
		41,127.853 53,151.812 	"/>
	<linearGradient id="SVGID_8_" gradientUnits="userSpaceOnUse" x1="27.2358" y1="204.4209" x2="32.6859" y2="123.0907">
		<stop  offset="0" style="stop-color:#CCE0F4"/>
		<stop  offset="0.0641" style="stop-color:#C3DCF2"/>
		<stop  offset="0.1706" style="stop-color:#A9D2EE"/>
		<stop  offset="0.3066" style="stop-color:#80C2E7"/>
		<stop  offset="0.4649" style="stop-color:#47ACDE"/>
		<stop  offset="0.5674" style="stop-color:#1E9CD7"/>
		<stop  offset="0.8652" style="stop-color:#0075BE"/>
		<stop  offset="0.9944" style="stop-color:#005B97"/>
	</linearGradient>
	<polygon fill="url(#SVGID_8_)" points="41.115,176.266 29.118,199.742 17.13,176.266 	"/>
	<linearGradient id="SVGID_9_" gradientUnits="userSpaceOnUse" x1="-1" y1="128.2656" x2="-1" y2="152.2656">
		<stop  offset="0" style="stop-color:#000000"/>
		<stop  offset="1" style="stop-color:#808080"/>
	</linearGradient>
	<polygon opacity="0.5" fill="url(#SVGID_9_)" enable-background="new    " points="53,152.266 -55,152.266 -55,128.266 53,128.266 
			"/>
	<linearGradient id="SVGID_10_" gradientUnits="userSpaceOnUse" x1="-1.6377" y1="-49.0566" x2="-1.6377" y2="-110.2693">
		<stop  offset="0.0056" style="stop-color:#AF69F9"/>
		<stop  offset="0.3968" style="stop-color:#662D91"/>
		<stop  offset="0.53" style="stop-color:#54118E"/>
		<stop  offset="0.6367" style="stop-color:#41156A"/>
		<stop  offset="0.7314" style="stop-color:#341750"/>
		<stop  offset="0.7884" style="stop-color:#2F1847"/>
		<stop  offset="1" style="stop-color:#000000"/>
	</linearGradient>
	<polygon fill="url(#SVGID_10_)" points="52,-108.438 40.277,-84.734 16.291,-84.734 28.28,-61.234 16.291,-37.734 -18.616,-37.734 
		-18.696,-38.097 -18.828,-37.918 -55.276,-109.291 -55.268,-109.333 -55.276,-109.1 -43.483,-131.734 40.5,-131.734 52,-108.938 	
		"/>
	<linearGradient id="SVGID_11_" gradientUnits="userSpaceOnUse" x1="-1.6387" y1="-81.2344" x2="-62.7066" y2="-81.2344">
		<stop  offset="0.0056" style="stop-color:#AF69F9"/>
		<stop  offset="0.3968" style="stop-color:#662D91"/>
		<stop  offset="0.53" style="stop-color:#54118E"/>
		<stop  offset="0.7242" style="stop-color:#41156A"/>
		<stop  offset="0.8964" style="stop-color:#341750"/>
		<stop  offset="1" style="stop-color:#2F1847"/>
	</linearGradient>
	<polygon opacity="0.4" fill="url(#SVGID_11_)" enable-background="new    " points="52,-104.45 40.277,-81.734 16.291,-81.734 
		28.28,-58.734 16.291,-35.734 -18.616,-35.734 -18.696,-36.138 -18.828,-35.99 -55.276,-105.031 -55.268,-105.079 -55.276,-104.85 
		-43.483,-126.734 40.5,-126.734 52,-104.704 52,-104.222 	"/>
	<g>
		<defs>
			<filter id="Adobe_OpacityMaskFilter_1_" filterUnits="userSpaceOnUse" x="-66.338" y="93.887" width="131.763" height="154.848">
				<feColorMatrix  type="matrix" values="1 0 0 0 0  0 1 0 0 0  0 0 1 0 0  0 0 0 1 0"/>
			</filter>
		</defs>
		<mask maskUnits="userSpaceOnUse" x="-66.338" y="93.887" width="131.763" height="154.848" id="SVGID_5_">
			<g filter="url(#Adobe_OpacityMaskFilter_1_)">
				
					<image overflow="visible" enable-background="new    " width="137" height="159" xlink:href="ACB9D7ED4F61B6C6.jpg"  transform="matrix(1 0 0 -1 -69 -91.7344)">
				</image>
			</g>
		</mask>
		<g mask="url(#SVGID_5_)">
			<linearGradient id="SVGID_12_" gradientUnits="userSpaceOnUse" x1="-60.9971" y1="-180.1553" x2="60.1182" y2="-180.1553">
				<stop  offset="0" style="stop-color:#FBB03B"/>
				<stop  offset="0.2023" style="stop-color:#FAA732"/>
				<stop  offset="0.47" style="stop-color:#F7931E"/>
				<stop  offset="0.6033" style="stop-color:#FBD43B"/>
				<stop  offset="0.9944" style="stop-color:#FBD43B"/>
			</linearGradient>
			<polygon fill="url(#SVGID_12_)" points="46.317,-217.734 60.118,-217.734 35.557,-132.734 27.914,-132.734 3.266,-132.734 
				-0.004,-115.576 -3.271,-132.734 -27.686,-132.734 -35.961,-132.734 -36.127,-134.021 -36.397,-134.133 -60.997,-217.734 
				-47.059,-217.734 -49.771,-229.734 -21.892,-229.734 -24.564,-244.734 24.576,-244.734 21.901,-229.734 48.894,-229.734 			"/>
			<linearGradient id="SVGID_13_" gradientUnits="userSpaceOnUse" x1="-66.3379" y1="-171.3105" x2="65.4248" y2="-171.3105">
				<stop  offset="0" style="stop-color:#FBB03B"/>
				<stop  offset="0.2023" style="stop-color:#FAA732"/>
				<stop  offset="0.47" style="stop-color:#F7931E"/>
				<stop  offset="0.6033" style="stop-color:#FBD43B"/>
				<stop  offset="0.9944" style="stop-color:#FBD43B"/>
			</linearGradient>
			<path fill="url(#SVGID_13_)" d="M-0.004-115.576l3.27-17.158h24.648h7.643l24.562-85H46.317l2.576-12H21.901l2.675-15h-49.141
				l2.673,15h-27.879l2.712,12h-13.938l24.6,83.679l0.271,0.155l0.166,1.166h8.275H-3.27L-0.004-115.576 M-0.006-93.887
				l-3.927-20.786l-2.648-14.062h-21.104h-8.275h-3.566l-0.408-3.387l-0.062-0.465l-0.083-0.095l-0.155-0.512l-24.6-83.669
				l-1.504-4.873h5.341h8.935l-1.61-7.123l-1.102-4.877h5.004h23.045l-1.769-9.771l-0.904-5.229h4.833h49.141h4.834l-0.905,5.229
				l-1.77,9.771h22.158h4.949l-1.038,4.834l-1.537,7.166h8.852h5.306l-1.46,4.859l-24.562,85.519l-0.831,2.622h-3.016h-7.643H6.575
				l-2.65,14.062L-0.006-93.887L-0.006-93.887z"/>
		</g>
	</g>
	<g display="none">
		<defs>
			<filter id="Adobe_OpacityMaskFilter_2_" filterUnits="userSpaceOnUse" x="-107.05" y="-248.735" width="215.1" height="237.109">
				<feColorMatrix  type="matrix" values="1 0 0 0 0  0 1 0 0 0  0 0 1 0 0  0 0 0 1 0"/>
			</filter>
		</defs>
		<mask maskUnits="userSpaceOnUse" x="-107.05" y="-248.735" width="215.1" height="237.109" id="SVGID_4_" display="inline">
			<g filter="url(#Adobe_OpacityMaskFilter_2_)">
				
					<image overflow="visible" enable-background="new    " width="221" height="242" xlink:href="ACB9D7ED4F61B6C4.jpg"  transform="matrix(1 0 0 -1 -110 251.2656)">
				</image>
			</g>
		</mask>
		<g display="inline" mask="url(#SVGID_4_)">
			
				<linearGradient id="SVGID_14_" gradientUnits="userSpaceOnUse" x1="-107.0498" y1="-8311.4902" x2="108.0498" y2="-8311.4902" gradientTransform="matrix(1 0 0 1.827 0 15315.2734)">
				<stop  offset="0" style="stop-color:#CCE0F4"/>
				<stop  offset="0.0346" style="stop-color:#C3DCF2"/>
				<stop  offset="0.0922" style="stop-color:#A9D2EE"/>
				<stop  offset="0.1656" style="stop-color:#80C2E7"/>
				<stop  offset="0.2511" style="stop-color:#47ACDE"/>
				<stop  offset="0.3065" style="stop-color:#1E9CD7"/>
				<stop  offset="0.4068" style="stop-color:#A4D0ED"/>
				<stop  offset="0.4169" style="stop-color:#97CBEB"/>
				<stop  offset="0.4354" style="stop-color:#76BEE5"/>
				<stop  offset="0.4566" style="stop-color:#49ADDE"/>
				<stop  offset="0.472" style="stop-color:#5BB4E1"/>
				<stop  offset="0.5025" style="stop-color:#88C6E9"/>
				<stop  offset="0.532" style="stop-color:#BAD9F1"/>
				<stop  offset="0.5523" style="stop-color:#C5DFF3"/>
				<stop  offset="0.5878" style="stop-color:#E3EFF9"/>
				<stop  offset="0.6163" style="stop-color:#FFFFFF"/>
				<stop  offset="0.6494" style="stop-color:#BFDCEF"/>
				<stop  offset="0.7256" style="stop-color:#2086C6"/>
				<stop  offset="0.7403" style="stop-color:#0075BE"/>
				<stop  offset="0.8131" style="stop-color:#AAD3EE"/>
				<stop  offset="0.8867" style="stop-color:#B5D7F0"/>
				<stop  offset="0.899" style="stop-color:#AACFEA"/>
				<stop  offset="0.9208" style="stop-color:#8BBADB"/>
				<stop  offset="0.9498" style="stop-color:#5998C3"/>
				<stop  offset="0.9843" style="stop-color:#156AA1"/>
				<stop  offset="0.9944" style="stop-color:#005B97"/>
			</linearGradient>
			<path opacity="0.3" fill="url(#SVGID_14_)" enable-background="new    " d="M37.448,102.208
				c15.29,49.285,42.08,19.143,45.263-21.982c6.896,21.982,18.479-25.347,25.339-40.626
				C101.275,152.827,47.375,248.735-0.561,248.735c-47.938,0-96.532-67.936-106.489-237.109
				c6.013,13.394,16.321,95.833,25.339,79.925c4.773,37.299,19.094,35.967,28.111,6.661c-0.144,38.388,16.249,47.957,20.097,15.983
				C-25.018,179.47,9.726,198.116,37.448,102.208z"/>
		</g>
	</g>
	<polygon display="none" fill="none" points="-109,248.266 109,248.266 109,-248.734 -109,-248.734 	"/>
</symbol>
<symbol  id="roket" viewBox="-148 -269.047 296 538.095">
	<g opacity="0.6">
		<defs>
			
				<filter id="Adobe_OpacityMaskFilter_3_" filterUnits="userSpaceOnUse" x="-147.387" y="-233.048" width="294.774" height="236.38">
				<feColorMatrix  type="matrix" values="1 0 0 0 0  0 1 0 0 0  0 0 1 0 0  0 0 0 1 0"/>
			</filter>
		</defs>
		<mask maskUnits="userSpaceOnUse" x="-147.387" y="-233.048" width="294.774" height="236.38" id="SVGID_2_">
			<g filter="url(#Adobe_OpacityMaskFilter_3_)">
				
					<image overflow="visible" enable-background="new    " width="300" height="242" xlink:href="ACB9D7ED4F61B6CC.jpg"  transform="matrix(1 0 0 -1 -150 235.9531)">
				</image>
			</g>
		</mask>
		<g mask="url(#SVGID_2_)">
			
				<radialGradient id="SVGID_15_" cx="5.8149" cy="-8287.8955" r="183.0822" fx="-0.3671" fy="-8294.8496" gradientTransform="matrix(1 0 0 1.827 0 15315.2734)" gradientUnits="userSpaceOnUse">
				<stop  offset="0" style="stop-color:#FBD43B;stop-opacity:0"/>
				<stop  offset="0.4498" style="stop-color:#FFFFFF;stop-opacity:0.8"/>
				<stop  offset="1" style="stop-color:#FFFFFF"/>
			</radialGradient>
			<path fill="url(#SVGID_15_)" d="M50.634,86.972c20.954,49.136,57.667,19.084,62.028-21.915
				c9.449,21.915,25.324-25.269,34.725-40.5c-9.284,112.878-83.149,208.491-148.84,208.491c-65.693,0-132.288-67.727-145.934-236.38
				c8.24,13.353,22.367,95.537,34.725,79.679c6.541,37.186,26.166,35.855,38.523,6.642c-0.196,38.27,22.268,47.809,27.541,15.936
				C-34.969,163.994,12.643,182.585,50.634,86.972z"/>
		</g>
	</g>
	<polygon fill="#B3B3B3" points="49.146,-125.047 16.583,-125.047 0,-110.047 -16.922,-125.047 -49.146,-125.047 -62.701,-133.352 
		-85,-123.588 -85,-103.143 -57.782,-56.77 -54,-48.812 -54,132.698 -68.305,161.943 -22.92,250.953 23.982,250.953 68.967,162.312 
		54,132.729 54,-47.811 58.109,-56.578 85,-103.143 85,-123.588 62.701,-133.352 	"/>
	<polygon fill="#402366" points="64.549,162.953 50.135,190.953 21.527,190.953 35.826,218.953 21.527,246.953 -20.107,246.953 
		-20.203,246.639 -20.36,246.911 -63.832,161.813 -63.822,161.776 -63.832,161.746 -49.988,133.651 -49.767,133.953 50,133.953 
		50,133.686 64.481,162.311 64.503,162.953 	"/>
	<linearGradient id="SVGID_16_" gradientUnits="userSpaceOnUse" x1="33.5811" y1="224.5332" x2="40.0809" y2="127.5347">
		<stop  offset="0" style="stop-color:#CCE0F4"/>
		<stop  offset="0.0641" style="stop-color:#C3DCF2"/>
		<stop  offset="0.1706" style="stop-color:#A9D2EE"/>
		<stop  offset="0.3066" style="stop-color:#80C2E7"/>
		<stop  offset="0.4649" style="stop-color:#47ACDE"/>
		<stop  offset="0.5674" style="stop-color:#1E9CD7"/>
		<stop  offset="0.8652" style="stop-color:#0075BE"/>
		<stop  offset="0.9944" style="stop-color:#005B97"/>
	</linearGradient>
	<polygon fill="url(#SVGID_16_)" points="50.135,190.953 35.826,218.953 21.527,190.953 	"/>
	<line fill="none" x1="10" y1="-121.047" x2="-10" y2="-121.047"/>
	<polygon fill="#C9721B" points="48.469,-48.172 48.469,-48.172 42,-51.957 42,-52.685 42,-68.472 42,-106.978 42,-106.978 
		55,-114.897 73,-106.978 73,-91.256 	"/>
	<polygon fill="#F7931E" points="56.469,-62.172 56.469,-62.172 50,-65.957 50,-66.685 50,-82.472 50,-120.978 50,-120.978 
		63,-128.897 81,-120.978 81,-105.256 	"/>
	<polygon fill="#C9721B" points="-48.469,-48.172 -48.469,-48.172 -42,-51.957 -42,-52.685 -42,-68.472 -42,-106.978 -42,-106.978 
		-55,-114.897 -73,-106.978 -73,-91.256 	"/>
	<polygon fill="#F7931E" points="-56.469,-62.172 -56.469,-62.172 -50,-65.957 -50,-66.685 -50,-82.472 -50,-120.978 -50,-120.978 
		-63,-128.897 -81,-120.978 -81,-105.256 	"/>
	<polygon fill="#5A2E89" points="50,133.953 -50,133.953 -50,-121.047 50,-121.047 	"/>
	<polygon fill="#311D51" points="32.147,-121.048 23.977,-105.047 -22.823,-105.047 -22.925,-105.047 -31.055,-121.047 
		-28.55,-125.047 -10,-125.047 10,-125.047 29.697,-125.047 	"/>
	<polygon fill="#F7931E" points="8.003,-132.047 36,-132.047 21.527,-104.047 -20.107,-104.047 -20.203,-104.361 -20.36,-104.041 
		-35,-132.047 -8.345,-132.047 	"/>
	<linearGradient id="SVGID_17_" gradientUnits="userSpaceOnUse" x1="0.5" y1="-250.4111" x2="0.5" y2="-151.67">
		<stop  offset="0" style="stop-color:#FBD43B;stop-opacity:0"/>
		<stop  offset="0.3907" style="stop-color:#FBD43B"/>
		<stop  offset="0.7031" style="stop-color:#FBD43B;stop-opacity:0"/>
		<stop  offset="1" style="stop-color:#FBD43B"/>
	</linearGradient>
	<polygon display="none" fill="url(#SVGID_17_)" points="36,-269.047 -35,-269.047 -35,-132.047 36,-132.047 	"/>
	<polygon fill="#FBD43B" points="36,-131.88 17.078,-109.047 -15.29,-109.047 -35,-132.047 -35,-145.047 36,-145.047 	"/>
	<g display="none">
		<polygon display="inline" fill="#FBB03B" points="-16.74,-149.047 0.826,-114.65 18.403,-149.047 		"/>
		<path display="inline" fill="#FBD43B" d="M0.826-119.047l14.309-28h-28.607L0.826-119.047 M0.825-109.849l-3.562-6.974
			l-14.299-28.202l-2.971-6.022h6.534h28.607h6.536l-2.974,6.023L4.388-116.923L0.825-109.849L0.825-109.849z"/>
	</g>
	<g>
		<defs>
			
				<filter id="Adobe_OpacityMaskFilter_4_" filterUnits="userSpaceOnUse" x="-147.387" y="-269.048" width="294.774" height="236.38">
				<feColorMatrix  type="matrix" values="1 0 0 0 0  0 1 0 0 0  0 0 1 0 0  0 0 0 1 0"/>
			</filter>
		</defs>
		<mask maskUnits="userSpaceOnUse" x="-147.387" y="-269.048" width="294.774" height="236.38" id="SVGID_1_">
			<g filter="url(#Adobe_OpacityMaskFilter_4_)">
				
					<image overflow="visible" enable-background="new    " width="300" height="242" xlink:href="ACB9D7ED4F61B6CD.jpg"  transform="matrix(1 0 0 -1 -150 271.9531)">
				</image>
			</g>
		</mask>
		<g mask="url(#SVGID_1_)">
			
				<radialGradient id="SVGID_18_" cx="5.8149" cy="-8268.1904" r="183.0822" fx="-0.3671" fy="-8275.1445" gradientTransform="matrix(1 0 0 1.827 0 15315.2734)" gradientUnits="userSpaceOnUse">
				<stop  offset="0" style="stop-color:#FFFFFF;stop-opacity:0"/>
				<stop  offset="0.4498" style="stop-color:#FFFFFF;stop-opacity:0.8"/>
				<stop  offset="1" style="stop-color:#FFFFFF"/>
			</radialGradient>
			<path fill="url(#SVGID_18_)" d="M50.634,122.972c20.954,49.136,57.667,19.084,62.028-21.915
				c9.449,21.915,25.324-25.269,34.725-40.5c-9.284,112.879-83.148,208.491-148.84,208.491c-65.693,0-132.288-67.727-145.934-236.38
				c8.24,13.353,22.367,95.537,34.725,79.679c6.541,37.186,26.166,35.855,38.523,6.642c-0.196,38.27,22.268,47.809,27.541,15.936
				C-34.969,199.994,12.643,218.585,50.634,122.972z"/>
		</g>
	</g>
	<polygon fill="#391F5B" points="50,133.953 -50,133.953 -50,128.953 50,128.953 	"/>
	<polygon display="none" fill="none" points="-148,268.953 148,268.953 148,-269.047 -148,-269.047 	"/>
</symbol>
<g id="Layer_1_1_" display="none">
	
		<use xlink:href="#roket"  width="296" height="538.095" id="XMLID_4_" x="-148" y="-269.047" transform="matrix(1.405 0 0 -1.405 511.999 389.9883)" display="inline" overflow="visible"/>
</g>
<g id="Layer_2">
	
		<use xlink:href="#New_Symbol"  width="218" height="497.47" id="XMLID_1_" x="-109" y="-248.734" transform="matrix(1.5016 0 0 -1.5016 515.542 373.4971)" overflow="visible"/>
</g>
</svg>
