<?xml version="1.0" encoding="utf-8"?>
<!-- Generator: Adobe Illustrator 16.0.0, SVG Export Plug-In . SVG Version: 6.00 Build 0)  -->
<!DOCTYPE svg PUBLIC "-//W3C//DTD SVG 1.1//EN" "http://www.w3.org/Graphics/SVG/1.1/DTD/svg11.dtd">
<svg version="1.1"
	 id="svg2" xmlns:dc="http://purl.org/dc/elements/1.1/" xmlns:cc="http://creativecommons.org/ns#" xmlns:sodipodi="http://sodipodi.sourceforge.net/DTD/sodipodi-0.dtd" xmlns:svg="http://www.w3.org/2000/svg" xmlns:inkscape="http://www.inkscape.org/namespaces/inkscape" xmlns:rdf="http://www.w3.org/1999/02/22-rdf-syntax-ns#" inkscape:version="0.46+devel r21627" inkscape:output_extension="org.inkscape.output.svg.inkscape" sodipodi:docname="Documento nuevo 1"
	 xmlns="http://www.w3.org/2000/svg" xmlns:xlink="http://www.w3.org/1999/xlink" x="0px" y="0px" width="431.727px"
	 height="626.254px" viewBox="0 0 431.727 626.254" enable-background="new 0 0 431.727 626.254" xml:space="preserve">
<defs>
	
	
		<inkscape:perspective  sodipodi:type="inkscape:persp3d" inkscape:vp_x="0 : 526.18109 : 1" id="perspective10" inkscape:vp_y="0 : 1000 : 0" inkscape:vp_z="744.09448 : 526.18109 : 1" inkscape:persp3d-origin="372.04724 : 350.78739 : 1">
		</inkscape:perspective>
	
		<inkscape:perspective  sodipodi:type="inkscape:persp3d" inkscape:vp_x="0 : 0.5 : 1" id="perspective2824" inkscape:vp_y="0 : 1000 : 0" inkscape:vp_z="1 : 0.5 : 1" inkscape:persp3d-origin="0.5 : 0.33333333 : 1">
		</inkscape:perspective>
</defs>
<sodipodi:namedview  inkscape:zoom="0.7" inkscape:cy="373.82274" borderopacity="1.0" id="base" showgrid="false" bordercolor="#666666" pagecolor="#ffffff" inkscape:cx="197.98535" inkscape:window-maximized="1" inkscape:window-y="-4" inkscape:window-x="-4" inkscape:window-height="660" inkscape:window-width="1280" inkscape:current-layer="layer1" inkscape:document-units="px" inkscape:pageshadow="2" inkscape:pageopacity="0.0">
	</sodipodi:namedview>
<g id="layer1" transform="translate(-156.01726,-149.49232)" inkscape:label="Capa 1" inkscape:groupmode="layer">
	<path id="path2830" d="M280.2,775.09c-11.213-8.643-18.266-35.961-1.998-13.223C281.581,765.026,294.031,777.26,280.2,775.09z
		 M304.5,772.292c-21.048-11.33-31.613-35.561-40.406-56.541c-8.248-26.947-6.63-54.678-13.915-81.934
		c-5.863-8.932-1.317-47.609,7.474-36.881c-6.739,33.695,6.98,66.838,9.626,100.264c7.307,23.504,15.775,47.564,33.789,65.311
		C305.8,766.196,316.252,782.848,304.5,772.292z M349.454,771.03C345.589,759.733,356.578,770.448,349.454,771.03z M310.75,759.184
		c-19.302-19.797-28.944-47.514-36.343-73.471c-5.456-26.506-11.913-52.928-9.825-80.121c1.021-22.711,7.203-52.1,24.059-66.081
		c-6.611,22.778-21.633,50.036-18.35,77.173c1.227,24.598,4.855,47.682,12.61,71.381c7.413,24.139,16.969,47.99,32.298,68.291
		C336.349,762.589,317.079,775.743,310.75,759.184L310.75,759.184z M341,766.292C320.529,754.583,362.22,762.118,341,766.292z
		 M360.232,762.292c-26.175-13.812-33.892-45.314-45.96-69.125c9.232-24.764,26.027,30.047,29.233,42.031
		c3.317,14.215,25.476,24.336,29.141,29.135C368.506,764.913,363.752,764.926,360.232,762.292L360.232,762.292z M391.543,759.36
		C392.191,753.823,396.844,762.69,391.543,759.36z M324.25,753.678c-16.612-19.25-23.083-44.176-31.087-67.246
		c-3.857-23.643,13.64-6.836,10.542,6.869c2.907,21.785,28.107,43.127,23.136,62.254C325.977,754.93,325.113,754.305,324.25,753.678
		z M379.233,754.292c-12.657-3.326-41.375-29.211-27.456-33.199C354.843,734.602,382.61,743.094,379.233,754.292z M406.5,754.292
		c-23.814-7.252-38.139-29.932-56.912-44.5c18.577-1.059,36.167,27.811,55.741,37.377C408.27,749.256,415.527,760.661,406.5,754.292
		L406.5,754.292z M259.134,746.268C248.257,714.014,284.296,756.952,259.134,746.268z M418.768,743.292
		c-12.057-2.99-44.609-25.424-29.829-28.918c12.204,8.336,32.397,23.902,37.499,30.725
		C423.84,745.751,420.606,745.532,418.768,743.292L418.768,743.292z M244.543,743.36
		C246.039,737.426,250.256,747.813,244.543,743.36z M237.75,736.448c-13.327-20.004-16.448-44.986-13.257-67.934
		c-1.93-22.182,9.485-42.24,9.176-64.443c7.892-23.047,8.077-48.686,21.064-70.133c7.372-13.193,18.488-28.543,34.204-26.582
		c-2.744-17.09,14.434-1.869,21.456-17.991c25.017-15.337,54.042-21.501,82.546-26.705c40.646,9.599,70.543,40.715,94.074,73.443
		c19.072,19.696,29.131,46.358,49.131,65.216c8.188,11.234,0.592,28.867-7.145,8.473c-13.936-19.896-34.186-36.334-43.402-58.662
		c-14.17-23.321-31.195-42.846-50.961-61.264c-22.83-15.723-52.953-25.131-79.637-12.575c-32.779,8.351-61.707,29.062-78.315,58.725
		c-15.781,7.011,20.384-36.538-5.048-14.915c-17.829,18.168-19.527,45.521-27.522,68.527c-2.831,27.029-11.982,50.592-12.896,77.121
		c-1.119,24.633,5.357,49.58,13.438,71.943l-2.134,0.238L237.75,736.448L237.75,736.448L237.75,736.448z M441.807,739.352
		c-23.354-11.783-43.283-29.398-60.807-48.139c-11.41-13.328,8.588-32.4,11.471-9.725c11.525,26.994,42.579,34.947,57.374,57.809
		l-2.201,0.809L441.807,739.352L441.807,739.352L441.807,739.352z M465.713,732.671
		C460.565,715.579,483.649,734.788,465.713,732.671z M256.667,724.624C254.456,718.227,262.993,726.762,256.667,724.624z
		 M443.5,717.756c-21.152-12.512-38.689-30.01-48.562-52.58c-14.36-26.752-23.217-58.533-22.51-89.635
		c10.764-7.977,7.367,26.84,13.385,33.82c2.28,25.691,15.018,40.969,23.471,65.068c13.795,15.436,35.547,34.949,52.947,48.66
		C456.694,730.118,447.467,723.188,443.5,717.756z M246.75,718.43c-9.393-23.764-4.105-50.047-5.774-74.895
		c11.073-4.025,1.716,33.045,9.059,44.855C247.571,695.325,266.094,731.458,246.75,718.43L246.75,718.43z M477,719.424
		c-20.74-13.43-39.99-27.463-53.271-46.203c-12.646-22.846-26.584-46.711-31.273-72.697c19.868-4.188,11.012,39.781,30.682,45.342
		c5.797,27.486,32.381,53.266,58.547,65.951C491.346,717.391,487.442,725.014,477,719.424z M376.018,712.323
		c-17.85-8.041-37.017-45.43-21.654-56.498c11.5,15.795,7.083,39.703,27.314,50.879
		C381.601,708.323,377.865,717.157,376.018,712.323z M210.639,709.596c-7.382-21.67,3.502-44.791,1.077-66.654
		c-0.945-27.082,9.393-53.459,17.605-79.912c7.561-18.418-3.604-19.057-8.055-2.07c-6.752,21.064-14.405,41.469-17.648,63.891
		c-12.07,15.146,15.239,37.172-7.833,49.156c-24.533-24.27,9.748-57.191,11.272-85.551c4.969-22.998,12.333-47.037,33.406-60.213
		c8.801-9.921,29.333-36.635,35.566-30.662c-19.558,21.043-41.804,41.279-42.923,72.123c-6.456,27.867-15.7,54.568-15.783,84.617
		C215.9,672.815,216.781,691.919,210.639,709.596L210.639,709.596z M198.812,660.985
		C205.222,641.762,178.456,669.686,198.812,660.985z M341.75,701.27c-14.669-19.17-16.19-43.02-15.21-65.91
		c-2.831-12.73,1.523-55.982,4.964-21.479c1.837,25.043,2.687,53.609,15.707,74.504C351.393,692.516,350.084,716.016,341.75,701.27
		L341.75,701.27z M488.457,705.223c7.135-22.096-27.982-35.805-34.551-56.955c-12.623-20.422-25.424-39.709-31.441-63.018
		c-11.045-18.205-29.007-54.002-54.509-37.084c-25.856,16.193-19.029,50.385-17.896,76.072c5.967,10.189,4.358,36.836-7.429,17.807
		c-0.496-24.27-4.226-49.143,1.058-73.158c6.262-19.484,29.935-40.934,51.33-31.486c24.953,19.876,36.281,50.676,49.678,78.65
		c13.242,24.088,27.15,47.453,46.236,67.578C500.697,688.69,503.192,708.344,488.457,705.223L488.457,705.223z M476.5,700.292
		c-36.037-23.635-51.996-66.295-68.621-104.102c-2.85-20.312-30.566-54.011-42.651-21.455c-6.662,26.785,8.22,51.643,7.96,76.945
		c-13.385,4.705-9.308-32.758-15.447-43.812c-4.604-22.145,4.903-67.216,35.26-50.518c22.398,18.607,23.638,49.777,39.579,72.793
		c12.697,26.965,31.154,51.492,53.572,70.875C484.367,704.042,478.951,700.153,476.5,700.292z M504.996,682.475
		c-15.254-20.434-36.295-36.441-45.975-60.787c-16.96-25.654-24.822-57.119-46.021-79.796
		c-17.297-11.589-42.395-37.153-62.568-17.015c-17.419,7.307-33.86,41.061-42.562,41.312c5.696-25.433,28.999-45.179,52.089-55.04
		c24.038-5.516,41.562,15.789,60.685,26.18c33.445,37.164,41.645,91.547,79.43,125.74
		C502.569,667.79,526.088,697.155,504.996,682.475L504.996,682.475z M198,684.708C201,680.327,200.553,690.432,198,684.708z
		 M194.5,682.292C193.85,673.647,200.539,687.01,194.5,682.292z M310.607,681.71c-11.366-23.824-16.732-49.643-15.598-76.398
		c-7.079-13.6,19.431-47.367,9.954-17.416c-4.951,20.945-4.551,44.508-0.449,65.213c22.221,7.947-8.331-45.039,12.248-37.812
		c0.043,18.064,2.742,42.365,0.946,57.188C323.983,677.885,315.606,681.833,310.607,681.71L310.607,681.71z M285.687,668.487
		c-4.938-27.713-10.61-56.34-4.448-84.826c8.875-30.91,28.974-59.375,55.467-77.417c21.178-10.712,47.558-21.698,69.485-6.097
		c13.118,6.641,37.864,29.932,28.744,40.258c-11.646-14.132-30.688-24.275-44.466-30.726c9.551-0.456,27.535,4.623,8.366-5.513
		c-18.301-8.431-39.832-2.706-56.464,7.657c-18.787,8.649-31.382,27.621-41.774,45.094c-17.325,20.683-14.778,52.97-11.385,79.159
		C286.483,643.239,303.006,680.188,285.687,668.487L285.687,668.487z M370.75,668.307c-7.569-22.105,27.097,1.752,2.498,2.047
		C372.415,669.672,371.583,668.989,370.75,668.307z M511.666,662.624c-16.24-21.709-32.117-43.838-46.455-66.408
		c-5.791-13.453-28.416-44.474-19.135-50.66c16.248,17.889,24.904,41.336,37.834,62.734c10.336,19.605,27.072,35.197,38.57,53.801
		C519.836,664.794,514.963,662.577,511.666,662.624L511.666,662.624z M527.51,655.307
		C526.254,646.635,533.803,657.608,527.51,655.307z M175.713,647.671c-6.141-17.871,22.186-51.311,9.925-57.031
		c-3.823,12.709-20.008,30.021-10.656,5.434c17.537-14.119,23.495-38.101,37.368-53.049c-9.115,30.09-20.297,59.842-27.578,90.602
		C182.86,638.827,180.895,644.786,175.713,647.671z M523.713,643.671c-10.148-21.508-30.506-36.723-39.07-58.105
		c-20.623-17.374-23.314-46.234-43.236-64.289c-17.296-18.486-37.682-39.787-65.56-36.645
		c-26.268,4.623-55.598,17.396-69.861,40.659c-9.204,15.565-20.249,5.249-6.025-5.464c19.972-26.396,53.864-38.447,85.834-41.461
		c30.261,4.504,54.736,24.357,72.219,48.496c15.793,19.895,24.816,44.145,41.771,63.322
		C501.932,606.497,540.07,630.473,523.713,643.671L523.713,643.671z M171.554,620.378
		C169.902,613.755,177.046,621.977,171.554,620.378z M312.685,602.364c-2.208-8.811,5.851-47.369,6.937-19.152
		C318.7,587.012,319.138,606.913,312.685,602.364z M543.75,593.237c-25.848-33.867-52.648-67.045-80.088-99.568
		c-20.126-17.481-42.727-36.588-70.897-36.934c-23.218-8.452-48.021-6.861-70.461,2.396c-24.206,9.218-46.629,21.821-65.577,39.714
		c-14.546,8.416-30.77,42.369-40.669,35.466c22.92-30.478,52.054-57.202,86.442-74.02c40.284-15.932,86.533-19.21,127-2
		c20.459,8.815,36.162,26.479,51.84,41.532c19.484,19.232,33.221,42.625,50.93,62.865
		C532.539,572.251,568.469,597.737,543.75,593.237L543.75,593.237z M390.25,590.883c-9.326-12.74-2.078-26.062,3.869-6.863
		C396.381,586.485,395.336,597.573,390.25,590.883z M167.461,585.227c25.919-31.021,36.676-74.525,72.35-97.146
		c3.863,12.847-33.537,33.381-38.909,54.246C192.151,557.758,188.167,581.657,167.461,585.227z M252.667,585.624
		C248.889,567.578,271.938,588.993,252.667,585.624z M330.349,581.057c-8.576-11.113,14.862-51.865,14.656-31.342
		C338.833,559.536,337.835,572.028,330.349,581.057z M256.667,573.624c0.617-12.693,18.819-47.02,10.342-15.774
		C265.158,563.09,264.863,574.649,256.667,573.624z M548.688,567.486c-28.111-39.163-58.51-78.419-98.045-106.648
		c-33.068-20.568-74.512-27.63-112.062-17.086c-13.74,3.032-29.079-1.258-7.779-4.908c23.069-1.828,45.592-9.498,68.803-5.362
		c38.369,6.859,74.984,27.854,98.84,58.976c20.293,22.611,41.572,44.809,58.062,70.365
		C561.678,570.288,552.444,570.198,548.688,567.486L548.688,567.486z M169.25,566.192c0.127-25.295,22.15-44.432,34.862-64.655
		c23.488-30.269,53.731-55.674,88.392-72.038c16.601,1.477-21.8,19.719-31.02,25.596c-19.935,12.572-32.546,33.394-51.429,47.211
		c-10.867,19.544-26.551,36.427-33.885,57.708C175.502,562.85,172.888,567.089,169.25,566.192z M320.25,563.831
		C314.92,549.124,331.855,572.11,320.25,563.831z M558.713,546.671c-25.514-34.762-55.389-67.051-89.539-93.43
		c-22.194-10.727-43.658-26.279-69.346-26.961c-16.355-10.656-38.441,9.421-49.098-1.27c20.389-15.766,48.51-5.911,72.562-0.873
		c29.176,10.353,58.658,23.354,79.682,47.108c24.965,17.787,38.242,47.133,59.947,68.15
		C566.061,542.785,564.617,549.522,558.713,546.671z M163.714,538.672c-4.018-12.862,31.436-43.644,16.304-19.286
		C173.415,524.524,174.533,539.733,163.714,538.672z M349.187,536.041c6.464-12.784,43.597-12.329,15.256-1.739
		C360.806,535.548,349.466,545.268,349.187,536.041z M562.75,527.376c-8.766-17.67-32.045-40.244-36.523-51.152
		c19.129,5.674,39.338,24.896,50.436,37.572c-8.309-6.938-31.326-13.915-13.934,1.902
		C567.801,521.002,579.586,540.045,562.75,527.376L562.75,527.376z M161.664,513.344c-11.253-14.144,32.618-33.647,12.151-11.963
		C171.058,505.25,169.209,521.197,161.664,513.344z M188.25,504.585c-6.208-12.826,23.803-23.176,7.865-4.867
		C194.787,502.282,191.754,507.01,188.25,504.585z M571.5,493.291c-29.256-17.481-44.99-49.825-74.504-66.986
		c-17.461-16.395-37.537-27.112-60.445-33.975c-26.301-10.011-54.308-12.489-82.292-10.923c-22.823,0.146-46.554,4.028-68.048,8.629
		c-34.658,12.133-60.569,39.084-89.85,60.052c-21.302,4.463,13.459-21.557,21.321-25.169c19.022-19.438,44.759-30.604,68.641-42.427
		c23.806-1.612,47.085-6.125,70.754-9.044c23.196-3.552,44.704,4.466,67.301,7.342c20.533,6,41.564,11.595,58.426,26.061
		c23.354,11.866,40.916,31.542,60.955,47.867C542.449,470.522,592.006,488.715,571.5,493.291L571.5,493.291L571.5,493.291z
		 M279.642,492.6c12.468-16.757,35.435-19.168,52.695-28.961c11.009-9.889,57.528-7.056,24.052,0.014
		c-26.774,2.945-48.547,20.051-73.509,28.336L279.642,492.6L279.642,492.6L279.642,492.6z M156.017,488.104
		C162.583,470.903,167.497,493.846,156.017,488.104z M181.25,486.688c9.025-30.071,40.674-43.747,63.442-61.992
		c21.311-21.35,51.225-31.798,81.089-31.996c30.449-8.697,62.912-5.259,93.016,2.879c10.217,4.008,48.178,10.487,39.965,19.375
		c-21.376-5.411-41.455-16.019-63.569-17.922c-26.313-9.711-53.868-3.319-79.99,3.007c-41.183,3.96-72.283,33.348-103.809,56.89
		C201.19,466.319,195.833,483.303,181.25,486.688L181.25,486.688z M202,482.585c13.287-24.038,39.214-36.499,59.245-54.009
		c30.736-19.416,67.472-27.461,103.431-28.58c22.95-0.761,44.89,6.633,66.323,12.528c13.976,1.613,35.189,20.946,42.65,16.244
		c-19.547-27.849,27.533,12.852,35.068,20.425c13.062,5.301,27.473,30.384,4.703,19.283c-14.678-21.172-36.461-32.433-60.363-40.211
		c-37.492-20.73-81.964-22.364-123.708-18.82c-35.732,4.641-67.433,24.16-92.944,48.846C220.957,458.913,216.565,484.51,202,482.585
		L202,482.585z M244.667,484.624c9.678-22.435,41.105-29.567,55.389-43.425c1.046,13.136,19.76,3.616,1.527,11.134
		C279.345,457.529,264.643,478.95,244.667,484.624z M163,478.714C171.687,453.842,183.141,492.971,163,478.714z M573.5,468.291
		c-23.039-19.694-52.939-45.023-69.697-63.73c26.58-1.048,40.582,29.804,59.328,45.434
		C571.106,451.869,596.27,484.332,573.5,468.291L573.5,468.291z M159.667,468.624c-8.428-14.417,26.533-16.824,5.181-3.471
		l-2.388,1.663L159.667,468.624z M179.713,465.671C175.215,449.301,195.403,467.415,179.713,465.671z M171,451.259
		c-15.745-13.999,27.653-25.173,32.459-40.535c10.983-12.876,30.786-8.06,10.202,5.271C196.754,422.708,178.774,447.679,171,451.259
		L171,451.259z M581.088,448.791c-19.047-15.013-33.434-35.132-53.523-48.984c-13.912-20.749-37.451-26.426-57.871-37.824
		c-13.043-14.478-46.115-10.65-50.703-26.227c24.002,3.222,46.094,13.945,67.25,25.255c29.883,14.517,53.912,38.286,78.715,59.841
		C569.727,423.003,601.217,466.284,581.088,448.791L581.088,448.791z M303,438.095c7.427-11.843,47.894-11.724,38.82-8.046
		C328.604,431.448,316.717,441.005,303,438.095z M160.5,430.291C163.225,421.821,169.61,434.598,160.5,430.291z M167,424.514
		c-0.592-14.82,45.411-30.567,20.224-11.401C180.936,415.051,172.986,428.532,167,424.514z M303,426.342
		c11.342-9.324,51.253-18.637,46.508-9.377C334.509,422.182,318.607,423.898,303,426.342L303,426.342z M579.75,420.43
		c-20.328-26.55-49.381-44.999-77.875-61.683c-35.021-18.433-74.414-38.98-115.1-27.365c-24.138,5.944-50.546,1.027-73.275,12.908
		c-9.952,1.605-44.105,19.713-39.153,7.205c24.961-9.818,49.34-23.206,76.895-23.09c24.783-2,49.369-9.083,74.232-6.768
		c26.449,5.242,52.014,14.117,75.342,27.812c26.475,10.643,46.961,31.524,70.084,47.484
		C575.688,399.216,595.178,425.984,579.75,420.43L579.75,420.43z M163.688,410.645c4.853-25.444,35.005-32.966,53.959-45.753
		c30.729-18.903,63.785-33.854,97.489-46.545c22.714-5.89,47.073-9.343,70.239-5.353c-9.443,9.061-40.522,3.553-58.184,9.884
		c-43.401,12.169-83.366,34.401-122.074,56.866C192.36,391.005,173.801,400.489,163.688,410.645L163.688,410.645z M483.25,397.587
		c-14.482-21.911,33.416,18.216,2.498,2.505C484.916,399.256,484.082,398.422,483.25,397.587z M198,399.383
		c14.997-18.601,38.122-27.504,58.563-38.079c24.361,0.779-17.674,15.287-24.826,21.289C221.059,388.018,210.02,400.377,198,399.383
		z M225.54,399.355c16.191-15.381,38.588-21.501,56.626-34.315c25.105-11.181,50.82-21.587,78.774-22.09
		c22.821-7.777,44.369-0.238,66.072,7.731c10.219,2.329,47.115,17.332,18.182,11.308c-41.22-15.649-87.049-14.918-129.37-4.285
		c-27.099,10.593-51.85,25.872-77.342,39.474C234.357,398.693,229.951,399.586,225.54,399.355L225.54,399.355z M511.522,398.315
		c-17.287-11.751-37.539-15.283-57.566-18.283c-32.025-9.11-65.541-16.8-98.986-14.485c-18.896-0.854-39.938,13.198-56.823,7.938
		c22.031-9.139,46.369-13.41,69.944-15.226c35.46-2.502,69.077,10.281,103.256,17.422
		C478.981,377.59,522.672,392.626,511.522,398.315z M163.667,387.624c7.785-27.147,41.716-32.033,62.622-45.85
		c35.742-14.567,67.97-38.702,107.301-43.32c10.451-4.326,53.623-1.058,21.175,4.417c-23.147,2.183-45.921,6.512-67.01,17.13
		c-28.301,7.99-50.821,28.336-78.248,38.531C193.451,367.073,179.101,377.852,163.667,387.624L163.667,387.624z M578.235,384.216
		c-27.621-17.792-55.666-34.672-84.93-49.58c-20.377-11.249-43.779-14.759-65.038-23.614c-17.735,4.028-44.073-5.009-52.863-11.776
		c23.474-4.843,49.633,5.579,73.29,10.595c20.867,8.066,42.881,14.969,61.873,26.366c5.668,8.25,37.512,19.535,19.203,1.665
		c-36.432-21.354-75.275-40.276-117.594-46.673c-44.087-6.288-90.831-5.531-131.44,14.706c-11.047,2.488-38.544,25.683-40.34,8.915
		c18.308-9.12,41.881-17.339,64.188-23.881c40.973-13.783,86.515-16.198,127.75-2.228c39.613,8.456,76.27,26.588,108.734,50.564
		c7.859,19.904,46.227,29.508,42.922,48.815l-2.094-1.005L578.235,384.216L578.235,384.216L578.235,384.216z M579.145,357.735
		c-20.775-16.113-40.561-33.451-63.461-46.555c-29.648-21.245-66.328-26.635-100.622-36.401
		c-26.556-4.523-54.661-8.364-81.168-1.277c-24.658,4.221-48.341,14.7-73.235,19.167c-19.02,8.085-41.825,27.424-59.459,27.087
		c23.479-18.141,49.649-33.783,79.218-41.116c24.593-8.316,50.421-8.226,75.011-16.771c23.188,2.469,47.573,2.434,70.395,8.28
		c45.723,9.553,90.547,28.202,127.998,56.829c11.148,1.247,43.994,41.263,25.607,31.041L579.145,357.735L579.145,357.735z
		 M163.583,360.424c12.072-20.352,40.736-20.743,57.979-35.253c17.066-12.514,19.425,5.534,1.316,8.137
		C203.956,345.083,182.757,349.054,163.583,360.424L163.583,360.424z M175.667,337.624
		C175.045,321.58,193.572,345.307,175.667,337.624z M190.653,329.538C194.803,315.523,203.549,332.683,190.653,329.538z
		 M171.667,325.624c2.466-13.663,49.125-29.822,22.823-9.737C188.234,321.301,180.366,326.558,171.667,325.624z M572.733,324.291
		c-22.33-7.645-37.062-28.433-59.641-36.08c-39.502-20.772-84.1-28.096-128.049-32.322c-28.675-7.989-55.303,4.212-83.704,4.838
		c-24.755,6.426-48.024,17.742-72.456,25.195c-1.247-17.232,35.891-14.337,48.894-26.271c19.998-9.217,44.006-1.079,64.102-11.571
		c21.45-4.982,42.881,0.684,64.093,1.969c21.11,10.68,44.18,7.271,66.467,12.141c32.787,9.964,63.475,26.921,89.078,49.468
		c30.521,14.105-18.068-24.369-26.791-32.146c-24.332-21.661-57.311-27.183-87.595-34.936
		c-33.903,2.298-67.755-16.061-101.076-3.616c-11.069-6.457-45.963,17.621-40.801,1.42c23.995-9.394,50.546-11.921,76.126-12.447
		c25.238,1.188,48.535,12.077,74.135,10.371c35.801,0.298,68.055,18.347,93.791,41.991
		C557.92,285.146,603.731,333.515,572.733,324.291L572.733,324.291z M179.667,302.624c10.421-23.033,62.437-23.003,20.197-6.279
		C193.221,298.724,186.348,300.368,179.667,302.624z M206.017,302.085C220.089,284.858,228.706,310.844,206.017,302.085z
		 M175,290.478C182.002,274.95,187.072,296.387,175,290.478z M570.01,286.804C566.498,268.029,588.108,292.232,570.01,286.804z
		 M187.2,283.091c13.215-21.963,45.49-24.318,64.509-39.718c2.329,3.482-4.015,16.864-8.939,19.837
		C226.497,260.211,203.054,278.818,187.2,283.091L187.2,283.091z M558.713,279.67c-7.457-23.942-36.877-27.687-54.266-42.145
		c-21.369-6.276-41.592-15.08-61.577-24.789c-22.335-8.397-46.616-6.933-69.868-11.117c-22.915,2.919-45.794,4.37-68.485,10.579
		c-26.721,6.672-52.792,18.1-75.473,32.878c-16.335-13.331,30.12-21.859,41.596-29.982c25.667-8.416,51.366-17.428,78.719-18.854
		c27.764-4.373,55.278,1.543,82.519,5.422c37.802,12.732,75.31,27.511,109.276,48.629
		C550.719,251.856,584.35,282.144,558.713,279.67L558.713,279.67z M256.384,258.849c2.923-18.303,36.263-2.37,8.603-2.712
		C261.652,254.66,259.034,263.019,256.384,258.849z M199.25,256.629c-6.474-22.755,39.657-7.404,8.351-3.154
		C205.126,254.891,202.489,259.077,199.25,256.629z M264.667,244.624c12.106-15.489,39.486-21.523,57.591-23.951
		c-1.46,14.177-32.464,10.766-44.053,23.407C273.865,245.536,269.106,245.831,264.667,244.624z M544.11,237.317
		c-31.236-16.421-63.436-30.756-97.05-41.633c-23.128-9.148-49.312-8.742-73.925-10.066c-24.533,4.285-50.048-0.123-73.758,7.818
		c-13.787,2.206-50.029,26.063-51.833,10.22c23.167-4.35,42.011-21.992,66.435-22.062c26.508-2.683,53.128-3.201,79.486-5.318
		c22.688,1.738,44.029,4.797,64.463,15.006c25.541,8.589,49.57,21.349,75.566,28.622C535.809,224.239,567.178,244.73,544.11,237.317
		z M204.227,234.627c1.259-17.891,53.168-30.597,23.964-9.986C220.651,228.963,212.413,231.817,204.227,234.627z M453.175,231.639
		c-32.212-7.268-64.978-11.928-98.061-9.375c-11.787,2.252-32.075-5.168-8.995-7.203c27.188-1.273,55.113-2.487,81.969,2.478
		C432.514,216.865,471.035,232.67,453.175,231.639z M518.733,204.291c-26.088-14.256-54.982-21.633-82.605-32.083
		c-11.252-1.671-57.811-5.669-24.439-10.421C441,162.37,467.02,178.359,495.1,185.154
		C501.67,184.926,549.557,211.978,518.733,204.291z M233.862,198.205c11.806-17.929,36.319-19.835,53.964-29.594
		c23.743-3.434,49.38-16.387,71.517-11.57c-26.209,13.557-55.326,12.835-81.787,23.745
		C263.216,187.151,249.128,194.228,233.862,198.205z M353.533,174.344C359.431,157.769,373.112,181.097,353.533,174.344z
		 M384.554,163.378C382.903,156.754,390.046,164.978,384.554,163.378z M372,160.423C375.581,148.441,375.928,170.093,372,160.423z
		 M368.543,151.36C369.191,145.823,373.844,154.691,368.543,151.36z"/>
</g>
</svg>
