<?xml version="1.0" encoding="utf-8"?>
<!-- Generator: Adobe Illustrator 16.0.0, SVG Export Plug-In . SVG Version: 6.00 Build 0)  -->
<!DOCTYPE svg PUBLIC "-//W3C//DTD SVG 1.1//EN" "http://www.w3.org/Graphics/SVG/1.1/DTD/svg11.dtd">
<svg version="1.1" id="Layer_1" xmlns="http://www.w3.org/2000/svg" xmlns:xlink="http://www.w3.org/1999/xlink" x="0px" y="0px"
	 width="41.833px" height="51.5px" viewBox="234 243.5 41.833 51.5" style="enable-background:new 234 243.5 41.833 51.5;"
	 xml:space="preserve">
<style type="text/css">
<![CDATA[
	.st0{stroke:#FFFFFF;stroke-miterlimit:10;}
]]>
</style>
<path class="st0" d="M268.939,273.407c-0.008-0.173,0.125-0.319,0.297-0.328s0.318,0.124,0.326,0.298
	c0.217,4.323-0.071,8.641-0.851,12.854c0.941-1.216,1.783-2.554,2.508-3.993c-0.107-0.059-0.175-0.177-0.161-0.307
	c0.484-4.925,0.345-9.911-0.417-14.821l-0.044-0.252c-1.151-7.215-5.304-13.089-10.837-15.331c-0.159-0.065-0.236-0.247-0.173-0.407
	c0.066-0.159,0.248-0.236,0.407-0.172c5.661,2.294,9.923,8.227,11.17,15.527l0.003-0.001l0.05,0.285
	c0.758,4.748,0.939,9.566,0.541,14.34c1.558-3.504,2.446-7.539,2.446-11.835c0-13.438-8.683-24.333-19.395-24.333
	c-10.711,0-19.395,10.894-19.395,24.333c0,3.903,0.733,7.591,2.036,10.86c0.004-0.056,0.023-0.11,0.058-0.158
	c0.938-1.279,1.356-3.048,1.13-4.767l-0.034-0.189c-0.872-5.465-0.006-11.035,2.438-15.683c2.453-4.667,6.206-7.85,10.565-8.96
	c1.835-0.468,3.7-0.546,5.541-0.231c0.169,0.028,0.283,0.189,0.255,0.36c-0.028,0.169-0.191,0.284-0.361,0.254
	c-1.753-0.299-3.53-0.225-5.281,0.222c-8.597,2.19-14.202,12.774-12.581,23.674l0.047,0.266c0.309,1.937-0.146,3.965-1.216,5.424
	c-0.06,0.084-0.155,0.128-0.251,0.128c-0.064,0-0.128-0.021-0.185-0.062c-0.007-0.006-0.014-0.014-0.022-0.021
	c0.325,0.793,0.685,1.562,1.076,2.302c0.001-0.001,0.002-0.002,0.002-0.004c1.838-1.969,2.71-5.023,2.299-8.019l-0.042-0.231
	c-0.148-0.935-0.24-1.886-0.271-2.833c-0.005-0.173,0.13-0.316,0.302-0.322c0.172-0.003,0.316,0.13,0.322,0.302
	c0.027,0.828,0.101,1.662,0.221,2.481l0.048,0.271c0.52,3.256-0.409,6.618-2.423,8.777c-0.049,0.052-0.112,0.083-0.178,0.093
	c0.353,0.634,0.729,1.244,1.127,1.83c2.538-2.639,3.746-6.75,3.194-10.837l-0.005,0.001l-0.055-0.345
	c-0.875-5.485,0.723-11.092,4.17-14.629c0.12-0.123,0.318-0.125,0.441-0.006c0.124,0.12,0.126,0.317,0.006,0.441
	c-3.24,3.325-4.778,8.564-4.052,13.748l0.005-0.001l0.055,0.345c0.708,4.436-0.593,8.958-3.395,11.806
	c0.401,0.557,0.822,1.091,1.262,1.6c1.443-1.553,2.568-3.55,3.256-5.792c0.051-0.164,0.225-0.258,0.39-0.207
	c0.165,0.051,0.258,0.226,0.208,0.391c-0.724,2.352-1.911,4.448-3.438,6.077c0.457,0.498,0.931,0.971,1.424,1.413
	c3.517-4.035,5.149-10.111,4.298-16.025l-0.011,0.003l-0.052-0.328c-0.788-4.937,1.773-9.771,5.71-10.774
	c0.673-0.172,1.358-0.225,2.039-0.158c0.171,0.017,0.296,0.17,0.28,0.341c-0.017,0.172-0.17,0.297-0.341,0.281
	c-0.608-0.062-1.223-0.014-1.825,0.141c-3.546,0.903-5.874,5.233-5.295,9.744l0.008-0.002l0.052,0.326
	c0.988,6.196-0.695,12.616-4.396,16.863c0.508,0.432,1.034,0.833,1.574,1.202c3.604-4.49,5.345-10.894,4.665-17.236
	c-0.019-0.172,0.105-0.326,0.277-0.345c0.171-0.017,0.326,0.106,0.343,0.277c0.696,6.483-1.08,13.033-4.76,17.647
	c0.559,0.354,1.131,0.675,1.72,0.962c1.571-2.15,2.795-4.623,3.641-7.361c0.051-0.165,0.225-0.257,0.39-0.207
	c0.165,0.052,0.257,0.226,0.206,0.391c-0.853,2.762-2.083,5.262-3.661,7.444c0.606,0.268,1.225,0.499,1.856,0.691
	c1.873-2.856,3.268-6.226,4.049-9.793c0.874-3.993,0.986-8.092,0.335-12.185c-0.028-0.17,0.087-0.328,0.257-0.356
	c0.171-0.026,0.33,0.089,0.358,0.259c0.666,4.169,0.55,8.347-0.341,12.415c-0.784,3.573-2.171,6.953-4.033,9.838
	c0.651,0.169,1.312,0.299,1.985,0.383c3.873-6.637,5.351-15.015,4.058-23.119l-0.037-0.227c-0.159-0.697-0.531-1.276-1.036-1.608
	c-0.405-0.265-0.853-0.346-1.295-0.232c-1.03,0.263-1.722,1.485-1.639,2.81h0.001l0.052,0.323c0.515,3.233,0.502,6.495-0.041,9.694
	c-0.028,0.17-0.189,0.284-0.359,0.257c-0.17-0.029-0.284-0.19-0.256-0.361c0.513-3.024,0.543-6.108,0.089-9.167l-0.015,0.004
	l-0.052-0.325c-0.134-0.84,0-1.7,0.377-2.417c0.388-0.738,0.986-1.244,1.687-1.422c0.609-0.156,1.246-0.043,1.792,0.315
	c0.706,0.465,1.199,1.286,1.354,2.255l0.039,0.244l-0.009,0.004c1.232,8.069-0.233,16.391-4.034,23.043
	c0.43,0.035,0.862,0.055,1.299,0.055c0.268,0,0.533-0.008,0.798-0.022c2.121-4.153,3.471-8.904,3.912-13.795
	c0.016-0.172,0.169-0.3,0.338-0.284c0.173,0.017,0.3,0.168,0.284,0.34c-0.436,4.837-1.75,9.544-3.81,13.688
	c0.744-0.072,1.477-0.198,2.194-0.374c3.199-7.288,4.241-15.764,2.935-23.961l-0.035-0.219l0.001-0.001
	c-0.429-2.363-1.62-4.38-3.292-5.559c-0.141-0.099-0.173-0.294-0.074-0.435c0.1-0.141,0.293-0.175,0.434-0.075
	c1.86,1.311,3.167,3.566,3.585,6.189l0.035,0.219l-0.003,0.002c1.247,8.074,0.246,16.404-2.818,23.632
	c0.777-0.229,1.537-0.52,2.273-0.864c0.724-1.975,1.315-4.033,1.76-6.129c0.034-0.169,0.201-0.277,0.37-0.241
	c0.168,0.036,0.275,0.203,0.24,0.37c-0.405,1.909-0.931,3.786-1.564,5.602c0.807-0.431,1.587-0.928,2.333-1.485
	c2.044-7.055,2.509-14.674,1.34-22.079l-0.015-0.092c-0.329-2.064-0.99-3.967-1.962-5.653c-0.086-0.149-0.035-0.34,0.114-0.427
	c0.15-0.086,0.341-0.035,0.426,0.115c0.995,1.725,1.675,3.662,2.021,5.763l0,0l0.018,0.104c1.154,7.235,0.771,14.675-1.108,21.611
	c0.826-0.688,1.607-1.455,2.338-2.29C268.814,282.727,269.173,278.071,268.939,273.407z M265.391,251.39
	c0.114-0.128,0.311-0.141,0.44-0.027c3.966,3.518,6.681,8.749,7.651,14.738c0.011,0.022,0.02,0.049,0.024,0.075
	c0.272,1.711,0.397,3.457,0.371,5.188c-0.002,0.17-0.142,0.307-0.312,0.307c-0.001,0-0.004,0-0.005,0
	c-0.172-0.002-0.31-0.145-0.308-0.316c0.026-1.67-0.093-3.354-0.354-5.008c-0.009-0.021-0.017-0.045-0.021-0.069
	c-0.938-5.881-3.588-11.011-7.463-14.447C265.288,251.716,265.276,251.519,265.391,251.39z M238.596,260.274
	c-1.909,4.709-2.484,9.945-1.667,15.147c0.009,0.021,0.016,0.046,0.02,0.07c0.054,0.335,0.113,0.67,0.177,0.995
	c0.033,0.169-0.078,0.332-0.247,0.365c-0.02,0.004-0.04,0.007-0.06,0.007c-0.146,0-0.277-0.104-0.307-0.253
	c-0.06-0.308-0.115-0.623-0.167-0.938c-0.01-0.023-0.019-0.048-0.023-0.075c-0.852-5.338-0.266-10.716,1.695-15.554
	c0.064-0.159,0.247-0.237,0.406-0.171C238.583,259.932,238.661,260.114,238.596,260.274z M251.301,248.085
	c-4.499,1.146-8.47,4.364-11.18,9.058c-0.058,0.1-0.163,0.155-0.271,0.155c-0.053,0-0.107-0.014-0.156-0.042
	c-0.148-0.086-0.199-0.276-0.114-0.426c2.795-4.841,6.903-8.161,11.566-9.351c4.15-1.057,8.344-0.374,12.132,1.975
	c0.146,0.091,0.191,0.284,0.1,0.43c-0.09,0.146-0.282,0.191-0.429,0.101C259.311,247.728,255.282,247.071,251.301,248.085z
	 M259.798,269.668l0.037,0.229l-0.007,0.004c0.314,2.038,0.475,4.111,0.479,6.167c0,0.172-0.138,0.312-0.311,0.312
	c-0.001,0-0.001,0-0.001,0c-0.17,0-0.31-0.14-0.312-0.312c-0.004-2.101-0.175-4.221-0.507-6.299l-0.035-0.231l0.001-0.002
	c-0.304-1.571-1.116-2.888-2.249-3.634c-0.881-0.576-1.859-0.752-2.829-0.505c-1.715,0.437-3.059,2.138-3.421,4.332
	c-0.028,0.171-0.188,0.285-0.358,0.257c-0.169-0.027-0.285-0.188-0.257-0.359c0.403-2.438,1.926-4.336,3.882-4.835
	c1.129-0.286,2.309-0.078,3.325,0.59C258.568,266.26,259.505,267.822,259.798,269.668z M264.363,268.505l0.027,0.168l-0.001,0.003
	c0.71,4.555,0.77,9.164,0.179,13.708c-0.021,0.158-0.155,0.271-0.311,0.271c-0.012,0-0.025,0-0.04-0.002
	c-0.169-0.021-0.291-0.18-0.27-0.351c0.592-4.54,0.525-9.148-0.201-13.698l-0.027-0.169l0,0c-0.575-3.354-2.274-6.174-4.682-7.755
	c-1.831-1.205-3.871-1.569-5.895-1.054c-4.801,1.224-7.947,7.1-7.122,13.197l0.007-0.001l0.054,0.341
	c0.241,1.511,0.298,3.045,0.17,4.562c-0.015,0.171-0.166,0.297-0.337,0.285c-0.172-0.015-0.299-0.167-0.285-0.34
	c0.116-1.35,0.077-2.716-0.111-4.066l-0.008,0.002l-0.055-0.343c-0.503-3.152-0.003-6.367,1.406-9.05
	c1.421-2.703,3.597-4.546,6.126-5.191c2.167-0.552,4.439-0.148,6.393,1.136C261.974,261.862,263.789,264.904,264.363,268.505z
	 M249.886,257.221c0.84-0.485,1.729-0.851,2.643-1.083c3.554-0.906,7.198,0.238,9.998,3.136c0.121,0.123,0.117,0.321-0.007,0.44
	c-0.06,0.059-0.139,0.087-0.217,0.087c-0.081,0-0.164-0.031-0.225-0.095c-2.64-2.732-6.064-3.813-9.396-2.964
	c-0.858,0.219-1.694,0.561-2.483,1.019c-0.149,0.086-0.34,0.036-0.427-0.113C249.686,257.497,249.737,257.307,249.886,257.221z
	 M261.187,255.455c-2.786-1.831-5.885-2.383-8.964-1.598c-2.748,0.7-5.225,2.422-7.162,4.98c-1.902,2.513-3.157,5.647-3.626,9.065
	c-0.024,0.171-0.181,0.291-0.353,0.267c-0.17-0.022-0.29-0.181-0.266-0.35c0.484-3.525,1.78-6.761,3.748-9.358
	c2.023-2.672,4.619-4.474,7.505-5.209c3.207-0.817,6.567-0.22,9.461,1.682c3.789,2.492,6.464,6.915,7.36,12.163l0.001,0.001
	l0.042,0.245c0.121,0.761,0.229,1.535,0.318,2.3c0.02,0.173-0.103,0.327-0.273,0.347c-0.013,0.001-0.024,0.002-0.037,0.002
	c-0.154,0-0.29-0.116-0.309-0.276c-0.08-0.687-0.175-1.382-0.283-2.068l-0.034-0.207
	C267.487,262.258,264.889,257.89,261.187,255.455z"/>
</svg>
