<?xml version="1.0" encoding="utf-8"?>
<!-- Generator: Adobe Illustrator 16.0.0, SVG Export Plug-In . SVG Version: 6.00 Build 0)  -->
<!DOCTYPE svg PUBLIC "-//W3C//DTD SVG 1.1//EN" "http://www.w3.org/Graphics/SVG/1.1/DTD/svg11.dtd">
<svg version="1.1" id="Layer_1" xmlns="http://www.w3.org/2000/svg" xmlns:xlink="http://www.w3.org/1999/xlink" x="0px" y="0px"
	 width="1024px" height="768px" viewBox="0 0 1024 768" enable-background="new 0 0 1024 768" xml:space="preserve">
<g id="Layer_2">
	<g id="XMLID_1_">
		<g display="none" opacity="0.6">
			<defs>
				<filter id="Adobe_OpacityMaskFilter" filterUnits="userSpaceOnUse" x="327.576" y="34.294" width="366.229" height="293.68">
					<feColorMatrix  type="matrix" values="1 0 0 0 0  0 1 0 0 0  0 0 1 0 0  0 0 0 1 0"/>
				</filter>
			</defs>
			<mask maskUnits="userSpaceOnUse" x="327.576" y="34.294" width="366.229" height="293.68" id="SVGID_2_" display="inline">
				<g filter="url(#Adobe_OpacityMaskFilter)">
					
						<image overflow="visible" enable-background="new    " width="221" height="178" xlink:href="F5BD540721B23DA7.jpg"  transform="matrix(1.6989 0 0 1.6989 322.9663 29.6548)">
					</image>
				</g>
			</mask>
			<g display="inline" mask="url(#SVGID_2_)">
				
					<radialGradient id="SVGID_4_" cx="510.6909" cy="8829.75" r="141.4046" gradientTransform="matrix(1 0 0 1.827 0 -15950.8223)" gradientUnits="userSpaceOnUse">
					<stop  offset="0.0056" style="stop-color:#005B97"/>
					<stop  offset="0.1348" style="stop-color:#0075BE"/>
					<stop  offset="0.4326" style="stop-color:#1E9CD7"/>
					<stop  offset="0.5351" style="stop-color:#47ACDE"/>
					<stop  offset="0.6934" style="stop-color:#80C2E7"/>
					<stop  offset="0.8294" style="stop-color:#A9D2EE"/>
					<stop  offset="0.9359" style="stop-color:#C3DCF2"/>
					<stop  offset="1" style="stop-color:#CCE0F4"/>
				</radialGradient>
				<path opacity="0.6" fill="url(#SVGID_4_)" enable-background="new    " d="M573.6,215.782
					c26.031-61.046,71.645-23.71,77.064,27.227c11.74-27.227,31.463,31.392,43.142,50.319
					C682.273,153.088,590.5,34.294,508.885,34.294c-81.62,0-164.356,84.145-181.309,293.68
					c10.237-16.587,27.788-118.697,43.143-98.996c8.126-46.198,32.509-44.547,47.861-8.25c-0.245-47.548,27.666-59.4,34.218-19.798
					C467.243,120.087,526.397,96.989,573.6,215.782z"/>
			</g>
		</g>
		<linearGradient id="SVGID_5_" gradientUnits="userSpaceOnUse" x1="509.8384" y1="103.0322" x2="509.8383" y2="579.7919">
			<stop  offset="0.0056" style="stop-color:#AF69F9"/>
			<stop  offset="0.3968" style="stop-color:#662D91"/>
			<stop  offset="0.53" style="stop-color:#54118E"/>
			<stop  offset="0.6367" style="stop-color:#41156A"/>
			<stop  offset="0.7314" style="stop-color:#341750"/>
			<stop  offset="0.7884" style="stop-color:#2F1847"/>
			<stop  offset="1" style="stop-color:#000000"/>
		</linearGradient>
		<polygon fill="url(#SVGID_5_)" stroke="#F7931E" stroke-width="9" stroke-miterlimit="10" points="610.293,368.694 
			610.293,143.096 545.911,14.848 475.313,14.848 409.385,143.089 409.385,368.694 337.875,490.85 337.875,543.598 398.495,569.964 
			423.612,558.66 407.207,590.572 432.318,636.302 446.329,636.302 407.688,712.92 431.419,712.92 426.801,724.838 467.47,724.838 
			463.243,737.801 460.329,746.974 469.718,746.974 553.387,746.974 562.777,746.974 559.86,737.798 555.627,724.838 
			594.788,724.838 590.402,712.92 613.899,712.92 576.265,636.302 585.692,636.302 609.337,590.586 594.918,558.885 
			622.033,570.074 681.803,543.598 681.803,490.85 		"/>
		<g display="none">
			<defs>
				
					<filter id="Adobe_OpacityMaskFilter_1_" filterUnits="userSpaceOnUse" x="329.277" y="-20.003" width="366.231" height="403.705">
					<feColorMatrix  type="matrix" values="1 0 0 0 0  0 1 0 0 0  0 0 1 0 0  0 0 0 1 0"/>
				</filter>
			</defs>
			<mask maskUnits="userSpaceOnUse" x="329.277" y="-20.003" width="366.231" height="403.705" id="SVGID_1_" display="inline">
				<g filter="url(#Adobe_OpacityMaskFilter_1_)">
					
						<image overflow="visible" enable-background="new    " width="221" height="243" xlink:href="F5BD540721B23DA5.jpg"  transform="matrix(1.6988 0 0 1.6988 324.6772 -24.6973)">
					</image>
				</g>
			</mask>
			<g display="inline" mask="url(#SVGID_1_)">
				
					<linearGradient id="SVGID_6_" gradientUnits="userSpaceOnUse" x1="329.2769" y1="8830.1387" x2="695.5078" y2="8830.1387" gradientTransform="matrix(1 0 0 1.827 0 -15950.8223)">
					<stop  offset="0" style="stop-color:#CCE0F4"/>
					<stop  offset="0.0346" style="stop-color:#C3DCF2"/>
					<stop  offset="0.0922" style="stop-color:#A9D2EE"/>
					<stop  offset="0.1656" style="stop-color:#80C2E7"/>
					<stop  offset="0.2511" style="stop-color:#47ACDE"/>
					<stop  offset="0.3065" style="stop-color:#1E9CD7"/>
					<stop  offset="0.4068" style="stop-color:#A4D0ED"/>
					<stop  offset="0.4169" style="stop-color:#97CBEB"/>
					<stop  offset="0.4354" style="stop-color:#76BEE5"/>
					<stop  offset="0.4566" style="stop-color:#49ADDE"/>
					<stop  offset="0.472" style="stop-color:#5BB4E1"/>
					<stop  offset="0.5025" style="stop-color:#88C6E9"/>
					<stop  offset="0.532" style="stop-color:#BAD9F1"/>
					<stop  offset="0.5523" style="stop-color:#C5DFF3"/>
					<stop  offset="0.5878" style="stop-color:#E3EFF9"/>
					<stop  offset="0.6163" style="stop-color:#FFFFFF"/>
					<stop  offset="0.6494" style="stop-color:#BFDCEF"/>
					<stop  offset="0.7256" style="stop-color:#2086C6"/>
					<stop  offset="0.7403" style="stop-color:#0075BE"/>
					<stop  offset="0.8131" style="stop-color:#AAD3EE"/>
					<stop  offset="0.8867" style="stop-color:#B5D7F0"/>
					<stop  offset="0.899" style="stop-color:#AACFEA"/>
					<stop  offset="0.9208" style="stop-color:#8BBADB"/>
					<stop  offset="0.9498" style="stop-color:#5998C3"/>
					<stop  offset="0.9843" style="stop-color:#156AA1"/>
					<stop  offset="0.9944" style="stop-color:#005B97"/>
				</linearGradient>
				<path opacity="0.3" fill="url(#SVGID_6_)" enable-background="new    " d="M575.301,229.476
					c26.031-83.914,71.646-32.592,77.065,37.428c11.74-37.428,31.463,43.155,43.142,69.17
					C683.972,143.291,592.203-20.003,510.586-20.003c-81.62,0-164.356,115.669-181.31,403.705
					c10.238-22.804,27.788-163.166,43.143-136.081c8.126-63.505,32.509-61.238,47.862-11.341
					c-0.246-65.359,27.666-81.652,34.218-27.213C468.945,97.929,528.101,66.181,575.301,229.476z"/>
			</g>
		</g>
		<polygon display="none" fill="none" points="325.957,-19.204 697.127,-19.204 697.127,826.994 325.957,826.994 		"/>
	</g>
</g>
</svg>
