<?xml version="1.0" encoding="utf-8"?>
<!-- Generator: Adobe Illustrator 16.0.0, SVG Export Plug-In . SVG Version: 6.00 Build 0)  -->
<!DOCTYPE svg PUBLIC "-//W3C//DTD SVG 1.1//EN" "http://www.w3.org/Graphics/SVG/1.1/DTD/svg11.dtd">
<svg version="1.1" id="Layer_1" xmlns="http://www.w3.org/2000/svg" xmlns:xlink="http://www.w3.org/1999/xlink" x="0px" y="0px"
	 width="768px" height="768px" viewBox="-373 -375 768 768" enable-background="new -373 -375 768 768" xml:space="preserve">
<g id="www-world-globe">
	<g>
		<path fill="#F7931E" d="M11-362.677C-194.269-362.677-360.677-196.27-360.677,9c0,205.277,166.408,371.677,371.677,371.677
			c205.277,0,371.677-166.399,371.677-371.677C382.677-196.27,216.277-362.677,11-362.677z"/>
		<g id="_x39_">
			<path fill="#582A87" d="M-115.079,40.354l5.727-20.443l5.698,20.443H-115.079z M129.369-72.317h-10.928l2.628,2.634h10.925
				L129.369-72.317z M111.039-69.683v-3.975L95.375-89.333L83.667-77.569l-7.838,7.885h30.43h4.78V-69.683z M168.937-69.683
				l3.913-3.89h16.415L178.912-83.97h-15.564l-14.252,14.287h7.294H168.937z M-249.964-69.683h-13.958
				c34.217-119.759,144.201-207.514,274.976-207.514c130.677,0,240.663,87.757,274.866,207.514h-8.243
				c-13.945-47.113-39.807-89.14-74.372-122.231h-34.874l-1.705,8.704l-7.851,5.197l-16.501,1.734l0.837-10.453l-14.767-2.583
				l2.628-10.438l-22.662,5.241l-12.128,20.885l-20.983,15.691l-1.636,19.924l20.86,5.226l12.171,5.254l6.105-6.091v-33.059h7.838
				v16.541h14.742v17.352h-13.875v12.155H86.729v12.213h-11.43l-15.552-15.648v-10.453H41.515v17.438v8.663l-4.874,4.751l9.15,9.164
				l11.376-11.317l8.605,8.676l-4.792,4.82v6.539h-7.363v16.103h-87.096l-2.906,12.342l-2.654-12.342h-40.949l8.815-8.725
				l3.939,3.898l9.529-9.544h-14.77v-7.851h10.451v-12.144h10.438v-29.577h-24.352v-5.266h-23.56v42.654l-8.632,2.598l-7.029-16.543
				l-20.789-14.726l-12.197-16.515l20.844,2.529l7.016-11.249l-6.135-7.028l-2.599-8.705l26.143-1.676l3.377-18.302l-87.113-0.809
				c-27.664,27.831-49.363,61.53-63.347,99.003v17.978H-249.964z M-18.495-150.138l13.901,13.917l16.501-16.528l31.659-31.771
				L56.7-197.584h15.203v-31.745v-22.606H51.908v-14.333c-13.329-1.999-26.994-3.075-40.854-3.075c-3.255,0-6.371,0.196-9.444,0.31
				l-1.007,2.305v21.782h-17.408v42.572h2.613h9.598v16.528h-13.901V-150.138z M-156.088-213.361l7.097,7.084h25.641l10.84-10.898
				v-14.741h11.274v25.163h17.451v52.211h25.206v-72.221h-11.232h-21.784v-15.578h15.649l9.166-9.153l-5.156-5.14
				C-102.646-247.061-131.02-232.264-156.088-213.361z M251.032,88.779l-6.732,27.525h-42.839v21.43h-19.502v36.98l-15.229,15.177
				h-35.81v-32.862l-19.322-19.295V89.95l-7.404,26.351H18.896v30.991H-4.59l-12.213,17.438v39.094l-35.682,26.099v46.96
				l-40.003-36.453V144.64l-41.062-38.49l-2.847,10.156h-87.102l-6.665-27.498l-6.719,27.498h-17.27
				c42.458,104.844,145.096,178.894,265.209,178.894c120.029,0,222.653-74.05,265.096-178.894h-18.457L251.032,88.779z"/>
			<g>
				<path fill="#FFFFFF" d="M-119.285-24.097l6.764-24.122h-19.324h-3.826h-25.513l-12.91,54.93
					c-1.452,5.796-2.794,13.496-3.997,23.039c-1.216,9.555-2.068,17.533-2.583,23.934h-0.53c-0.083-0.059-0.181-0.126-0.278-0.196
					c-1.033-10.34-3.521-24.758-7.448-43.256l-12.392-58.45h-55.759l-2.15,9.185L-270.633,9.49
					c-4.47,21.712-6.845,36.453-7.098,44.194h-0.783c-0.6-12.465-2.794-28.112-6.582-46.973l-11.875-54.93h-49.698l39.889,143.062
					h53.051l14.838-60.719c1.13-4.694,3.047-14.468,5.743-29.251c0.853-4.637,1.772-9.724,2.779-15.34h0.783l2.57,16.543
					l1.538,8.098l2.346,12.491l16.515,68.182h53.958l5.629-20.049l24.815-88.479L-119.285-24.097z"/>
				<path fill="#FFFFFF" d="M118.386-13.688l9.698-34.531h-19.337h-0.184H79.406l-12.91,54.93
					c-1.452,5.796-2.793,13.496-3.996,23.039c-1.202,9.555-2.055,17.533-2.57,23.934h-0.785
					c-1.033-10.369-3.533-24.845-7.474-43.452l-12.392-58.45h-22.48h-33.283l-13.567,57.71c-4.05,19.702-6.371,33.588-6.942,41.789
					c-0.056,0.837-0.126,1.689-0.141,2.405h-0.795c-0.03-0.562-0.098-1.219-0.128-1.786c-0.712-12.184-2.834-27.178-6.439-45.187
					l-11.877-54.93h-30.375h-19.338l9.642,34.56l2.22,7.958l0.755,2.716l25.08,89.952l2.207,7.88h8.871h3.451h40.715l14.852-60.72
					c1.297-5.489,3.702-17.918,7.194-37.22c0.419-2.361,0.853-4.792,1.326-7.37H11l1.146,7.37l1.438,9.174l3.871,20.585
					l16.512,68.185h53.961l27.957-99.621L118.386-13.688z"/>
				<path fill="#FFFFFF" d="M320.011-48.222l-12.91,54.93c-1.466,5.798-2.81,13.498-3.997,23.038
					c-1.215,9.558-2.067,17.536-2.585,23.935h-0.783c-1.033-10.367-3.533-24.843-7.473-43.453l-12.016-56.655l-0.377-1.794h-55.76
					L210.543,9.49c-3.965,19.268-6.272,33.014-6.915,41.286c-0.084,1.033-0.14,2.041-0.166,2.908h-0.799
					c-0.028-0.644-0.097-1.428-0.154-2.084c-0.727-12.113-2.822-27.022-6.411-44.892l-3.717-17.2l-8.159-37.73h-30.358h-19.338
					l9.624,34.56l12.17,43.592l12.016,43.158l6.078,21.753h53.037l14.853-60.72c0.993-4.148,2.626-12.35,4.864-24.415
					c1.074-5.834,2.277-12.49,3.659-20.175h0.77l1.899,12.127l0.685,4.414l3.87,20.586l16.53,68.183h53.944l40.153-143.063H320.011z
					"/>
			</g>
		</g>
	</g>
</g>
<g id="Layer_1_1_">
</g>
</svg>
