<?xml version="1.0" encoding="utf-8"?>
<!-- Generator: Adobe Illustrator 16.0.0, SVG Export Plug-In . SVG Version: 6.00 Build 0)  -->
<!DOCTYPE svg PUBLIC "-//W3C//DTD SVG 1.1//EN" "http://www.w3.org/Graphics/SVG/1.1/DTD/svg11.dtd">
<svg version="1.1" id="Layer_1" xmlns="http://www.w3.org/2000/svg" xmlns:xlink="http://www.w3.org/1999/xlink" x="0px" y="0px"
	 width="743.354px" height="743.353px" viewBox="-362.677 -363.589 743.354 743.353"
	 enable-background="new -362.677 -363.589 743.354 743.353" xml:space="preserve">
<path opacity="0.4" fill="#FFFFFF" d="M9-363.589c-205.269,0-371.677,166.407-371.677,371.677
	c0,205.277,166.408,371.676,371.677,371.676c205.277,0,371.677-166.398,371.677-371.676C380.677-197.183,214.277-363.589,9-363.589z
	"/>
<g id="Layer_1_1_">
</g>
<g>
	<g>
		<path fill="none" stroke="#582A87" stroke-width="18" stroke-linecap="square" stroke-linejoin="bevel" d="M261.508,138.17
			c-30.523,56.898-111.517,177.828-248.951,177.828c-118.678,0-194.581-88.39-232.909-149.584"/>
		<g>
			<circle fill="#582A87" cx="260.688" cy="139.657" r="33.838"/>
		</g>
		<g>
			<polygon fill="#582A87" points="-173.983,156.285 -250.404,109.241 -252.951,198.945 			"/>
		</g>
	</g>
</g>
<g>
	<polygon fill="#FFFFFF" points="95.439,-9.926 74.307,-51.62 146.367,-198.518 211.451,-198.518 232.509,-151.393 207.781,-96.438 
		215.988,-83.745 263.36,-83.745 283.511,-47.328 262.821,-9.926 	"/>
	<path fill="#F7931E" d="M205.615-189.518l17.03,38.112l-23.072,51.275l16.415,25.386h42.065l15.171,27.417l-15.71,28.401H100.968
		L84.363-51.686l67.613-137.832H205.615 M217.287-207.518h-76.529L64.25-51.554L89.911-0.926h178.217l25.668-46.402l-25.13-45.416
		h-52.678l26.384-58.636L217.287-207.518L217.287-207.518z"/>
</g>
<g>
	<polygon fill="#F7931E" points="-63.81,196.904 -88.213,148.758 -12.94,-4.687 60.41,-4.687 84.376,48.946 58.451,106.561 
		60.731,110.086 111.937,110.086 135.682,153.002 111.397,196.904 	"/>
	<path fill="#582A87" d="M58.789-2.187l22.848,51.13l-25.465,56.591l4.56,7.052h49.73l22.363,40.416l-22.901,41.402H-62.274
		l-23.146-45.664L-11.382-2.187H58.789 M62.031-7.187h-76.53l-76.508,155.963l25.661,50.628h178.217l25.667-46.402l-25.129-45.416
		H60.731L87.116,48.95L62.031-7.187L62.031-7.187z"/>
</g>
<g>
	<polygon fill="#582A87" points="-239.099,-3.426 -263.502,-51.572 -188.23,-205.018 -114.879,-205.018 -90.914,-151.384 
		-116.837,-93.771 -114.558,-90.245 -63.353,-90.245 -39.607,-47.329 -63.892,-3.426 	"/>
	<path fill="#F7931E" d="M-116.5-202.518l22.847,51.13l-25.464,56.591l4.56,7.052h49.73l22.363,40.417L-65.366-5.926h-172.197
		l-23.146-45.665l74.037-150.927H-116.5 M-113.258-207.518h-76.53l-76.508,155.963l25.662,50.628h178.217l25.667-46.402
		l-25.129-45.416h-52.678l26.384-58.636L-113.258-207.518L-113.258-207.518z"/>
</g>
</svg>
