<?xml version="1.0" encoding="utf-8"?>
<!-- Generator: Adobe Illustrator 16.0.0, SVG Export Plug-In . SVG Version: 6.00 Build 0)  -->
<!DOCTYPE svg PUBLIC "-//W3C//DTD SVG 1.1//EN" "http://www.w3.org/Graphics/SVG/1.1/DTD/svg11.dtd">
<svg version="1.1" id="Layer_1" xmlns="http://www.w3.org/2000/svg" xmlns:xlink="http://www.w3.org/1999/xlink" x="0px" y="0px"
	 width="66px" height="66px" viewBox="-23 -23 66 66" enable-background="new -23 -23 66 66" xml:space="preserve">
<path fill="#BCBCB1" d="M10-22C-7.673-22-22-7.673-22,10s14.327,32,32,32c17.674,0,32-14.327,32-32S27.674-22,10-22z M-11.407,16
	c-3.314,0-6-2.686-6-6c0-3.314,2.687-6,6-6s6,2.687,6,6C-5.406,13.314-8.093,16-11.407,16z"/>
<path fill="#E6E6E6" d="M10-23C-7.673-23-22-8.673-22,9s14.327,32,32,32c17.674,0,32-14.327,32-32S27.674-23,10-23z M-11.407,15
	c-3.314,0-6-2.686-6-6c0-3.314,2.687-6,6-6s6,2.687,6,6C-5.406,12.314-8.093,15-11.407,15z"/>
<g>
	<path opacity="0.2" fill="#231F20" enable-background="new    " d="M37.992,5.578c-1.49-2.292-14.01,3.202-22.113,8.469
		c-3.987,2.591-6.155,4.643-7.16,6.334c-2.021-0.638-4.426-0.355-6.217,0.81c-1.148,0.746-1.889,1.686-2.518,2.738
		c-1.208,2.024-2.505,4.605-5.853,5.93c1.723,2.652,10.15,5.083,15.181,1.812c0.533-0.345,1.015-0.772,1.438-1.257
		c1-1.146,1.646-2.613,1.813-4.093c1.954-0.227,4.714-1.376,8.71-3.973C29.377,17.081,39.481,7.87,37.992,5.578z"/>
	<path fill="#E0995E" d="M16.294,12.09c-8.104,5.267-8.723,8.312-7.232,10.604c1.489,2.292,4.523,2.963,12.627-2.304
		S39.896,5.914,38.407,3.622C36.917,1.33,24.397,6.824,16.294,12.09z"/>
	<g>
		<path fill="#F7931E" d="M-5.453,27.902c1.724,2.651,10.15,5.083,15.181,1.812c0.533-0.346,1.015-0.773,1.438-1.258
			c-6.451-1.571-9.424-4.461-10.766-6.483C-0.809,23.997-2.105,26.578-5.453,27.902z"/>
		<path fill="#582A87" d="M12.191,20.66c-1.881-2.896-6.38-3.307-9.274-1.426c-1.148,0.745-1.889,1.686-2.518,2.738
			c1.342,2.022,3.577,7.855,10.766,6.483C13.043,26.306,13.727,23.021,12.191,20.66z"/>
	</g>
	<path fill="#F7931E" d="M0.4,21.973c0,0,4.093,0.088,5.381,3.247c1.289,3.159,5.383,3.236,5.383,3.236l-5.688,1.732l-4.308-4.791
		L0.4,21.973z"/>
</g>
<circle fill="#F7931E" cx="-1" cy="-4.909" r="6.621"/>
<circle fill="#582A87" cx="16.344" cy="-8.999" r="6.621"/>
</svg>
