<?xml version="1.0" encoding="utf-8"?>
<!-- Generator: Adobe Illustrator 16.0.0, SVG Export Plug-In . SVG Version: 6.00 Build 0)  -->
<!DOCTYPE svg PUBLIC "-//W3C//DTD SVG 1.1//EN" "http://www.w3.org/Graphics/SVG/1.1/DTD/svg11.dtd">
<svg version="1.1" id="Layer_1" xmlns="http://www.w3.org/2000/svg" xmlns:xlink="http://www.w3.org/1999/xlink" x="0px" y="0px"
	 width="274.969px" height="263.124px" viewBox="-74.562 -123.032 274.969 263.124"
	 enable-background="new -74.562 -123.032 274.969 263.124" xml:space="preserve">
<path fill="#E6E6E6" d="M64.094-123.032C-8.565-123.032-67.469-64.13-67.469,8.53c0,72.662,58.903,131.562,131.562,131.562
	c72.661,0,131.562-58.899,131.562-131.562C195.655-64.13,136.755-123.032,64.094-123.032z"/>
<g>
	<defs>
		<path id="SVGID_1_" d="M64.094-123.032C-8.565-123.032-67.469-64.13-67.469,8.53c0,72.662,58.903,131.562,131.562,131.562
			c72.661,0,131.562-58.899,131.562-131.562C195.655-64.13,136.755-123.032,64.094-123.032z"/>
	</defs>
	<clipPath id="SVGID_2_">
		<use xlink:href="#SVGID_1_"  overflow="visible"/>
	</clipPath>
	<g clip-path="url(#SVGID_2_)">
		<path fill="#F7931E" d="M56.938-65.875C52-65.875-5.719-15.906-5.719-10.969c0,4.939,8.346,16.656,13.281,16.656
			C12.5,5.688,52-21.156,56.938-21.156s64.146,71.594,69.094,71.594h74.375v-71.281c0,0-58.035-0.312-62.969-0.312
			C132.5-21.156,65.885-65.875,56.938-65.875z"/>
		<path fill="#582A87" d="M22.375-48C12.506-48-22.062-21.156-27-21.156h-47.562v71.594H-27c4.938,0,14.812,12.656,14.812,12.656
			l34.562,34.531c0,0,6.779,6.5,16.656,6.5c9.875,0,12.969-6.5,12.969-6.5s4.002,6.5,13.875,6.5
			c12.302,0,15.719-11.406,15.719-11.406s2.739,2.469,11.125,2.469c13.422,0,13.562-12.344,13.562-12.344s4.928,3.375,9.875,3.375
			c7.863,0,12.344-8.311,12.344-13.25c0-9.098-4.006-16.141-6.656-19.781c-4.273-3.157-12.49-11.919-33.719-35.594
			C80.816,9.443,73.242,1.017,67.188-5.469c-6.564-7.021-9.549-9.785-10.875-10.875c-3.922,1.664-14.502,8.055-21.75,12.438
			c-18.32,11.068-23.748,14.062-27,14.062c-2.633,0-6.875-1.404-12.062-8.219c-1.334-1.756-5.688-7.888-5.688-12.906
			c0-2.191,0.729-4.324,10.438-13.844c5.309-5.203,12.609-11.914,20.562-18.844c1.327-1.157,2.66-2.282,3.969-3.406
			C23.749-47.664,22.938-48,22.375-48z"/>
	</g>
</g>
</svg>
