<?xml version="1.0" encoding="utf-8"?>
<!-- Generator: Adobe Illustrator 16.0.0, SVG Export Plug-In . SVG Version: 6.00 Build 0)  -->
<!DOCTYPE svg PUBLIC "-//W3C//DTD SVG 1.1//EN" "http://www.w3.org/Graphics/SVG/1.1/DTD/svg11.dtd">
<svg version="1.1" id="Layer_1" xmlns="http://www.w3.org/2000/svg" xmlns:xlink="http://www.w3.org/1999/xlink" x="0px" y="0px"
	 width="251px" height="284px" viewBox="0 0 251 284" enable-background="new 0 0 251 284" xml:space="preserve">
<g>
	<path fill="#48226A" d="M9.386,118.232l5.193,9.951l-1.273,1.525l-4.984-9.712l-4.42,5.298l-3.803-3.172l1.184-1.418l2.685,2.24
		l4.542-5.444L9.386,118.232z"/>
	<path fill="#48226A" d="M14.397,113.376l-1.504,1.546l-1.043-1.015l2.8-2.877l4.599,4.475l-1.296,1.33L14.397,113.376z"/>
	<path fill="#48226A" d="M26.402,101.728l3.622,10.624l-1.49,1.313l-3.453-10.355l-5.173,4.566l-3.276-3.713l1.385-1.222
		l2.313,2.622l5.315-4.691L26.402,101.728z"/>
	<path fill="#48226A" d="M33.686,99.845c-0.258-0.471-0.427-0.97-0.506-1.495c-0.079-0.524-0.061-0.985,0.056-1.383
		c0.01-0.031,0.037-0.107,0.082-0.227l-0.033-0.013c-0.213,0.218-0.468,0.504-0.766,0.859s-0.562,0.691-0.792,1.01l-1.147-0.857
		c0.474-0.663,1.052-1.341,1.734-2.034c0.683-0.691,1.35-1.273,2.003-1.745c1.285-0.927,2.508-1.3,3.667-1.121
		c1.159,0.179,2.208,0.914,3.146,2.204l4.01,5.56l-3.928,2.833l-0.852-1.181l2.43-1.752l-3.278-4.546
		c-0.598-0.829-1.245-1.322-1.94-1.479c-0.695-0.157-1.408,0.027-2.137,0.554c-0.523,0.378-0.819,0.89-0.887,1.536
		c-0.068,0.646,0.103,1.337,0.509,2.071l3.661,6.595l-1.482,1.069L33.686,99.845z"/>
	<path fill="#48226A" d="M51.906,95.885c-0.868-0.011-1.683-0.258-2.441-0.743c-0.76-0.485-1.402-1.181-1.928-2.089l-0.58-1.018
		c-0.249-0.436-0.434-0.902-0.554-1.404c-0.121-0.5-0.17-0.984-0.145-1.451c0.024-0.469,0.124-0.871,0.298-1.211
		c0.027-0.061,0.055-0.104,0.083-0.137l-0.023-0.021c-0.287,0.209-0.818,0.696-1.593,1.461l-0.99-1.01
		c0.563-0.584,1.237-1.178,2.02-1.781c0.783-0.603,1.531-1.11,2.248-1.52c0.948-0.541,1.869-0.824,2.763-0.851s1.72,0.2,2.479,0.677
		c0.759,0.479,1.41,1.191,1.952,2.143l0.682,1.195c0.52,0.91,0.798,1.814,0.834,2.711c0.037,0.898-0.162,1.724-0.598,2.479
		c-0.436,0.754-1.082,1.375-1.938,1.863C53.631,95.66,52.774,95.896,51.906,95.885z M54.912,92.629
		c0.26-0.504,0.362-1.066,0.308-1.688c-0.056-0.62-0.267-1.253-0.635-1.897l-0.678-1.188c-0.38-0.667-0.826-1.183-1.337-1.548
		c-0.511-0.364-1.054-0.557-1.628-0.577c-0.575-0.021-1.149,0.132-1.722,0.459c-0.515,0.294-0.891,0.687-1.127,1.177
		c-0.237,0.492-0.32,1.053-0.248,1.682c0.072,0.631,0.297,1.291,0.676,1.981l0.634,1.111c0.368,0.645,0.805,1.148,1.312,1.512
		c0.506,0.363,1.039,0.563,1.601,0.599c0.561,0.037,1.109-0.099,1.647-0.405C54.253,93.539,54.651,93.135,54.912,92.629z"/>
	<path fill="#48226A" d="M63.015,91.739l-0.869-16.567l1.445-0.658l0.878,16.564L63.015,91.739z"/>
	<path fill="#48226A" d="M71.27,75.951l-1.28,0.48l-0.512-1.361l3.02-1.135l4.044,10.77l-1.739,0.653L71.27,75.951z"/>
	<path fill="#48226A" d="M81.037,83.148l-0.482-1.6c0.18-0.027,0.368-0.07,0.565-0.13c0.91-0.302,1.573-0.8,1.99-1.493
		c0.416-0.693,0.581-1.473,0.494-2.338l-1.595-5.281l-2.543,0.768l-0.421-1.393l4.292-1.296l1.717,5.684
		c0.175,0.579,0.404,1.122,0.689,1.628l1.885,3.41l-1.673,0.504l-1.592-2.886l-0.066,0.021c0.091,0.578,0.034,1.162-0.169,1.754
		c-0.204,0.593-0.534,1.115-0.992,1.57c-0.457,0.454-1.005,0.777-1.642,0.97C81.291,83.102,81.139,83.138,81.037,83.148z"/>
	<path fill="#48226A" d="M91.141,69.864l-1.333,0.308l-0.328-1.417l3.143-0.727l2.591,11.208l-1.81,0.418L91.141,69.864z"/>
	<path fill="#48226A" d="M107.706,66.503l-2.683,10.898l-1.964,0.304l2.682-10.583l-6.819,1.053l-0.756-4.893L99.992,63l0.533,3.456
		l7.007-1.082L107.706,66.503z"/>
	<path fill="#48226A" d="M127.104,67.64c-0.01-0.625-0.205-1.115-0.586-1.47c-0.384-0.355-0.899-0.528-1.553-0.518l-3.953,0.062
		l-0.023-1.455l4.013-0.064c0.807-0.013,1.504,0.12,2.094,0.396c0.592,0.277,1.045,0.684,1.363,1.219
		c0.318,0.536,0.482,1.181,0.494,1.936l0.126,7.889l-1.847,0.029L127.104,67.64z"/>
	<path fill="#48226A" d="M136.268,65.847l-1.365-0.077l0.082-1.453l3.219,0.182l-0.646,11.486l-1.854-0.104L136.268,65.847z"/>
	<path fill="#48226A" d="M144.688,72.215c0.08-0.581,0.188-1.032,0.321-1.355c0.136-0.323,0.31-0.644,0.521-0.963l1.503,0.208
		c-0.125,0.278-0.23,0.592-0.316,0.942c-0.084,0.35-0.161,0.786-0.233,1.308l-1.16,8.407l-1.779-0.245L144.688,72.215z
		 M148.001,75.59c0.653,0.07,1.244,0.008,1.771-0.189c0.522-0.197,0.955-0.518,1.291-0.961c0.338-0.443,0.551-0.994,0.641-1.652
		l0.73-5.291l-7.191-0.991l0.199-1.441l9.031,1.245l-0.925,6.695c-0.131,0.948-0.452,1.743-0.969,2.385s-1.185,1.103-2.004,1.38
		c-0.822,0.277-1.744,0.355-2.771,0.234L148.001,75.59z"/>
	<path fill="#48226A" d="M162.137,69.335l-2.105-0.468l0.316-1.42l3.918,0.87l-1.392,6.263l-1.812-0.402L162.137,69.335z"/>
	<path fill="#48226A" d="M176.257,82.164l-0.401,1.328l-9.25-2.807l0.424-1.402l6.117,1.855l1.668-5.504
		c0.289-0.953,0.281-1.709-0.025-2.269c-0.307-0.56-0.951-0.987-1.932-1.285l-2.726-0.826l0.425-1.392l2.817,0.855
		c1.471,0.446,2.476,1.132,3.012,2.057c0.537,0.925,0.599,2.073,0.183,3.443l-1.635,5.392L176.257,82.164z"/>
	<path fill="#48226A" d="M192.8,79.456l-1.965-0.888l0.599-1.326l3.659,1.652l-2.641,5.848l-1.693-0.765L192.8,79.456z"/>
	<path fill="#48226A" d="M198.104,92.732c-0.438-0.748-0.649-1.572-0.629-2.474c0.021-0.902,0.283-1.811,0.789-2.729l0.568-1.024
		c0.244-0.438,0.549-0.839,0.914-1.201c0.365-0.362,0.756-0.655,1.168-0.876c0.412-0.221,0.809-0.346,1.189-0.371
		c0.065-0.009,0.119-0.009,0.16-0.001l0.006-0.03c-0.328-0.138-1.021-0.34-2.074-0.606l0.352-1.37
		c0.791,0.18,1.646,0.448,2.568,0.805c0.922,0.355,1.744,0.734,2.465,1.137c0.953,0.531,1.674,1.172,2.158,1.922
		c0.486,0.75,0.721,1.574,0.705,2.471c-0.017,0.897-0.289,1.823-0.82,2.779l-0.67,1.203c-0.51,0.916-1.139,1.621-1.887,2.117
		c-0.748,0.497-1.56,0.754-2.431,0.772c-0.87,0.018-1.735-0.212-2.598-0.691C199.189,94.091,198.546,93.48,198.104,92.732z
		 M202.445,93.617c0.566-0.039,1.103-0.242,1.604-0.611c0.502-0.369,0.935-0.877,1.296-1.525l0.663-1.195
		c0.373-0.671,0.584-1.319,0.632-1.945c0.047-0.625-0.068-1.189-0.351-1.691c-0.279-0.503-0.709-0.914-1.283-1.234
		c-0.521-0.289-1.049-0.406-1.592-0.355c-0.543,0.053-1.065,0.271-1.565,0.66c-0.502,0.387-0.949,0.922-1.345,1.604l-0.623,1.118
		c-0.36,0.648-0.565,1.284-0.612,1.905c-0.049,0.621,0.057,1.181,0.315,1.679c0.26,0.499,0.66,0.898,1.201,1.199
		C201.327,93.525,201.88,93.656,202.445,93.617z"/>
	<path fill="#48226A" d="M215.773,92.166l-1.789-1.202l0.812-1.208l3.332,2.238l-3.578,5.326l-1.541-1.035L215.773,92.166z"/>
	<path fill="#48226A" d="M218.7,106.182c-0.312-0.744-0.406-1.511-0.279-2.3c0.129-0.789,0.479-1.543,1.054-2.26l4.43-5.547
		l1.443,1.153l-4.511,5.646c-0.377,0.473-0.617,0.963-0.719,1.469c-0.104,0.506-0.063,0.992,0.11,1.459
		c0.179,0.468,0.488,0.876,0.931,1.229c0.438,0.35,0.901,0.559,1.396,0.629c0.494,0.068,0.978-0.002,1.447-0.213
		c0.471-0.211,0.895-0.553,1.273-1.025l2.408-3.014c0.389-0.489,0.58-0.955,0.571-1.398c-0.008-0.443-0.213-0.828-0.619-1.152
		c-0.338-0.27-0.791-0.473-1.354-0.607l0.529-1.127c0.391,0.045,0.778,0.146,1.17,0.304c0.391,0.158,0.729,0.353,1.021,0.585
		c0.476,0.379,0.801,0.81,0.979,1.295c0.18,0.484,0.205,0.996,0.078,1.535c-0.129,0.539-0.406,1.076-0.834,1.61l-2.418,3.029
		c-0.574,0.718-1.23,1.227-1.97,1.526c-0.739,0.302-1.504,0.382-2.295,0.241s-1.551-0.501-2.278-1.082
		C219.536,107.585,219.016,106.923,218.7,106.182z"/>
	<path fill="#48226A" d="M237.497,112.484c0.437-0.448,0.644-0.934,0.625-1.454c-0.021-0.521-0.265-1.009-0.729-1.464l-2.841-2.752
		l1.013-1.045l2.883,2.795c0.578,0.561,0.979,1.146,1.199,1.761c0.223,0.612,0.256,1.223,0.102,1.825
		c-0.154,0.604-0.494,1.177-1.02,1.719l-5.492,5.666l-1.326-1.286L237.497,112.484z"/>
	<path fill="#48226A" d="M236.982,122.921l1.226-0.657c0.478,0.983,0.981,1.787,1.519,2.407c0.725,0.845,1.477,1.312,2.26,1.408
		c0.781,0.097,1.547-0.179,2.299-0.823l4.309-3.705l-3.99-4.642l1.104-0.949l5.194,6.043l-5.116,4.397
		c-1.234,1.062-2.453,1.525-3.658,1.395c-1.203-0.132-2.319-0.797-3.349-1.993C238.122,125.04,237.523,124.079,236.982,122.921z"/>
	<circle fill="#D19332" cx="115.224" cy="70.47" r="2.442"/>
</g>
<g>
	<path fill="#48226A" d="M9.386,260.232l5.193,9.951l-1.273,1.525l-4.984-9.712l-4.42,5.298l-3.803-3.172l1.184-1.418l2.685,2.24
		l4.542-5.444L9.386,260.232z"/>
	<path fill="#48226A" d="M14.397,255.376l-1.504,1.546l-1.043-1.015l2.8-2.878l4.599,4.476l-1.296,1.33L14.397,255.376z"/>
	<path fill="#48226A" d="M26.402,243.729l3.622,10.623l-1.49,1.313l-3.453-10.354l-5.173,4.565l-3.276-3.713l1.385-1.222
		l2.313,2.621l5.315-4.691L26.402,243.729z"/>
	<path fill="#48226A" d="M33.686,241.846c-0.258-0.472-0.427-0.971-0.506-1.496c-0.079-0.523-0.061-0.984,0.056-1.382
		c0.01-0.03,0.037-0.106,0.082-0.229l-0.033-0.013c-0.213,0.217-0.468,0.504-0.766,0.859s-0.562,0.691-0.792,1.01l-1.147-0.856
		c0.474-0.663,1.052-1.341,1.734-2.033c0.683-0.692,1.35-1.274,2.003-1.746c1.285-0.927,2.508-1.301,3.667-1.121
		c1.159,0.181,2.208,0.914,3.146,2.203l4.01,5.562l-3.928,2.832l-0.852-1.181l2.43-1.752l-3.278-4.547
		c-0.598-0.828-1.245-1.321-1.94-1.478c-0.695-0.158-1.408,0.027-2.137,0.554c-0.523,0.377-0.819,0.89-0.887,1.536
		c-0.068,0.646,0.103,1.336,0.509,2.07l3.661,6.596l-1.482,1.068L33.686,241.846z"/>
	<path fill="#48226A" d="M51.906,237.885c-0.868-0.011-1.683-0.259-2.441-0.742c-0.76-0.484-1.402-1.183-1.928-2.088l-0.58-1.019
		c-0.249-0.437-0.434-0.904-0.554-1.404c-0.121-0.501-0.17-0.985-0.145-1.452c0.024-0.468,0.124-0.871,0.298-1.211
		c0.027-0.06,0.055-0.105,0.083-0.138l-0.023-0.021c-0.287,0.209-0.818,0.695-1.593,1.459l-0.99-1.009
		c0.563-0.584,1.237-1.178,2.02-1.78c0.782-0.604,1.531-1.11,2.248-1.52c0.948-0.541,1.869-0.825,2.763-0.852
		c0.894-0.025,1.72,0.199,2.479,0.678c0.759,0.477,1.41,1.191,1.952,2.141l0.682,1.196c0.52,0.911,0.798,1.813,0.834,2.712
		c0.037,0.896-0.162,1.723-0.598,2.477c-0.436,0.756-1.082,1.377-1.938,1.865C53.631,237.659,52.774,237.896,51.906,237.885z
		 M54.912,234.63c0.26-0.504,0.362-1.067,0.308-1.688c-0.056-0.621-0.267-1.254-0.635-1.897l-0.678-1.188
		c-0.38-0.666-0.826-1.184-1.337-1.547c-0.511-0.365-1.054-0.558-1.628-0.578c-0.575-0.021-1.149,0.134-1.722,0.459
		c-0.515,0.293-0.891,0.687-1.127,1.179c-0.237,0.489-0.32,1.051-0.248,1.682c0.072,0.63,0.297,1.289,0.676,1.979l0.634,1.111
		c0.368,0.646,0.805,1.148,1.312,1.512c0.506,0.363,1.039,0.563,1.601,0.601c0.561,0.035,1.109-0.101,1.647-0.405
		C54.253,235.541,54.651,235.134,54.912,234.63z"/>
	<path fill="#48226A" d="M63.015,233.739l-0.869-16.567l1.445-0.656l0.878,16.562L63.015,233.739z"/>
	<path fill="#48226A" d="M71.27,217.951l-1.28,0.48l-0.512-1.363l3.02-1.133l4.044,10.771l-1.739,0.651L71.27,217.951z"/>
	<path fill="#FFFFFF" d="M81.037,225.146l-0.482-1.599c0.18-0.026,0.368-0.069,0.565-0.13c0.91-0.302,1.573-0.8,1.99-1.493
		c0.416-0.692,0.581-1.473,0.494-2.337l-1.595-5.281l-2.543,0.768l-0.421-1.395l4.292-1.295l1.717,5.684
		c0.175,0.58,0.404,1.123,0.689,1.629l1.885,3.408l-1.673,0.506l-1.592-2.887l-0.066,0.021c0.091,0.577,0.034,1.163-0.169,1.755
		c-0.204,0.592-0.534,1.115-0.992,1.567c-0.457,0.455-1.005,0.779-1.642,0.972C81.291,225.102,81.139,225.139,81.037,225.146z"/>
	<path fill="#FFFFFF" d="M91.141,211.864l-1.333,0.308l-0.328-1.417l3.143-0.728l2.591,11.207l-1.81,0.42L91.141,211.864z"/>
	<path fill="#FFFFFF" d="M107.706,208.503l-2.683,10.897l-1.964,0.304l2.682-10.582l-6.819,1.053l-0.756-4.893L99.992,205
		l0.533,3.456l7.007-1.082L107.706,208.503z"/>
	<path fill="#FFFFFF" d="M127.104,209.641c-0.01-0.625-0.205-1.115-0.586-1.471c-0.384-0.355-0.899-0.527-1.553-0.518l-3.953,0.062
		l-0.023-1.454l4.013-0.064c0.807-0.012,1.504,0.119,2.094,0.396c0.592,0.277,1.045,0.684,1.363,1.219s0.482,1.182,0.494,1.937
		l0.126,7.892l-1.847,0.028L127.104,209.641z"/>
	<path fill="#FFFFFF" d="M136.268,207.848l-1.365-0.076l0.082-1.453l3.219,0.182l-0.646,11.484l-1.854-0.104L136.268,207.848z"/>
	<path fill="#48226A" d="M144.688,214.215c0.08-0.581,0.188-1.031,0.321-1.355c0.134-0.322,0.31-0.644,0.521-0.963l1.503,0.207
		c-0.125,0.278-0.23,0.594-0.316,0.942c-0.084,0.351-0.161,0.785-0.233,1.31l-1.16,8.405l-1.779-0.245L144.688,214.215z
		 M148.001,217.59c0.653,0.07,1.244,0.008,1.771-0.189c0.522-0.197,0.955-0.518,1.291-0.961c0.338-0.442,0.551-0.992,0.641-1.65
		l0.73-5.292l-7.191-0.991l0.199-1.441l9.031,1.244l-0.925,6.695c-0.131,0.947-0.452,1.743-0.969,2.385
		c-0.517,0.644-1.185,1.103-2.004,1.381c-0.822,0.277-1.744,0.355-2.771,0.233L148.001,217.59z"/>
	<path fill="#48226A" d="M162.137,211.335l-2.105-0.468l0.316-1.422l3.918,0.871l-1.392,6.265l-1.812-0.403L162.137,211.335z"/>
	<path fill="#48226A" d="M176.257,224.165l-0.401,1.326l-9.25-2.806l0.424-1.401l6.117,1.854l1.668-5.505
		c0.289-0.952,0.281-1.71-0.025-2.269s-0.951-0.987-1.932-1.285l-2.726-0.826l0.425-1.393l2.817,0.854
		c1.471,0.446,2.476,1.132,3.012,2.058c0.537,0.925,0.599,2.071,0.183,3.442l-1.635,5.394L176.257,224.165z"/>
	<path fill="#48226A" d="M192.8,221.456l-1.965-0.888l0.599-1.326l3.659,1.65l-2.641,5.849l-1.693-0.765L192.8,221.456z"/>
	<path fill="#48226A" d="M198.104,234.732c-0.438-0.748-0.649-1.573-0.629-2.475c0.021-0.9,0.283-1.811,0.789-2.73l0.568-1.022
		c0.244-0.438,0.549-0.838,0.914-1.2c0.365-0.363,0.756-0.654,1.168-0.877c0.412-0.222,0.809-0.345,1.189-0.371
		c0.065-0.009,0.119-0.009,0.16,0l0.006-0.031c-0.328-0.137-1.021-0.34-2.074-0.605l0.352-1.369c0.791,0.18,1.646,0.447,2.568,0.805
		c0.922,0.356,1.744,0.734,2.465,1.136c0.953,0.53,1.674,1.172,2.158,1.923c0.486,0.751,0.721,1.574,0.705,2.471
		c-0.017,0.897-0.289,1.823-0.82,2.778l-0.67,1.203c-0.51,0.916-1.139,1.623-1.887,2.118c-0.748,0.496-1.56,0.754-2.431,0.771
		c-0.87,0.018-1.735-0.213-2.598-0.691C199.189,236.091,198.546,235.48,198.104,234.732z M202.445,235.617
		c0.566-0.039,1.103-0.243,1.604-0.611c0.502-0.367,0.935-0.878,1.296-1.525l0.663-1.194c0.373-0.671,0.584-1.319,0.632-1.945
		c0.047-0.626-0.068-1.188-0.351-1.692c-0.279-0.502-0.709-0.914-1.283-1.233c-0.521-0.287-1.049-0.406-1.592-0.354
		c-0.543,0.051-1.065,0.271-1.565,0.658c-0.502,0.389-0.949,0.924-1.345,1.605l-0.623,1.117c-0.36,0.647-0.565,1.283-0.612,1.904
		c-0.049,0.62,0.057,1.182,0.315,1.68s0.66,0.897,1.201,1.199C201.327,235.525,201.88,235.654,202.445,235.617z"/>
	<path fill="#48226A" d="M215.773,234.167l-1.789-1.203l0.812-1.208l3.332,2.238l-3.578,5.326l-1.541-1.036L215.773,234.167z"/>
	<path fill="#48226A" d="M218.7,248.182c-0.312-0.744-0.406-1.511-0.279-2.3c0.129-0.789,0.479-1.543,1.054-2.26l4.43-5.547
		l1.443,1.153l-4.511,5.646c-0.377,0.474-0.617,0.963-0.719,1.469c-0.104,0.507-0.063,0.992,0.11,1.459
		c0.179,0.468,0.488,0.876,0.931,1.229c0.438,0.35,0.901,0.559,1.396,0.629c0.494,0.068,0.978-0.002,1.447-0.213
		c0.471-0.211,0.895-0.553,1.273-1.025l2.408-3.014c0.389-0.489,0.58-0.955,0.571-1.398c-0.008-0.443-0.213-0.828-0.619-1.152
		c-0.338-0.27-0.791-0.473-1.354-0.606l0.529-1.127c0.391,0.045,0.778,0.146,1.17,0.304c0.391,0.158,0.729,0.354,1.021,0.586
		c0.476,0.379,0.801,0.81,0.979,1.295c0.18,0.483,0.205,0.996,0.078,1.535c-0.129,0.538-0.406,1.075-0.834,1.609l-2.418,3.029
		c-0.574,0.718-1.23,1.227-1.97,1.526c-0.739,0.302-1.504,0.382-2.295,0.241s-1.551-0.501-2.278-1.082
		C219.536,249.585,219.016,248.923,218.7,248.182z"/>
	<path fill="#48226A" d="M237.497,254.484c0.437-0.448,0.644-0.934,0.625-1.455c-0.021-0.521-0.265-1.008-0.729-1.463l-2.841-2.752
		l1.013-1.045l2.883,2.795c0.578,0.561,0.979,1.146,1.199,1.761c0.223,0.612,0.256,1.223,0.102,1.825
		c-0.154,0.604-0.494,1.177-1.02,1.719l-5.492,5.666l-1.326-1.286L237.497,254.484z"/>
	<path fill="#48226A" d="M236.982,264.921l1.226-0.657c0.478,0.983,0.981,1.787,1.519,2.407c0.725,0.845,1.477,1.312,2.26,1.408
		c0.781,0.097,1.547-0.179,2.299-0.823l4.309-3.705l-3.99-4.642l1.104-0.949l5.194,6.043l-5.116,4.397
		c-1.234,1.062-2.453,1.525-3.658,1.395c-1.203-0.132-2.319-0.797-3.349-1.993C238.122,267.04,237.523,266.079,236.982,264.921z"/>
	<circle cx="115.224" cy="212.47" r="2.442"/>
</g>
</svg>
