<?xml version="1.0" encoding="utf-8"?>
<!-- Generator: Adobe Illustrator 16.0.0, SVG Export Plug-In . SVG Version: 6.00 Build 0)  -->
<!DOCTYPE svg PUBLIC "-//W3C//DTD SVG 1.1//EN" "http://www.w3.org/Graphics/SVG/1.1/DTD/svg11.dtd">
<svg version="1.1" id="Layer_1" xmlns="http://www.w3.org/2000/svg" xmlns:xlink="http://www.w3.org/1999/xlink" x="0px" y="0px"
	 width="787px" height="787px" viewBox="0 0 787 787" enable-background="new 0 0 787 787" xml:space="preserve">
<g>
	<rect fill="#8044BE" width="787" height="787"/>
	<g>
		<polygon opacity="0.2" fill="#CCCCCC" enable-background="new    " points="82.112,41 157.572,41 166.144,24.004 157.666,8 
			137.831,8 133.054,0 85.669,0 73.79,23.088 		"/>
		<polygon opacity="0.2" fill="#808080" enable-background="new    " points="66,22.928 77.642,48 161.909,48 174,23.928 161.909,1 
			137.831,1 138.343,0 133.054,0 137.831,8 157.666,8 166.144,24.004 157.572,41 82.112,41 73.79,23.088 85.669,0 77.801,0 		"/>
		<polygon opacity="0.2" fill="#CCCCCC" enable-background="new    " points="141.985,764.297 133.569,748.003 105.737,748 
			85.67,787 133.054,787 131.611,784.584 		"/>
		<polygon opacity="0.2" fill="#808080" enable-background="new    " points="137.831,741 101.465,741.023 77.801,787 85.67,787 
			105.737,748 133.569,748.003 141.985,764.297 131.611,784.584 133.054,787 138.343,787 149.864,764.5 		"/>
		<g opacity="0.3">
			<polygon fill="#CCCCCC" points="375.799,64 332.362,64 290,146.179 303.905,176 404.559,176 419,147.317 404.559,120 
				375.799,120 390.172,91.986 			"/>
		</g>
		<g opacity="0.3">
			<g>
				<polygon opacity="0.5" fill="#3E285B" enable-background="new    " points="244.782,208.512 230.609,208.512 216.788,235.325 
					221.325,245.054 254.165,245.054 258.877,235.696 254.165,226.783 244.782,226.783 249.471,217.644 				"/>
				<g opacity="0.7">
					<path fill="#4D2F6D" d="M242.95,211.512l3.149,6.132l-3.986,7.77l2.669,4.37h7.576l3.144,5.946l-3.185,6.325h-29.081
						l-3.107-6.663l12.309-23.879L242.95,211.512 M244.782,208.512H230.61l-13.821,26.813l4.537,9.729h32.84l4.712-9.358
						l-4.712-8.913h-9.383l4.689-9.14L244.782,208.512L244.782,208.512z"/>
				</g>
			</g>
		</g>
		<polygon opacity="0.2" fill="#CCCCCC" enable-background="new    " points="607.02,65 705.509,65 718.287,39.342 705.565,15 
			678.459,15 674.729,8.663 679.167,0 614.304,0 594.674,38.201 		"/>
		<polygon opacity="0.2" fill="#808080" enable-background="new    " points="590,38.005 604.337,69 708.111,69 723,38.796 
			708.111,10 678.459,10 683.659,0 679.167,0 674.729,8.663 678.459,15 705.565,15 718.287,39.342 705.509,65 607.02,65 
			594.674,38.201 614.304,0 609.533,0 		"/>
		<polygon opacity="0.2" fill="#CCCCCC" enable-background="new    " points="675.902,744.201 636.238,744.312 614.304,787 
			679.167,787 688.551,768.689 		"/>
		<polygon opacity="0.2" fill="#808080" enable-background="new    " points="678.459,740 633.675,740.029 609.533,787 614.304,787 
			636.238,744.312 675.902,744.201 688.551,768.689 679.167,787 683.659,787 693.278,768.5 		"/>
		<g opacity="0.1">
			<polygon fill="#CCCCCC" points="630.469,434 657,380.746 630.469,330 577.63,330 604.036,278.975 577.63,228 497.827,228 
				420,379.097 445.547,434 			"/>
			<g opacity="0.52">
				<path fill="#808080" d="M572.765,236l22.275,43.08l-24.511,47.357L577.63,338h47.994l22.407,42.833L625.518,426H450.65
					l-21.76-46.721L502.703,236H573 M577.63,228h-79.803L420,379.097L445.547,434h184.922L657,380.746L630.469,330H577.63
					l26.406-51.025L577.63,227.95V228z"/>
			</g>
		</g>
		<polygon opacity="0.1" fill="#999999" enable-background="new    " points="15.468,522.434 44.088,522.424 72,467.135 62.841,447 
			0,447 0,485 15.468,485 5.997,503.732 		"/>
		<polygon opacity="0.1" fill="#999999" enable-background="new    " points="774,466.461 783.521,485 787,485 787,447 783.521,447 
					"/>
		<g opacity="0.4">
			<path fill="#B3B3B3" d="M409.168,521.003l7.32,14.438l-8.988,17.792l5.352,8.768h17.063l7.376,14.562L429.834,592h-64.951
				l-7.231-16.122l27.581-54.748L409.168,521.003 M412.852,515l-31.312,0.021L351,575.743L361.021,598h72.561L444,576.496
				L433.582,556h-20.73l10.363-20.505L412.852,515L412.852,515z"/>
		</g>
		<g opacity="0.4">
			<polygon opacity="0.4" fill="#CCCCCC" enable-background="new    " points="416.168,695.08 452.534,695.057 488,626.111 
				476.357,601 392.089,601 380,625.071 392.089,648 416.168,648 404.136,671.54 			"/>
			<g opacity="0.3">
				<path fill="#808080" d="M472.928,606l9.099,19.804l-32.771,63.792l-29.818,0.064l-9.258-17.9l10.76-20.878L416.168,643h-20.822
					l-9.319-17.987l9.39-19.013H473 M476,601h-83.911L380,625.071L392.089,648h24.079l-12.033,23.54l12.033,23.419l36.366,0.037
					l35.287-68.915L476,600.984V601z"/>
			</g>
		</g>
	</g>
</g>
</svg>
