<?xml version="1.0" encoding="utf-8"?>
<!-- Generator: Adobe Illustrator 16.0.0, SVG Export Plug-In . SVG Version: 6.00 Build 0)  -->
<!DOCTYPE svg PUBLIC "-//W3C//DTD SVG 1.1//EN" "http://www.w3.org/Graphics/SVG/1.1/DTD/svg11.dtd">
<svg version="1.1" id="Layer_1" xmlns="http://www.w3.org/2000/svg" xmlns:xlink="http://www.w3.org/1999/xlink" x="0px" y="0px"
	 width="787px" height="787px" viewBox="0 0 787 787" enable-background="new 0 0 787 787" xml:space="preserve">
<g>
	<polygon opacity="0.4" fill="#CCCCCC" points="147.112,41 222.572,41 231.144,24.004 222.666,8 202.831,8 198.054,0 150.669,0
		138.79,23.088 	"/>
	<polygon opacity="0.4" fill="#808080" points="131,22.928 142.642,48 226.909,48 239,23.928 226.909,1 202.831,1 203.343,0
		198.054,0 202.831,8 222.666,8 231.144,24.004 222.572,41 147.112,41 138.79,23.088 150.669,0 142.801,0 	"/>
	<polygon opacity="0.4" fill="#CCCCCC" points="206.985,764.297 198.569,748.003 170.737,748 150.67,787 198.054,787
		196.611,784.584 	"/>
	<polygon opacity="0.4" fill="#808080" points="202.831,741 166.465,741.023 142.801,787 150.67,787 170.737,748 198.569,748.003
		206.985,764.297 196.611,784.584 198.054,787 203.343,787 214.864,764.5 	"/>
	<g opacity="0.5">
		<polygon fill="#CCCCCC" points="235.799,194 192.362,194 150,276.179 163.905,306 264.559,306 279,277.317 264.559,250
			235.799,250 250.172,221.986 		"/>
	</g>
	<polygon opacity="0.2" fill="#CCCCCC" points="607.02,65 705.509,65 718.287,39.342 705.565,15 678.459,15 674.728,8.663
		679.167,0 614.304,0 594.674,38.201 	"/>
	<polygon opacity="0.2" fill="#808080" points="590,38.005 604.337,69 708.111,69 723,38.796 708.111,10 678.459,10 683.659,0
		679.167,0 674.728,8.663 678.459,15 705.565,15 718.287,39.342 705.509,65 607.02,65 594.674,38.201 614.304,0 609.533,0 	"/>
	<polygon opacity="0.2" fill="#CCCCCC" points="675.902,744.201 636.238,744.313 614.304,787 679.167,787 688.551,768.689 	"/>
	<polygon opacity="0.2" fill="#808080" points="678.459,740 633.675,740.029 609.533,787 614.304,787 636.238,744.313
		675.902,744.201 688.551,768.689 679.167,787 683.659,787 693.278,768.5 	"/>
	<g opacity="0.5">
		<polygon fill="#CCCCCC" points="630.469,434 657,380.746 630.469,330 577.63,330 604.036,278.975 577.63,228 497.827,228
			420,379.097 445.547,434 		"/>
		<g opacity="0.52">
			<path fill="#808080" d="M572.765,236l22.275,43.08l-24.511,47.357L577.63,338h47.994l22.407,42.833L625.518,426H450.65
				l-21.757-46.721L502.703,236H573 M577.63,228h-79.803L420,379.097L445.547,434h184.922L657,380.746L630.469,330H577.63
				l26.406-51.025L577.63,227.95V228z"/>
		</g>
	</g>
	<polygon opacity="0.66" fill="#999999" points="15.468,522.434 44.088,522.424 72,467.135 62.841,447 0,447 0,485 15.468,485
		5.997,503.732 	"/>
	<polygon opacity="0.66" fill="#999999" points="774,466.461 783.521,485 787,485 787,447 783.521,447 	"/>
	<g>
		<path fill="#B3B3B3" d="M364.168,541.003l7.32,14.438l-8.988,17.792l5.352,8.768h17.063l7.376,14.562L384.834,612h-64.951
			l-7.231-16.122l27.58-54.748L364.168,541.003 M367.852,535l-31.313,0.021L306,595.743L316.021,618h72.561L399,596.496L388.582,576
			h-20.73l10.363-20.505L367.852,535L367.852,535z"/>
	</g>
	<g>
		<polygon opacity="0.4" fill="#CCCCCC" points="363.168,715.08 399.534,715.057 435,646.111 423.357,621 339.089,621 327,645.071
			339.089,668 363.168,668 351.136,691.54 		"/>
		<g opacity="0.3">
			<path fill="#808080" d="M419.928,626l9.096,19.804l-32.768,63.792l-29.818,0.064l-9.258-17.9l10.76-20.878L363.168,663h-20.823
				l-9.318-17.987l9.39-19.013H420 M423,621h-83.911L327,645.071L339.089,668h24.079l-12.033,23.54l12.033,23.419l36.366,0.037
				l35.287-68.915L423,620.984V621z"/>
		</g>
	</g>
</g>
</svg>
