<svg version="1.1" id="Layer_2" xmlns="http://www.w3.org/2000/svg" xmlns:xlink="http://www.w3.org/1999/xlink" x="0px" y="0px"
	 width="100%" height="100%" viewBox="113.5 126.5 253 227" style="enable-background:new 113.5 126.5 253 227;"
	 xml:space="preserve">
	 <defs>
	 	<style>
	 	.st0 {
	 stroke-dasharray: 1000;
	 stroke-dashoffset: 10000;
	 animation: dash 4s linear alternate infinite;
	 }
	 .st2 {
	stroke-dasharray: 1000;
	stroke-dashoffset: 1000;
	animation: dash-inner 5s linear alternate infinite;
	}

	.st3{
 stroke-dasharray: 1000;
 stroke-dashoffset: 1000;
 animation: dash-scribble 5s linear alternate infinite;
 }

	 @keyframes dash {
	 from {
	 stroke-dashoffset: 1000;
	 }
	 to {
	 stroke-dashoffset: -900;
	 }
	 }

	 @keyframes dash-inner {
	 from {
	 stroke-dashoffset: -1000;
	 }
	 to {
	 stroke-dashoffset: 1000;
	 }
	 }

	 @keyframes dash-scribble {
	 from {
	 stroke-dashoffset: -1000;
	 }
	 to {
	 stroke-dashoffset: 1000;
	 }
	 }
	 </style>

	 </defs>
<path id="logo" class="st1" fill="#FFFFFF" stroke="#6d339e" stroke-width="4" stroke-miterlimit="10" d="M279.189,134h-79.266l-80.035,158.145L146.861,346h185.965l27.286-53.852L332.827,239h-53.271
	l26.791-52.562L279.189,134L279.189,134z"/>
<polyline id="inner-logo" class="st2" fill="#FFFFFF" stroke="#000000" stroke-width="2" stroke-miterlimit="10" points="270.171,147.948 288.48,183.369 265.379,229.077 252.489,255 280.589,255
	324.505,255 343.002,290.8 324.366,328 155.5,328 137.589,289.98 209.041,148.48 270.171,147.948 "/>
<path id="logo_1_" class="st2" fill="#FFFFFF" stroke="#000000" stroke-width="4" stroke-miterlimit="10" d="M279.189,134h-79.266l-80.035,158.145L146.861,346h185.965l27.286-53.852L332.827,239h-53.271
	l26.791-52.562L279.189,134L279.189,134z"/>
<polyline id="inner-logo_1_" class="st2" fill="#FFFFFF" stroke="#6d339e" stroke-width="2" stroke-miterlimit="10" points="270.171,147.948 288.48,183.369 265.379,229.077 252.489,255 280.589,255
	324.505,255 343.002,290.8 324.366,328 155.5,328 137.589,289.98 209.041,148.48 270.171,147.948 "/>
<g id="scribble">
	<path class="st3" fill="#FFFFFF" stroke="#fbb03b" stroke-width="1" stroke-miterlimit="10" d="M205.73,164.236c0,0,6.972-4.029,20.479-11.835c0.848-0.486,1.721-0.986,2.62-1.501
		c-0.018,0.23-0.296,0.405-0.462,0.584c-0.196,0.175-0.396,0.346-0.603,0.514c-0.412,0.336-0.836,0.668-1.271,1
		c-1.738,1.324-3.606,2.67-5.573,4.077c-3.951,2.789-8.281,5.845-12.984,9.164c-2.351,1.66-4.795,3.386-7.306,5.212
		c-1.252,0.917-2.531,1.848-3.782,2.859c-0.309,0.257-0.624,0.513-0.9,0.807c-0.234,0.229-0.089,0.255,0.143,0.098l0.542-0.285
		c0.714-0.4,1.434-0.803,2.161-1.21c5.778-3.312,11.9-6.925,18.411-10.744c6.512-3.818,13.389-7.884,20.686-12.089
		c0.917-0.518,1.839-1.039,2.768-1.563l0.706-0.38c0.1-0.109,0.791-0.361,0.411,0.028c-0.386,0.381-0.82,0.7-1.249,1.029
		c-1.731,1.292-3.535,2.529-5.357,3.785c-3.665,2.482-7.418,5.024-11.26,7.625c-3.844,2.598-7.78,5.25-11.751,8.034
		c-0.991,0.698-1.985,1.404-2.971,2.131c-0.966,0.742-2.014,1.439-2.832,2.344c-0.165,0.293,0.401-0.08,0.596-0.145l0.826-0.432
		l1.634-0.913c1.082-0.63,2.169-1.263,3.262-1.899c8.713-5.146,17.674-10.691,27.136-16.198c1.186-0.682,2.379-1.365,3.605-2.007
		c0.308-0.157,0.616-0.315,0.937-0.453c0.462-0.354,0.702,0.181,0.238,0.435c-0.491,0.5-1.042,0.927-1.589,1.36
		c-2.21,1.703-4.525,3.303-6.858,4.919c-4.676,3.219-9.483,6.425-14.369,9.692c-4.886,3.268-9.865,6.576-14.875,10.015
		c-1.245,0.87-2.495,1.744-3.75,2.622c-1.236,0.899-2.507,1.78-3.645,2.81c-0.385,0.359-0.442,0.556,0.084,0.256
		c0.35-0.157,0.693-0.335,1.036-0.516c0.684-0.362,1.362-0.74,2.04-1.123c1.347-0.779,2.699-1.562,4.057-2.347
		c10.81-6.373,21.846-13.137,33.312-19.934c2.868-1.696,5.76-3.4,8.705-5.062c1.482-0.815,2.942-1.677,4.522-2.352
		c0.665-0.404,0.557,0.613,0.11,0.719c-0.309,0.303-0.64,0.575-0.974,0.843c-0.67,0.534-1.361,1.039-2.06,1.538
		c-5.618,3.939-11.516,7.623-17.471,11.388c-11.963,7.446-24.246,15.091-36.843,22.932c-3.135,1.981-6.289,3.979-9.407,6.069
		c-0.778,0.524-1.554,1.055-2.315,1.606c-0.379,0.276-0.757,0.557-1.118,0.854c-0.249,0.266-1.024,0.809-0.335,0.476
		c1.703-0.777,3.344-1.75,4.999-2.676c6.595-3.779,13.193-7.737,19.878-11.725c13.365-7.985,26.997-16.23,41.045-24.47
		c3.516-2.053,7.055-4.111,10.658-6.104c0.901-0.497,1.808-0.989,2.725-1.465c0.459-0.238,0.92-0.472,1.389-0.694
		c0.482-0.21,0.911-0.463,1.492-0.561c0.416,0.753-0.51,0.905-0.748,1.295c-0.402,0.331-0.816,0.646-1.233,0.955
		c-0.835,0.619-1.686,1.216-2.542,1.809c-6.871,4.697-13.982,9.183-21.145,13.745c-14.33,9.117-29.086,18.213-43.85,27.912
		c-1.836,1.225-3.676,2.457-5.465,3.762c-0.446,0.328-0.889,0.659-1.314,1.01c-0.307,0.268-1.157,0.977-0.558,0.695
		c1.027-0.304,2.026-0.851,3.014-1.343c3.945-2.064,7.809-4.338,11.692-6.611c7.754-4.57,15.521-9.285,23.358-14.043
		s15.745-9.56,23.722-14.404c4.005-2.396,8.028-4.801,12.068-7.217c4.066-2.373,8.121-4.805,12.376-6.948
		c0.541-0.255,1.071-0.518,1.67-0.698c1.447-0.009-0.165,1.167-0.289,1.273c-0.937,0.753-1.918,1.431-2.902,2.106
		c-1.975,1.342-3.984,2.635-6.006,3.919c-4.044,2.565-8.139,5.086-12.257,7.606c-8.263,4.996-16.593,10.033-24.991,15.111
		c-8.399,5.074-16.866,10.188-25.399,15.342c-4.255,2.596-8.52,5.213-12.769,7.89c-2.124,1.34-4.245,2.692-6.342,4.088
		c-1.047,0.698-2.09,1.406-3.105,2.149c-0.505,0.373-1.01,0.752-1.464,1.167c-0.751,0.667-0.342,0.209,0.403,0.021
		c2.272-1.064,4.472-2.348,6.68-3.594c2.194-1.278,4.393-2.559,6.596-3.842c4.377-2.616,8.771-5.241,13.182-7.876
		c8.797-5.312,17.658-10.664,26.583-16.054c4.476-2.675,8.967-5.359,13.475-8.053c4.527-2.662,9.06-5.35,13.733-7.844
		c0.587-0.309,1.177-0.612,1.778-0.898c0.697-0.15,0.995-0.867,2.131-0.426c-0.283,1.009-0.918,1.132-1.406,1.641
		c-0.526,0.413-1.063,0.806-1.606,1.191c-2.174,1.535-4.407,2.979-6.65,4.416c-4.491,2.864-9.045,5.661-13.622,8.454
		c-18.3,11.178-37.08,22.132-55.716,33.84c-2.318,1.479-4.637,2.969-6.892,4.549c-0.562,0.396-1.119,0.8-1.659,1.22
		c-0.49,0.303-1.178,1.127-1.315,1.096c0.232-0.106,1.139-0.436,1.671-0.721c0.618-0.3,1.231-0.617,1.841-0.94
		c4.872-2.615,9.655-5.45,14.458-8.275c9.592-5.679,19.189-11.489,28.851-17.325c9.67-5.822,19.4-11.68,29.188-17.573
		c4.908-2.922,9.839-5.842,14.828-8.699c2.498-1.423,5.002-2.842,7.571-4.167c0.645-0.328,1.291-0.652,1.96-0.947
		c0.06-0.269,2.549-0.903,1.562,0.525c-1.045,1.112-2.244,1.896-3.421,2.752c-4.764,3.3-9.71,6.326-14.661,9.375
		c-4.959,3.035-9.959,6.034-14.979,9.029c-10.059,5.96-20.174,11.954-30.345,17.981c-10.155,6.048-20.409,12.071-30.47,18.503
		c-1.252,0.812-2.499,1.632-3.722,2.484c-0.61,0.427-1.217,0.86-1.799,1.317c-0.523,0.261-1.302,1.373-1.313,1.039
		c0.595-0.093,1.335-0.465,1.988-0.763c0.671-0.321,1.336-0.662,1.998-1.01c1.323-0.697,2.635-1.423,3.943-2.159
		c5.226-2.951,10.4-6.035,15.581-9.135c10.356-6.212,20.713-12.547,31.139-18.889c10.432-6.332,20.895-12.732,31.57-18.908
		c2.678-1.53,5.355-3.065,8.132-4.454c0.703-0.338,1.393-0.682,2.171-0.932c1.928-0.257,0.056,1.802-0.183,1.783
		c-1.193,1.023-2.459,1.918-3.729,2.812c-5.105,3.529-10.376,6.814-15.656,10.111c-10.578,6.565-21.294,13.014-32.051,19.509
		c-10.753,6.499-21.581,12.992-32.33,19.714c-2.683,1.686-5.362,3.386-8.001,5.147c-1.315,0.884-2.631,1.776-3.883,2.735
		c-0.559,0.334-1.386,1.309-1.508,1.223c0.271-0.143,1.313-0.5,1.927-0.832c5.669-2.845,11.158-6.138,16.684-9.351
		c22.043-12.999,44.017-26.567,66.419-39.855c2.812-1.644,5.626-3.29,8.443-4.937c2.836-1.619,5.661-3.254,8.606-4.72
		c0.678,0.042,1.622-1.608,2.293,0.005c-0.609,0.712-1.271,1.141-1.936,1.648c-1.334,0.966-2.702,1.87-4.076,2.767
		c-2.751,1.787-5.536,3.52-8.332,5.243c-11.195,6.871-22.548,13.576-33.936,20.326c-11.387,6.75-22.819,13.528-34.296,20.332
		c-5.727,3.42-11.457,6.862-17.167,10.357c-5.695,3.514-11.437,7.005-16.933,10.842c-0.681,0.485-1.356,0.98-1.997,1.504
		c-0.479,0.562-1.675,1.267-0.811,0.795c1.521-0.551,3.024-1.374,4.506-2.142c2.968-1.577,5.899-3.241,8.826-4.916
		c5.851-3.357,11.671-6.796,17.495-10.254c11.616-6.97,23.275-13.966,34.976-20.987c11.69-7.041,23.417-14.116,35.237-21.134
		c5.913-3.503,11.842-7.003,17.848-10.403c1.502-0.848,3.01-1.689,4.532-2.509c1.531-0.81,3.037-1.641,4.677-2.311
		c1.441-0.875,1.246,1.687,0.195,1.599c-0.678,0.562-1.381,1.07-2.087,1.576c-1.415,1.005-2.856,1.966-4.305,2.917
		c-11.629,7.529-23.562,14.632-35.5,21.819c-11.964,7.14-23.968,14.304-36.011,21.49c-12.035,7.197-24.121,14.402-36.099,21.855
		c-2.99,1.87-5.975,3.754-8.91,5.711c-1.46,0.983-2.931,1.972-4.292,3.058c-0.507,0.81-1.81,1.025-0.478,0.506
		c0.798-0.311,1.591-0.706,2.376-1.099c6.262-3.255,12.362-6.889,18.487-10.469c24.447-14.448,48.79-29.417,73.497-44.107
		c6.182-3.664,12.376-7.327,18.67-10.851c1.575-0.877,3.157-1.747,4.766-2.575c0.808-0.412,1.614-0.82,2.459-1.183
		c0.827-1.237,2.542,0.408,1.05,1.205c-1.4,1.213-2.898,2.214-4.395,3.238c-1.501,1.012-3.018,1.996-4.541,2.97
		c-12.222,7.736-24.712,15.086-37.205,22.51c-12.508,7.396-25.051,14.811-37.625,22.246c-12.542,7.484-25.162,14.933-37.485,22.892
		c-1.534,1.004-3.06,2.021-4.557,3.072c-0.748,0.527-1.489,1.062-2.208,1.62c-0.692,0.551-1.479,1.153-1.915,1.772
		c-0.685-0.14,1.186-0.484,1.691-0.891c0.82-0.396,1.634-0.817,2.444-1.247c1.619-0.861,3.225-1.755,4.825-2.658
		c6.399-3.626,12.737-7.387,19.078-11.159c12.674-7.558,25.327-15.225,38.021-22.892c12.694-7.667,25.417-15.357,38.236-22.957
		c6.413-3.794,12.843-7.577,19.356-11.24c3.27-1.814,6.519-3.655,9.947-5.23c0.618,0.129,2.249-1.914,2.524,0.389
		c-0.656,0.845-1.403,1.372-2.146,1.97c-1.499,1.146-3.045,2.207-4.602,3.252c-6.24,4.156-12.637,8.063-19.041,11.971
		c-6.411,3.896-12.857,7.749-19.32,11.589c-12.944,7.645-25.917,15.307-38.917,22.984c-12.997,7.68-26.028,15.367-38.947,23.289
		c-3.227,1.983-6.445,3.986-9.632,6.036c-1.592,1.026-3.177,2.064-4.739,3.133c-1.541,1.077-3.145,2.151-4.465,3.404
		c-0.988,1.01-0.087-0.227,0.904-0.273c0.856-0.374,1.706-0.791,2.548-1.219c1.687-0.857,3.355-1.763,5.018-2.677
		c3.325-1.833,6.625-3.72,9.918-5.622c26.304-15.301,52.369-31.256,78.69-46.994c6.579-3.938,13.17-7.869,19.8-11.751
		c3.315-1.939,6.64-3.868,9.998-5.748c1.683-0.937,3.365-1.869,5.099-2.735c0.802,0.097,1.874-2.035,2.719,0.083
		c-0.693,0.89-1.468,1.401-2.241,2.013c-3.123,2.299-6.385,4.343-9.645,6.402c-3.266,2.045-6.557,4.051-9.857,6.042
		c-6.603,3.98-13.246,7.901-19.904,11.81c-13.338,7.777-26.698,15.567-40.08,23.37c-13.371,7.815-26.783,15.618-40.008,23.756
		c-3.299,2.045-6.591,4.107-9.798,6.282c-0.8,0.546-1.593,1.1-2.368,1.673c-0.76,0.574-1.559,1.169-2.151,1.821
		c-0.86,0.249,0.597-0.234,1.375-0.574c0.877-0.384,1.744-0.817,2.605-1.256c6.875-3.591,13.569-7.585,20.278-11.536
		c13.396-7.955,26.715-16.09,40.069-24.208c13.361-8.107,26.701-16.291,40.261-24.167c3.412-1.941,6.779-3.929,10.372-5.619
		c0.549-1.292,3.035,0.209,1.39,1.152c-0.772,0.657-1.573,1.227-2.379,1.798c-1.614,1.131-3.257,2.208-4.906,3.276
		c-6.606,4.25-13.315,8.328-20.033,12.405c-13.443,8.136-26.968,16.169-40.483,24.253c-6.748,4.057-13.5,8.115-20.256,12.177
		c-6.732,4.097-13.479,8.188-20.073,12.5c-1.634,1.089-3.293,2.179-4.799,3.385c-0.992,0.977-1.067,0.184,0.2,0.006
		c0.89-0.358,1.774-0.791,2.65-1.231c3.501-1.783,6.931-3.745,10.353-5.71c6.838-3.948,13.618-8.012,20.392-12.094
		c13.514-8.223,27.042-16.454,40.584-24.694c13.556-8.221,27.078-16.524,40.909-24.368c1.735-0.971,3.477-1.932,5.245-2.852
		c0.885-0.46,1.776-0.908,2.689-1.33c0.999,0.02,1.642-1.801,3.202-0.025c-0.807,1.117-1.577,1.468-2.4,2.131
		c-0.813,0.585-1.639,1.146-2.468,1.698c-1.66,1.103-3.337,2.175-5.021,3.235c-6.738,4.231-13.561,8.319-20.391,12.402
		c-27.33,16.309-54.948,32.235-82.168,48.898c-3.396,2.092-6.783,4.2-10.141,6.352c-3.348,2.16-6.708,4.327-9.879,6.704
		c-0.779,0.599-1.575,1.216-2.211,1.891c-0.924,1.033-0.146-0.383,0.949-0.405c1.789-0.818,3.545-1.775,5.294-2.727
		c3.495-1.919,6.952-3.919,10.402-5.931c13.786-8.078,27.451-16.395,41.145-24.68c13.693-8.287,27.374-16.615,41.179-24.761
		c3.455-2.032,6.917-4.052,10.411-6.024c1.748-0.985,3.502-1.96,5.283-2.896c0.893-0.467,1.788-0.926,2.713-1.352
		c-0.125-0.617,3.921-0.965,2.044,0.85c-1.593,1.356-3.273,2.412-4.952,3.533c-1.683,1.099-3.379,2.171-5.082,3.233
		c-3.405,2.123-6.834,4.206-10.27,6.276c-27.509,16.523-55.388,32.47-82.874,49.105c-3.43,2.088-6.851,4.19-10.236,6.344
		c-1.691,1.078-3.375,2.168-5.027,3.296c-0.825,0.564-1.644,1.139-2.427,1.74c-0.589,0.814-2.022,1.2-1.193,0.745
		c1.796-0.596,3.607-1.583,5.375-2.484c1.773-0.932,3.533-1.896,5.285-2.874c3.504-1.957,6.984-3.966,10.455-5.989
		c13.875-8.113,27.631-16.449,41.397-24.772c13.767-8.325,27.508-16.699,41.356-24.912c3.466-2.049,6.938-4.087,10.444-6.073
		c1.758-0.989,3.515-1.973,5.33-2.886c0.534,0.242,2.568-2.468,2.581,0.487c-0.747,0.848-1.548,1.427-2.356,2.059
		c-3.251,2.431-6.632,4.616-10.011,6.812c-3.386,2.184-6.795,4.328-10.213,6.457c-13.679,8.503-27.479,16.802-41.256,25.137
		l-20.648,12.53c-6.856,4.212-13.74,8.401-20.428,12.848c-0.832,0.56-1.659,1.127-2.465,1.712c-0.722,0.32-1.789,1.786-2.012,1.254
		c0.039-0.224,1.549-0.604,2.262-1.037c0.898-0.428,1.788-0.887,2.673-1.355c3.54-1.886,7.023-3.902,10.497-5.93
		c6.941-4.069,13.828-8.239,20.707-12.421c13.757-8.366,27.454-16.832,41.251-25.138c3.451-2.074,6.91-4.137,10.392-6.162
		c1.742-1.012,3.489-2.016,5.254-2.994c1.774-0.97,3.523-1.951,5.423-2.772c1.512-1.241,2.575,1.682,0.797,1.83
		c-0.793,0.669-1.613,1.263-2.439,1.851c-1.655,1.166-3.341,2.273-5.035,3.367c-3.389,2.182-6.815,4.298-10.25,6.397
		c-13.754,8.374-27.645,16.5-41.496,24.684c-13.837,8.199-27.738,16.306-41.307,24.9c-1.689,1.083-3.37,2.179-5.02,3.311
		c-0.824,0.567-1.642,1.143-2.432,1.743c-0.714,0.524-1.737,1.391-1.949,1.748c-0.462-0.689,1.396-0.771,1.995-1.317
		c0.892-0.441,1.777-0.909,2.659-1.383c1.763-0.95,3.513-1.934,5.257-2.925c6.974-3.98,13.876-8.094,20.773-12.212
		c13.762-8.293,27.52-16.583,41.271-24.87l20.664-12.367c6.917-4.073,13.806-8.183,20.905-11.97c0.893-0.467,1.79-0.925,2.716-1.351
		c0.036-0.917,3.691-0.493,2.022,1.008c-1.506,1.49-3.158,2.592-4.798,3.774c-3.3,2.303-6.669,4.481-10.049,6.642
		c-6.767,4.311-13.597,8.507-20.437,12.683c-13.713,8.29-27.42,16.575-41.118,24.856c-6.842,4.148-13.681,8.298-20.441,12.56
		c-1.688,1.067-3.371,2.144-5.034,3.243c-1.635,1.105-3.374,2.207-4.778,3.46c-1.416-0.369,0.949-0.544,1.399-1.076
		c0.884-0.443,1.76-0.917,2.633-1.396c1.745-0.962,3.477-1.954,5.204-2.955c13.792-8.06,27.397-16.438,41.064-24.685
		c6.831-4.128,13.663-8.251,20.545-12.29c3.446-2.013,6.891-4.022,10.419-5.909c0.885-0.469,1.773-0.931,2.698-1.353
		c0.756-1.458,2.907,0.423,1.215,1.269c-1.601,1.266-3.269,2.345-4.936,3.45c-6.694,4.35-13.506,8.479-20.306,12.626
		c-6.813,4.121-13.623,8.241-20.431,12.359c-6.797,4.132-13.591,8.263-20.382,12.391c-6.764,4.168-13.532,8.334-20.121,12.74
		c-1.638,1.109-3.277,2.23-4.816,3.441c-0.721,0.243-1.643,2.086-1.673,1.066c0.846-0.284,1.755-0.769,2.622-1.209
		c3.495-1.839,6.924-3.842,10.35-5.834c6.844-4.004,13.64-8.09,20.43-12.178c13.578-8.18,27.104-16.417,40.699-24.513
		c6.816-4.021,13.583-8.103,20.598-11.807c0.889-0.45,1.766-0.9,2.735-1.271c2.248-0.865,0.392,2.576-0.183,2.19
		c-1.576,1.242-3.218,2.343-4.864,3.444c-3.298,2.188-6.645,4.286-10,6.369c-13.435,8.302-27.012,16.321-40.53,24.401
		c-6.76,4.038-13.516,8.073-20.223,12.175c-3.349,2.056-6.698,4.116-9.966,6.275c-0.814,0.542-1.625,1.092-2.403,1.667
		c-0.568,1.012-2.132,0.862-0.636,0.311c1.76-0.746,3.49-1.711,5.207-2.642c6.856-3.805,13.591-7.845,20.325-11.864
		c6.716-4.055,13.427-8.106,20.134-12.155c13.406-8.114,26.758-16.278,40.248-24.185c3.379-1.967,6.76-3.926,10.214-5.773
		c0.866-0.459,1.736-0.91,2.63-1.332c-0.112-0.37,3.74-1.32,2.054,0.67c-1.539,1.332-3.172,2.364-4.8,3.462
		c-6.546,4.277-13.224,8.303-19.886,12.348c-13.351,8.038-26.682,16.064-39.993,24.078c-6.619,4.057-13.269,8.078-19.667,12.424
		c-0.793,0.55-1.582,1.107-2.337,1.692c-0.68,0.339-1.759,1.874-1.266,0.894c1.729-0.597,3.463-1.581,5.157-2.472
		c3.397-1.844,6.746-3.79,10.084-5.747c13.338-7.862,26.508-15.972,39.697-23.998c6.604-4,13.202-7.997,19.794-11.991
		c3.307-1.979,6.619-3.949,9.951-5.884c3.346-1.917,6.653-3.873,10.166-5.548c0.208-1.001,3.327-0.238,1.693,0.914
		c-0.741,0.677-1.519,1.242-2.301,1.816c-1.566,1.133-3.164,2.208-4.768,3.272c-3.209,2.125-6.45,4.19-9.698,6.243
		c-6.499,4.099-13.03,8.129-19.56,12.146c-13.061,8.035-26.142,15.983-39.11,24.052c-3.241,2.019-6.474,4.047-9.686,6.103
		c-3.199,2.066-6.428,4.117-9.469,6.365c-0.628,0.188-1.821,2.049-1.432,0.839c0.838-0.315,1.696-0.765,2.533-1.194
		c1.681-0.877,3.343-1.806,4.999-2.739c3.312-1.874,6.599-3.791,9.878-5.718c26.221-15.448,52.009-31.401,78.135-46.562
		c3.281-1.873,6.55-3.754,9.932-5.47c0.93-0.392,1.525-0.904,2.851-1.074c0.424,2.036-1.113,1.773-1.623,2.617
		c-1.515,1.151-3.075,2.211-4.643,3.263c-6.286,4.173-12.692,8.124-19.092,12.071c-12.81,7.874-25.667,15.603-38.462,23.368
		c-6.385,3.901-12.763,7.799-19.133,11.692c-6.331,3.947-12.705,7.844-18.781,12.108c-0.749,0.542-1.499,1.093-2.182,1.686
		c-0.923,0.935-0.924,0.372,0.257,0.112c1.682-0.706,3.327-1.596,4.96-2.468c3.264-1.77,6.485-3.626,9.695-5.493
		c6.417-3.745,12.78-7.566,19.128-11.396c12.675-7.698,25.32-15.378,37.935-23.038c6.312-3.824,12.622-7.633,18.957-11.386
		c3.169-1.874,6.344-3.735,9.54-5.557c1.6-0.909,3.204-1.809,4.824-2.683c1.637-0.858,3.226-1.751,5.013-2.418
		c1.898-0.78,0.518,2.206-0.151,1.923c-0.734,0.572-1.487,1.104-2.244,1.629c-1.517,1.045-3.055,2.049-4.599,3.042
		c-3.089,1.982-6.205,3.914-9.325,5.833c-6.243,3.832-12.512,7.603-18.775,11.361c-12.523,7.522-25.062,14.948-37.422,22.577
		c-3.084,1.914-6.163,3.838-9.177,5.843c-1.481,1.013-3.046,2.013-4.318,3.181c-0.921,0.202,0.582-0.393,1.246-0.713
		c0.807-0.392,1.607-0.81,2.404-1.236c6.355-3.449,12.579-7.15,18.802-10.816c12.431-7.365,24.769-14.813,37.088-22.212
		c12.329-7.383,24.585-14.806,37.004-21.889c1.557-0.879,3.118-1.749,4.699-2.588c0.793-0.417,1.587-0.829,2.409-1.208
		c0.657-1.194,2.546,0.192,1.121,1.072c-1.369,1.218-2.839,2.222-4.303,3.25c-1.47,1.015-2.955,2.002-4.446,2.979
		c-5.97,3.896-12.013,7.647-18.054,11.383c-12.116,7.407-24.196,14.792-36.238,22.154c-6.018,3.684-12.021,7.371-17.979,11.106
		c-2.978,1.869-5.945,3.75-8.883,5.668c-1.468,0.96-2.929,1.93-4.369,2.924c-1.425,1.001-2.894,1.997-4.148,3.142
		c-0.999,0.926-0.287,0.041,0.684-0.072c0.794-0.331,1.579-0.713,2.357-1.104c1.557-0.785,3.095-1.618,4.625-2.462
		c3.059-1.692,6.089-3.438,9.107-5.195c6.035-3.52,12.024-7.1,17.994-10.688c11.917-7.218,23.794-14.411,35.631-21.581
		c11.85-7.152,23.614-14.351,35.579-21.138c1.502-0.839,3.008-1.67,4.541-2.458c0.77-0.392,1.538-0.777,2.352-1.112
		c1.245-1.006,2.042,1.1,0.64,1.406c-2.677,2.24-5.585,4.043-8.452,5.927c-5.768,3.703-11.611,7.254-17.451,10.785
		c-11.688,7.048-23.402,13.955-35.05,20.872c-5.814,3.473-11.618,6.939-17.412,10.4c-5.767,3.498-11.544,6.97-17.128,10.688
		c-0.694,0.469-1.383,0.944-2.056,1.437c-0.615,0.457-1.455,1.087-1.729,1.497c-0.1-0.333,1.27-0.488,1.841-0.888
		c0.755-0.345,1.502-0.722,2.245-1.104c2.968-1.542,5.882-3.199,8.784-4.864c5.8-3.342,11.539-6.768,17.257-10.201
		c11.409-6.919,22.772-13.811,34.092-20.674c5.668-3.419,11.325-6.831,16.971-10.235c2.841-1.675,5.679-3.347,8.514-5.019
		c2.854-1.641,5.692-3.296,8.649-4.77c0.73,0.014,1.521-1.553,2.4-0.059c-0.593,0.779-1.252,1.188-1.91,1.716
		c-1.322,0.989-2.682,1.908-4.046,2.821c-2.731,1.817-5.493,3.575-8.261,5.317c-5.538,3.48-11.103,6.89-16.662,10.279
		c-11.138,6.747-22.228,13.465-33.271,20.154c-5.518,3.35-11.018,6.701-16.477,10.09c-2.729,1.696-5.447,3.4-8.138,5.139
		c-1.344,0.87-2.683,1.747-4,2.651c-0.657,0.452-1.31,0.912-1.943,1.389c-0.508,0.231-1.553,1.539-1.29,0.964
		c0.682-0.127,1.444-0.496,2.151-0.815c0.718-0.337,1.429-0.695,2.136-1.062c1.414-0.734,2.812-1.502,4.205-2.277
		c2.784-1.556,5.542-3.154,8.289-4.764c5.492-3.223,10.939-6.496,16.366-9.776c10.832-6.595,21.614-13.16,32.347-19.694
		c10.743-6.519,21.406-13.056,32.229-19.222c1.357-0.765,2.718-1.521,4.095-2.249c1.395-0.712,2.729-1.473,4.281-1.979
		c2.044,0.131-0.336,1.621-0.422,1.733c-0.622,0.479-1.258,0.927-1.897,1.369c-1.281,0.883-2.578,1.733-3.88,2.575
		c-5.213,3.354-10.484,6.577-15.746,9.788c-21.063,12.812-42.097,25.197-62.655,37.872c-5.13,3.182-10.246,6.363-15.223,9.713
		c-1.241,0.841-2.473,1.694-3.659,2.596c-0.583,0.453-1.186,0.918-1.659,1.434c-0.657,0.654,0.275-0.298,0.951-0.395
		c2.672-1.309,5.272-2.805,7.87-4.271c10.366-5.937,20.561-12.054,30.711-18.112c20.307-12.112,40.275-24.283,60.319-35.817
		c2.516-1.426,5.028-2.848,7.598-4.172c0.646-0.328,1.291-0.651,1.966-0.939c0.957-0.876,1.906,0.606,0.646,1.022
		c-1.11,0.961-2.292,1.777-3.472,2.606c-4.741,3.265-9.591,6.317-14.421,9.37c-9.674,6.081-19.354,12.02-28.962,17.945
		c-9.603,5.93-19.166,11.798-28.539,17.826c-2.338,1.514-4.669,3.034-6.935,4.63c-0.564,0.4-1.124,0.807-1.668,1.229
		c-0.521,0.258-1.128,1.23-1.39,0.988c0.49-0.1,1.209-0.472,1.794-0.759c0.615-0.309,1.225-0.636,1.832-0.965
		c4.846-2.665,9.584-5.506,14.313-8.318c9.424-5.689,18.787-11.342,28.089-16.958c9.316-5.595,18.519-11.236,27.909-16.437
		c1.184-0.637,2.361-1.273,3.604-1.818c0.46-0.796,1.959,0.091,0.89,0.746c-0.51,0.461-1.044,0.864-1.582,1.267
		c-2.161,1.588-4.386,3.062-6.607,4.532c-4.45,2.928-8.928,5.775-13.396,8.605c-8.953,5.627-17.845,11.215-26.673,16.763
		c-4.401,2.793-8.787,5.575-13.157,8.349c-4.332,2.819-8.717,5.565-12.804,8.642c-0.446,0.234-1.113,1.166-1.189,0.912
		c0.535-0.136,1.143-0.463,1.701-0.737c1.137-0.579,2.255-1.202,3.369-1.828c2.228-1.257,4.432-2.548,6.628-3.843
		c4.375-2.619,8.733-5.229,13.076-7.829c8.663-5.239,17.26-10.438,25.791-15.598c4.272-2.569,8.533-5.119,12.8-7.624
		c4.28-2.481,8.505-5.015,12.925-7.192c0.58-0.246,1.08-0.547,1.8-0.644c0.59,0.994-0.606,1.091-0.868,1.563
		c-0.973,0.76-1.979,1.457-2.989,2.148c-2.022,1.377-4.069,2.703-6.119,4.018c-4.101,2.625-8.216,5.188-12.319,7.731
		c-8.225,5.058-16.382,10.073-24.47,15.047c-8.075,4.991-16.127,9.878-23.895,15.039c-0.963,0.654-1.927,1.312-2.84,2.019
		c-0.335,0.171-1.191,1.148-0.816,0.723c0.523-0.172,1.05-0.441,1.564-0.695c2.062-1.053,4.076-2.205,6.083-3.351
		c4.009-2.303,7.97-4.651,11.909-6.995c15.75-9.389,31.113-18.782,46.334-27.759c3.811-2.235,7.604-4.459,11.449-6.553
		c0.965-0.52,1.93-1.034,2.925-1.498c0.436-0.008,1.139-0.948,1.483-0.034c-0.363,0.49-0.806,0.787-1.233,1.137
		c-1.743,1.321-3.564,2.507-5.376,3.696c-7.278,4.709-14.609,9.164-21.851,13.603c-7.244,4.432-14.414,8.817-21.511,13.158
		c-3.539,2.183-7.055,4.364-10.528,6.568c-3.456,2.226-6.946,4.389-10.168,6.855c-0.381,0.315-0.81,0.646-1.057,1.021
		c-0.183,0.114,0.737-0.26,1.047-0.439c0.902-0.455,1.789-0.948,2.671-1.441c1.764-0.992,3.508-2.008,5.244-3.026
		c3.46-2.059,6.901-4.106,10.323-6.143c6.823-4.107,13.57-8.17,20.239-12.185c6.673-4.01,13.271-7.969,19.844-11.792
		c3.293-1.899,6.557-3.807,9.912-5.509c0.422-0.208,0.847-0.411,1.282-0.595c0.139-0.258,1.55-0.368,0.83,0.294
		c-0.699,0.653-1.474,1.174-2.235,1.717c-1.534,1.067-3.093,2.084-4.65,3.093c-12.5,8.001-24.893,15.47-36.799,23.004
		c-2.977,1.883-5.927,3.765-8.82,5.688c-1.444,0.964-2.88,1.934-4.267,2.956c-0.679,0.521-1.401,1.026-1.945,1.657
		c-0.376,0.449,0.427,0.05,0.714-0.049c0.392-0.168,0.775-0.357,1.157-0.549c6.056-3.201,11.816-6.756,17.54-10.163
		c11.428-6.858,22.427-13.683,33.277-19.993c1.362-0.778,2.72-1.555,4.108-2.263c0.35-0.175,0.698-0.348,1.066-0.488
		c0.622-0.349,0.448,0.538,0.062,0.632c-0.569,0.536-1.184,1.008-1.796,1.479c-2.465,1.865-4.989,3.604-7.488,5.332
		c-5.009,3.442-9.977,6.77-14.854,10.05c-4.877,3.279-9.674,6.5-14.351,9.716c-2.337,1.61-4.647,3.215-6.897,4.859
		c-1.121,0.826-2.238,1.65-3.281,2.551c-0.256,0.229-0.516,0.459-0.727,0.722c-0.367,0.431,0.187,0.171,0.459,0.052
		c0.622-0.285,1.227-0.609,1.828-0.934c4.791-2.642,9.393-5.415,13.923-8.101c4.52-2.706,8.95-5.358,13.292-7.957
		s8.593-5.146,12.78-7.595c2.102-1.21,4.158-2.448,6.289-3.504c0.168-0.191,0.84-0.229,0.41,0.144
		c-0.209,0.213-0.433,0.406-0.657,0.598c-0.451,0.383-0.91,0.75-1.371,1.114c-0.929,0.716-1.853,1.428-2.771,2.136
		c-7.403,5.595-14.583,10.777-21.28,15.883c-0.831,0.646-1.655,1.289-2.476,1.928c-0.405,0.324-0.808,0.65-1.199,0.986
		c-0.195,0.168-0.39,0.337-0.573,0.516c-0.161,0.138-0.479,0.516-0.104,0.295c1.828-0.922,3.565-1.97,5.297-2.961
		c3.442-2.025,6.79-3.994,10.043-5.908c3.249-1.921,6.404-3.785,9.463-5.593c1.533-0.897,3.043-1.78,4.528-2.649
		c0.747-0.428,1.487-0.852,2.222-1.272l1.108-0.611c0.186-0.098,0.37-0.196,0.562-0.281c0.386-0.132-0.025,0.316-0.096,0.372
		c-1.223,1.137-2.56,2.089-3.84,3.062c-1.299,0.949-2.575,1.882-3.829,2.798c-2.526,1.805-4.962,3.543-7.304,5.216
		c-4.689,3.337-9.03,6.378-12.905,9.271c-0.482,0.364-0.957,0.727-1.416,1.098c-0.229,0.187-0.454,0.373-0.665,0.574
		c-0.064,0.06-0.3,0.293-0.165,0.252l0.373-0.209c0.998-0.573,1.971-1.131,2.918-1.675c1.892-1.095,3.681-2.131,5.369-3.108
		c6.748-3.912,11.863-6.878,15.292-8.865c1.717-0.989,3.012-1.734,3.877-2.233c0.867-0.495,1.312-0.731,1.312-0.731
		s-0.444,0.236-1.311,0.732c-0.865,0.499-2.16,1.245-3.876,2.235c-3.428,1.988-8.542,4.957-15.289,8.872
		c-1.687,0.978-3.477,2.015-5.366,3.11c-0.947,0.545-1.92,1.104-2.918,1.677l-0.385,0.211c-0.157-0.001,0.099-0.212,0.157-0.279
		c0.212-0.202,0.438-0.389,0.667-0.575c0.458-0.372,0.933-0.734,1.415-1.099c3.874-2.896,8.214-5.938,12.901-9.278
		c2.342-1.674,4.775-3.413,7.302-5.219c1.253-0.917,2.528-1.85,3.827-2.8c1.279-0.973,2.617-1.928,3.834-3.061
		c0.095-0.062,0.422-0.496,0.134-0.316c-0.19,0.084-0.375,0.183-0.561,0.281l-1.106,0.61c-0.734,0.421-1.475,0.846-2.221,1.273
		c-1.485,0.87-2.994,1.754-4.527,2.651c-3.058,1.81-6.212,3.676-9.46,5.598c-3.252,1.915-6.6,3.886-10.041,5.912
		c-1.732,0.993-3.465,2.041-5.3,2.967c-0.44,0.249-0.129-0.314,0.046-0.381c0.186-0.18,0.381-0.349,0.575-0.519
		c0.393-0.336,0.795-0.662,1.201-0.987c0.819-0.64,1.645-1.282,2.475-1.93c6.696-5.109,13.873-10.296,21.273-15.893
		c0.918-0.708,1.841-1.421,2.77-2.137c0.46-0.364,0.919-0.731,1.368-1.113c0.224-0.19,0.447-0.384,0.652-0.593
		c0.369-0.329-0.079-0.155-0.33-0.03c-2.122,1.053-4.181,2.294-6.28,3.504c-4.187,2.45-8.437,4.999-12.776,7.601
		c-4.341,2.601-8.771,5.256-13.288,7.963c-4.53,2.688-9.129,5.463-13.923,8.109c-0.603,0.325-1.206,0.65-1.834,0.938
		c-0.162,0.211-1.014,0.279-0.576-0.202c0.221-0.275,0.48-0.504,0.738-0.735c1.048-0.905,2.166-1.73,3.287-2.559
		c2.251-1.646,4.561-3.252,6.897-4.863c4.676-3.219,9.472-6.441,14.348-9.724c4.875-3.283,9.841-6.611,14.847-10.057
		c2.498-1.729,5.021-3.469,7.481-5.331c0.609-0.471,1.225-0.943,1.784-1.471c0.274-0.258,0.657-0.698,0.071-0.421
		c-0.357,0.136-0.707,0.309-1.054,0.482c-1.384,0.706-2.74,1.482-4.101,2.262c-10.845,6.313-21.842,13.143-33.266,20.008
		c-5.725,3.411-11.479,6.966-17.546,10.177c-0.384,0.192-0.77,0.383-1.166,0.554c-0.131,0.092-1.352,0.591-0.904-0.192
		c0.581-0.675,1.292-1.163,1.978-1.691c1.391-1.026,2.826-1.997,4.271-2.963c2.896-1.926,5.845-3.81,8.821-5.694
		c11.904-7.54,24.295-15.017,36.786-23.021c1.556-1.008,3.113-2.025,4.644-3.091c0.756-0.538,1.539-1.068,2.207-1.695
		c0.543-0.479-0.261-0.093-0.618,0.021c-0.428,0.18-0.851,0.383-1.27,0.59c-3.344,1.698-6.608,3.607-9.899,5.507
		c-6.568,3.826-13.164,7.788-19.835,11.801c-6.667,4.018-13.412,8.083-20.233,12.194c-3.422,2.038-6.862,4.088-10.322,6.148
		c-1.736,1.02-3.481,2.037-5.246,3.03c-0.885,0.495-1.771,0.989-2.681,1.448c-0.409,0.026-1.015,0.904-1.357,0.127
		c0.314-0.476,0.725-0.764,1.118-1.098c3.244-2.487,6.726-4.646,10.185-6.875c3.475-2.208,6.989-4.391,10.529-6.576
		c7.094-4.344,14.263-8.733,21.505-13.168c7.237-4.441,14.568-8.901,21.837-13.609c1.809-1.188,3.63-2.376,5.356-3.686
		c0.414-0.331,0.88-0.674,1.166-1.062c0.199-0.091-0.794,0.227-1.135,0.424c-0.982,0.458-1.946,0.973-2.907,1.49
		c-3.838,2.093-7.63,4.318-11.438,6.554c-15.214,8.982-30.572,18.383-46.319,27.78c-3.938,2.347-7.899,4.697-11.91,7.004
		c-2.01,1.147-4.021,2.301-6.097,3.361c-0.525,0.258-1.036,0.524-1.618,0.718c-1.141-0.451,0.405-0.972,0.531-1.279
		c0.927-0.719,1.891-1.376,2.856-2.033c7.778-5.173,15.824-10.062,23.899-15.058c8.085-4.978,16.239-9.997,24.461-15.058
		c4.103-2.545,8.215-5.11,12.312-7.734c2.047-1.314,4.093-2.641,6.109-4.016c1.006-0.689,2.011-1.386,2.968-2.135
		c0.409-0.242,1.098-1.069,1.086-0.921c-0.499,0.066-1.104,0.37-1.641,0.61c-4.385,2.162-8.62,4.702-12.893,7.183
		c-4.264,2.506-8.522,5.057-12.793,7.628c-8.528,5.163-17.123,10.367-25.783,15.61c-4.342,2.603-8.701,5.215-13.076,7.837
		c-2.196,1.297-4.401,2.589-6.632,3.85c-1.117,0.628-2.237,1.253-3.385,1.839c-0.592,0.282-1.115,0.596-1.826,0.776
		c-0.684-1.031,0.624-1.13,0.883-1.627c4.124-3.107,8.493-5.845,12.831-8.672c4.37-2.775,8.755-5.561,13.156-8.356
		c8.825-5.552,17.714-11.144,26.665-16.775c4.465-2.831,8.94-5.68,13.384-8.607c2.218-1.469,4.441-2.943,6.585-4.521
		c0.531-0.397,1.063-0.801,1.546-1.237c0.797-0.697,0.381-0.162-0.412-0.007c-1.209,0.53-2.39,1.168-3.565,1.802
		c-9.367,5.193-18.574,10.843-27.884,16.439c-9.3,5.621-18.661,11.278-28.083,16.973c-4.73,2.816-9.465,5.658-14.326,8.335
		c-0.61,0.331-1.223,0.659-1.846,0.973c-0.661,0.297-1.164,0.655-2.039,0.812c-0.448-1.357,0.77-1.271,1.113-1.865
		c0.554-0.429,1.117-0.839,1.686-1.242c2.277-1.605,4.609-3.128,6.949-4.646c9.378-6.039,18.941-11.905,28.544-17.839
		c9.606-5.927,19.286-11.867,28.955-17.947c4.826-3.051,9.676-6.105,14.4-9.359c1.17-0.821,2.357-1.646,3.422-2.568
		c0.644-0.782,0.827-0.53-0.104-0.167c-0.649,0.277-1.292,0.6-1.931,0.924c-2.553,1.317-5.065,2.738-7.577,4.163
		c-20.029,11.529-39.999,23.706-60.304,35.821c-10.151,6.061-20.344,12.179-30.718,18.123c-2.604,1.471-5.194,2.964-7.904,4.291
		c-0.011,0.294-2.672,0.996-1.583-0.439c0.542-0.589,1.14-1.039,1.737-1.507c1.202-0.914,2.438-1.771,3.684-2.614
		c4.991-3.36,10.107-6.543,15.24-9.728c20.563-12.683,41.596-25.071,62.652-37.884c5.259-3.211,10.529-6.435,15.731-9.784
		c1.3-0.839,2.593-1.688,3.865-2.565c0.635-0.439,1.267-0.885,1.874-1.353c0.508-0.351,1.517-1.355,0.902-0.758
		c-1.403,0.457-2.796,1.23-4.162,1.934c-1.37,0.726-2.728,1.479-4.082,2.242c-10.806,6.158-21.47,12.699-32.21,19.218
		c-10.732,6.536-21.514,13.104-32.346,19.701c-5.427,3.281-10.875,6.557-16.37,9.782c-2.749,1.611-5.509,3.212-8.298,4.771
		c-1.396,0.778-2.798,1.548-4.22,2.287c-0.711,0.368-1.428,0.73-2.157,1.072c-0.748,0.328-1.433,0.694-2.328,0.866
		c-1.374-1.19,0.666-1.434,0.875-1.994c0.646-0.486,1.303-0.948,1.964-1.404c1.324-0.909,2.666-1.789,4.013-2.661
		c2.695-1.742,5.416-3.448,8.146-5.146c5.461-3.392,10.962-6.744,16.48-10.096c11.041-6.69,22.13-13.41,33.267-20.159
		c5.558-3.39,11.12-6.799,16.652-10.277c2.766-1.741,5.524-3.498,8.248-5.311c1.358-0.909,2.715-1.827,4.018-2.803
		c0.622-0.481,1.353-1.009,1.754-1.541c0.397,0.269-1.14,0.503-1.628,0.893c-2.919,1.455-5.764,3.113-8.61,4.751
		c-2.833,1.671-5.668,3.343-8.506,5.016c-5.645,3.405-11.3,6.817-16.966,10.235c-11.318,6.867-22.682,13.761-34.09,20.682
		c-5.721,3.436-11.46,6.863-17.267,10.209c-2.906,1.669-5.821,3.327-8.808,4.88c-0.749,0.385-1.5,0.765-2.271,1.117
		c-0.854,0.067-1.359,1.327-2.695,0.205c0.602-1.023,1.289-1.284,1.966-1.866c0.683-0.5,1.377-0.979,2.076-1.451
		c5.608-3.736,11.382-7.206,17.153-10.708c5.794-3.462,11.599-6.931,17.414-10.405c11.646-6.92,23.358-13.828,35.042-20.876
		c5.837-3.53,11.678-7.081,17.435-10.777c2.85-1.872,5.785-3.702,8.371-5.868c0.663-0.859,1.179-0.807,0.02-0.35
		c-0.773,0.318-1.54,0.703-2.3,1.09c-1.521,0.781-3.022,1.61-4.52,2.447c-11.944,6.777-23.713,13.98-35.558,21.133
		c-11.836,7.172-23.713,14.368-35.629,21.588c-5.971,3.59-11.961,7.172-18,10.695c-3.021,1.76-6.053,3.507-9.12,5.203
		c-1.534,0.847-3.076,1.683-4.646,2.476c-0.787,0.395-1.578,0.781-2.401,1.125c-0.419,0.985-2.816-0.049-1.387-1.004
		c1.338-1.219,2.788-2.194,4.23-3.209c1.447-0.999,2.912-1.972,4.382-2.934c2.943-1.923,5.913-3.806,8.892-5.677
		c5.961-3.738,11.965-7.428,17.983-11.113c12.04-7.363,24.118-14.75,36.232-22.158c6.037-3.734,12.078-7.486,18.036-11.376
		c1.487-0.976,2.97-1.96,4.432-2.971c1.45-1.017,2.931-2.034,4.228-3.189c1-0.938,0.795-0.199-0.383,0.033
		c-0.798,0.367-1.588,0.778-2.374,1.192c-1.571,0.833-3.129,1.701-4.683,2.579c-12.4,7.075-24.658,14.502-36.984,21.886
		c-12.318,7.399-24.654,14.851-37.088,22.221c-6.227,3.669-12.445,7.369-18.826,10.834c-0.801,0.429-1.606,0.85-2.429,1.25
		c-0.125-0.043-2.991,1.865-2.042-0.398c1.403-1.285,2.921-2.237,4.427-3.272c3.027-2.014,6.107-3.939,9.195-5.856
		c12.37-7.638,24.906-15.064,37.427-22.589c6.263-3.759,12.529-7.529,18.768-11.36c3.118-1.918,6.23-3.849,9.312-5.827
		c1.54-0.99,3.073-1.992,4.577-3.029c0.751-0.52,1.497-1.048,2.209-1.604c0.43-0.755,2.066-1.118,0.815-0.688
		c-1.656,0.616-3.288,1.521-4.899,2.37c-1.613,0.869-3.214,1.768-4.81,2.676c-3.19,1.817-6.362,3.678-9.528,5.552
		c-6.331,3.751-12.64,7.56-18.949,11.384c-12.613,7.663-25.258,15.346-37.932,23.046c-6.349,3.831-12.714,7.655-19.136,11.404
		c-3.213,1.871-6.437,3.729-9.714,5.507c-1.647,0.879-3.281,1.767-5.033,2.503c-1.046,1.253-2.651-0.641-1.015-1.34
		c0.724-0.628,1.478-1.181,2.237-1.729c6.121-4.298,12.483-8.187,18.822-12.141c6.372-3.896,12.75-7.795,19.137-11.699
		c12.795-7.768,25.65-15.499,38.455-23.371c6.394-3.946,12.799-7.898,19.064-12.06c1.561-1.047,3.117-2.104,4.604-3.234
		c0.728-0.329,1.494-1.694,1.937-1.283c-0.536,0.112-1.602,0.626-2.371,1.01c-3.345,1.697-6.618,3.58-9.892,5.45
		c-26.105,15.154-51.894,31.113-78.121,46.571c-3.282,1.929-6.571,3.848-9.889,5.726c-1.661,0.937-3.325,1.867-5.022,2.753
		c-0.857,0.438-1.689,0.882-2.635,1.239c-2.339-0.871,0.628-1.695,0.71-2.185c3.091-2.286,6.309-4.327,9.518-6.401
		c3.216-2.06,6.45-4.089,9.692-6.109c12.974-8.074,26.053-16.024,39.11-24.061c6.529-4.018,13.058-8.048,19.55-12.146
		c3.244-2.051,6.483-4.115,9.683-6.234c1.598-1.062,3.19-2.134,4.739-3.255c0.768-0.562,1.547-1.134,2.226-1.754
		c1.088-1.04,0.178,0.377-0.826,0.385c-3.435,1.638-6.764,3.603-10.095,5.514c-3.327,1.933-6.637,3.9-9.941,5.88
		c-6.59,3.994-13.186,7.991-19.787,11.991c-13.188,8.028-26.355,16.14-39.704,24.012c-3.343,1.96-6.693,3.908-10.108,5.763
		c-0.855,0.462-1.714,0.917-2.587,1.354c-0.883,0.43-1.735,0.871-2.734,1.186c-2.631-0.591,0.501-2.01,0.547-2.313
		c0.778-0.602,1.573-1.164,2.374-1.719c6.437-4.373,13.079-8.39,19.705-12.453c13.311-8.016,26.641-16.045,39.991-24.085
		c6.657-4.044,13.337-8.072,19.857-12.334c1.604-1.079,3.276-2.15,4.69-3.377c0.924-0.522-0.229,0.515-1.138,0.684
		c-0.871,0.411-1.734,0.859-2.593,1.314c-3.432,1.836-6.811,3.794-10.185,5.759c-13.475,7.901-26.827,16.068-40.231,24.184
		c-6.708,4.051-13.419,8.104-20.136,12.161c-6.738,4.023-13.469,8.063-20.35,11.884c-1.735,0.939-3.44,1.896-5.299,2.687
		c-1.66,1.007-1.453-2.004-0.185-1.775c0.801-0.594,1.618-1.146,2.439-1.694c3.29-2.174,6.639-4.234,9.992-6.294
		c6.712-4.106,13.469-8.143,20.229-12.183c13.517-8.082,27.093-16.104,40.514-24.4c3.35-2.081,6.692-4.178,9.976-6.355
		c1.634-1.094,3.275-2.197,4.801-3.401c0.444-0.836,2.176-1.192,1.018-0.703c-0.877,0.334-1.764,0.785-2.635,1.228
		c-6.961,3.677-13.743,7.766-20.549,11.783c-13.588,8.095-27.112,16.335-40.691,24.518c-6.79,4.089-13.587,8.177-20.438,12.187
		c-3.432,1.997-6.858,3.999-10.387,5.857c-0.902,0.453-1.746,0.922-2.783,1.273c-2.044-1.498,0.697-1.92,0.877-2.605
		c1.582-1.244,3.223-2.366,4.872-3.483c6.614-4.425,13.382-8.591,20.15-12.764c6.792-4.13,13.588-8.263,20.386-12.396
		c6.806-4.119,13.615-8.24,20.426-12.362c6.795-4.146,13.608-8.278,20.278-12.613c1.653-1.095,3.333-2.188,4.86-3.396
		c1.17-1.01,1.086,0.163-0.275,0.251c-0.888,0.405-1.77,0.863-2.646,1.327c-3.501,1.874-6.946,3.883-10.385,5.893
		c-6.874,4.036-13.703,8.158-20.532,12.287c-13.666,8.249-27.265,16.627-41.075,24.7c-1.73,1.003-3.466,1.998-5.221,2.966
		c-0.879,0.482-1.761,0.96-2.664,1.414c-0.543-0.21-2.542,2.39-2.458-0.394c1.583-1.409,3.251-2.441,4.92-3.577
		c1.672-1.104,3.358-2.184,5.05-3.254c6.771-4.27,13.611-8.421,20.454-12.572c13.695-8.282,27.399-16.569,41.111-24.861
		c6.836-4.175,13.663-8.371,20.419-12.676c3.373-2.157,6.738-4.333,10.014-6.621c1.609-1.154,3.303-2.31,4.649-3.646
		c0.93-1.032,0.155,0.498-0.946,0.485c-0.896,0.411-1.786,0.865-2.67,1.328c-7.055,3.764-13.951,7.879-20.86,11.949l-20.655,12.367
		c-13.751,8.289-27.508,16.582-41.27,24.878c-6.899,4.121-13.802,8.236-20.789,12.226c-1.749,0.994-3.502,1.98-5.277,2.937
		c-0.888,0.478-1.78,0.948-2.689,1.398c-1.109,0.078-1.378,1.714-3.375,0.353c0.694-1.439,1.521-1.668,2.322-2.409
		c0.811-0.615,1.637-1.197,2.468-1.77c1.664-1.143,3.351-2.243,5.045-3.329c13.599-8.617,27.493-16.722,41.333-24.926
		c13.85-8.187,27.739-16.314,41.479-24.683c3.431-2.098,6.853-4.212,10.229-6.387c1.687-1.09,3.365-2.192,4.999-3.345
		c0.813-0.578,1.624-1.167,2.369-1.796c0.647-1.142,1.577-0.65,0.216-0.175c-1.797,0.776-3.566,1.764-5.321,2.725
		c-1.755,0.974-3.498,1.975-5.236,2.984c-3.475,2.022-6.93,4.084-10.378,6.156c-13.788,8.304-27.484,16.772-41.243,25.143
		c-6.88,4.184-13.769,8.356-20.719,12.433c-3.48,2.031-6.965,4.052-10.533,5.951c-0.894,0.474-1.792,0.938-2.712,1.375
		c-1.112,0.313-1.422,1.13-3.393,0.846c0.206-2.297,1.433-1.847,2.127-2.772c0.823-0.597,1.657-1.169,2.495-1.732
		c6.725-4.469,13.603-8.652,20.467-12.867l20.654-12.53c13.779-8.332,27.579-16.629,41.249-25.123
		c3.416-2.126,6.822-4.267,10.201-6.446c3.368-2.188,6.753-4.377,9.95-6.768c0.776-0.599,1.606-1.229,2.188-1.896
		c1.379,0.257-0.888,0.487-1.386,1.003c-1.78,0.894-3.536,1.876-5.285,2.861c-3.497,1.979-6.966,4.015-10.429,6.061
		c-13.84,8.205-27.583,16.578-41.352,24.9c-13.769,8.322-27.527,16.656-41.415,24.774c-3.475,2.025-6.958,4.035-10.472,5.996
		c-1.757,0.98-3.522,1.948-5.308,2.885c-1.809,0.917-3.539,1.885-5.561,2.558c-2.688,0.35,0.103-2.694,0.353-2.42
		c0.811-0.622,1.638-1.201,2.471-1.771c1.667-1.138,3.357-2.231,5.054-3.312c3.396-2.158,6.82-4.263,10.254-6.352
		c27.505-16.642,55.386-32.584,82.885-49.095c3.434-2.069,6.86-4.149,10.259-6.268c1.699-1.059,3.392-2.128,5.065-3.221
		c1.653-1.101,3.374-2.196,4.834-3.44c0.947-0.631,0.006,0.591-1.029,0.684c-0.896,0.412-1.784,0.867-2.667,1.33
		c-1.767,0.928-3.516,1.9-5.259,2.881c-3.485,1.967-6.945,3.985-10.397,6.015c-13.797,8.138-27.479,16.464-41.173,24.749
		c-13.696,8.283-27.362,16.597-41.162,24.68c-3.454,2.014-6.915,4.015-10.424,5.941c-1.76,0.957-3.514,1.913-5.358,2.758
		c-0.083,0.927-3.625,0.446-1.994-1.035c0.737-0.778,1.533-1.383,2.333-2.002c3.221-2.414,6.581-4.577,9.939-6.744
		c3.366-2.155,6.756-4.266,10.156-6.358c27.241-16.67,54.861-32.591,82.187-48.892c6.827-4.08,13.649-8.166,20.375-12.387
		c1.68-1.058,3.352-2.126,5.001-3.222c0.824-0.549,1.643-1.105,2.441-1.68c0.742-0.535,1.715-1.257,2.095-1.735
		c0.403,0.606-1.394,0.625-2.012,1.148c-0.891,0.411-1.773,0.855-2.651,1.311c-1.755,0.913-3.491,1.87-5.221,2.838
		c-13.804,7.825-27.333,16.129-40.886,24.346c-13.544,8.238-27.075,16.468-40.591,24.689c-6.777,4.082-13.56,8.146-20.408,12.1
		c-3.43,1.968-6.86,3.93-10.396,5.73c-0.888,0.446-1.779,0.883-2.72,1.262c-1.132,1.386-2.851-0.791-1.063-1.466
		c1.577-1.262,3.225-2.339,4.873-3.438c6.619-4.326,13.365-8.416,20.103-12.514c6.758-4.062,13.512-8.12,20.263-12.177
		c13.518-8.082,27.043-16.113,40.483-24.244c6.714-4.073,13.423-8.15,20.015-12.389c1.644-1.064,3.281-2.138,4.879-3.257
		c0.794-0.561,1.592-1.131,2.312-1.745c1.16-1.028,0.715,0.163-0.501,0.245c-3.505,1.646-6.9,3.646-10.296,5.578
		c-13.543,7.864-26.887,16.046-40.248,24.15c-13.355,8.116-26.676,16.249-40.081,24.206c-6.718,3.955-13.404,7.944-20.325,11.559
		c-0.872,0.442-1.745,0.88-2.651,1.276c-0.151,0.032-3.281,1.759-2.322-0.7c0.72-0.787,1.502-1.349,2.288-1.947
		c0.788-0.583,1.589-1.142,2.395-1.691c3.229-2.189,6.524-4.253,9.829-6.301c13.243-8.146,26.656-15.945,40.03-23.76
		c13.382-7.8,26.743-15.588,40.081-23.362c6.657-3.906,13.3-7.826,19.898-11.802c3.299-1.989,6.587-3.993,9.847-6.034
		c3.25-2.051,6.517-4.1,9.591-6.363c0.736-0.565,1.564-1.176,2.054-1.812c0.82,0.284-1.21,0.595-1.708,1.053
		c-1.706,0.852-3.389,1.783-5.064,2.716c-3.35,1.874-6.672,3.801-9.985,5.738c-6.627,3.878-13.217,7.809-19.795,11.744
		c-26.321,15.733-52.387,31.682-78.708,46.988c-3.296,1.902-6.6,3.791-9.933,5.628c-1.668,0.917-3.341,1.823-5.042,2.688
		c-0.851,0.432-1.708,0.853-2.591,1.239c-0.202,0.909-3.313,0.29-1.751-0.962c1.44-1.363,3.016-2.401,4.579-3.498
		c1.571-1.075,3.161-2.116,4.757-3.145c3.195-2.055,6.417-4.059,9.646-6.044c12.93-7.925,25.963-15.609,38.962-23.289
		c13-7.675,25.974-15.334,38.919-22.976c6.462-3.839,12.907-7.689,19.315-11.583c6.4-3.903,12.796-7.81,19.016-11.95
		c1.549-1.04,3.09-2.097,4.562-3.223c0.713-0.561,1.495-1.16,1.985-1.797c0.832,0.005-1.084,0.296-1.615,0.693
		c-3.366,1.545-6.628,3.39-9.886,5.198c-6.504,3.656-12.934,7.437-19.344,11.228c-12.816,7.595-25.539,15.283-38.234,22.948
		c-12.695,7.666-25.35,15.33-38.028,22.888c-6.343,3.773-12.683,7.533-19.094,11.164c-1.604,0.905-3.214,1.801-4.842,2.667
		c-0.815,0.433-1.634,0.857-2.47,1.26c-0.76-0.081-1.837,1.871-2.613-0.104c0.63-0.885,1.367-1.381,2.094-1.979
		c0.733-0.569,1.481-1.109,2.235-1.64c1.508-1.061,3.04-2.079,4.578-3.086c12.351-7.974,24.967-15.417,37.515-22.902
		c12.576-7.434,25.12-14.847,37.63-22.241c12.491-7.42,24.985-14.771,37.188-22.492c1.521-0.971,3.034-1.953,4.527-2.959
		c1.482-1.012,2.991-2.026,4.319-3.178c0.981-0.897,0.868-0.307-0.322-0.066c-0.812,0.349-1.616,0.754-2.415,1.161
		c-1.596,0.822-3.174,1.689-4.746,2.563c-6.281,3.516-12.476,7.178-18.655,10.839c-24.703,14.682-49.047,29.647-73.506,44.096
		c-6.133,3.583-12.223,7.21-18.525,10.486c-0.797,0.398-1.589,0.795-2.44,1.127c-1.492,0.884-1.242-1.754-0.174-1.638
		c1.404-1.119,2.873-2.104,4.342-3.095c2.946-1.963,5.935-3.849,8.928-5.721c11.989-7.458,24.076-14.66,36.114-21.856
		c12.044-7.185,24.049-14.346,36.014-21.483c11.935-7.183,23.873-14.287,35.481-21.8c1.444-0.947,2.881-1.905,4.284-2.902
		c0.699-0.5,1.397-1.006,2.05-1.547c0.493-0.786,1.734-1.035,0.44-0.514c-1.56,0.636-3.088,1.473-4.604,2.276
		c-1.517,0.816-3.021,1.655-4.521,2.502c-5.998,3.394-11.927,6.892-17.838,10.394c-11.817,7.014-23.545,14.087-35.236,21.126
		c-11.704,7.02-23.365,14.014-34.983,20.983c-5.825,3.458-11.648,6.896-17.504,10.256c-2.931,1.676-5.864,3.341-8.845,4.924
		c-1.505,0.776-2.964,1.588-4.609,2.185c-2.037,0.472-0.082-1.99,0.237-1.853c0.661-0.541,1.343-1.04,2.03-1.53
		c5.533-3.859,11.269-7.344,16.971-10.862c5.714-3.496,11.446-6.938,17.175-10.358c11.479-6.803,22.913-13.579,34.302-20.328
		c11.388-6.748,22.742-13.451,33.931-20.315c2.793-1.721,5.577-3.452,8.32-5.234c1.369-0.894,2.734-1.795,4.051-2.749
		c0.637-0.474,1.348-0.979,1.802-1.513c0.523,0.23-1.093,0.485-1.555,0.867c-2.909,1.447-5.741,3.084-8.57,4.699
		c-2.815,1.646-5.628,3.29-8.438,4.932c-22.398,13.281-44.374,26.845-66.427,39.845c-5.536,3.216-11.007,6.5-16.728,9.371
		c-0.832,0.283-1.213,0.821-2.53,0.762c-0.046-1.532,1.015-1.449,1.517-2.119c1.275-0.976,2.593-1.869,3.915-2.757
		c2.648-1.766,5.33-3.468,8.017-5.155c10.758-6.725,21.586-13.217,32.342-19.714c10.757-6.493,21.475-12.939,32.048-19.5
		c5.276-3.293,10.548-6.579,15.634-10.093c1.262-0.886,2.526-1.782,3.682-2.774c0.479-0.457,1.395-1.313,0.702-0.84
		c-0.695,0.222-1.397,0.565-2.084,0.897c-2.749,1.375-5.43,2.909-8.102,4.436c-10.664,6.167-21.13,12.567-31.561,18.896
		c-10.426,6.34-20.785,12.673-31.145,18.885c-5.184,3.101-10.359,6.184-15.596,9.14c-1.31,0.737-2.625,1.464-3.956,2.165
		c-0.666,0.35-1.336,0.693-2.017,1.019c-0.709,0.307-1.314,0.672-2.203,0.814c-0.918-1.313,0.688-1.41,0.97-1.991
		c0.596-0.467,1.208-0.903,1.823-1.333c1.231-0.858,2.483-1.681,3.738-2.495c10.08-6.442,20.332-12.461,30.491-18.509
		c10.172-6.025,20.288-12.017,30.347-17.975c5.021-2.994,10.02-5.992,14.977-9.024c4.946-3.045,9.896-6.073,14.635-9.355
		c1.156-0.835,2.389-1.665,3.322-2.66c0.613-0.568-0.319,0.13-0.961,0.272c-0.65,0.287-1.293,0.608-1.933,0.934
		c-2.553,1.316-5.057,2.734-7.551,4.155c-4.984,2.853-9.914,5.771-14.822,8.692c-9.787,5.891-19.517,11.747-29.188,17.567
		c-9.662,5.835-19.261,11.643-28.86,17.318c-4.808,2.826-9.589,5.657-14.481,8.28c-0.614,0.324-1.231,0.643-1.858,0.947
		c-0.72,0.241-1.055,0.73-2.19,0.656c0.002-1.319,0.883-1.263,1.327-1.847c0.551-0.428,1.112-0.835,1.679-1.234
		c2.269-1.588,4.59-3.079,6.913-4.559c18.657-11.708,37.438-22.65,55.741-33.819c4.576-2.79,9.13-5.583,13.618-8.442
		c2.24-1.433,4.473-2.875,6.635-4.4c0.538-0.382,1.072-0.772,1.589-1.177c0.461-0.352,1.142-0.952,1.256-1.192
		c-0.068,0.179-1.051,0.415-1.526,0.708c-0.593,0.282-1.18,0.583-1.763,0.89c-4.657,2.483-9.194,5.17-13.72,7.828
		c-4.508,2.691-9,5.373-13.475,8.045c-8.928,5.386-17.792,10.733-26.591,16.041c-4.412,2.634-8.809,5.257-13.188,7.872
		c-2.205,1.283-4.405,2.564-6.602,3.842c-2.216,1.249-4.403,2.526-6.716,3.608c-0.434,0.731-1.816-0.012-0.824-0.657
		c0.48-0.438,0.988-0.818,1.5-1.195c1.024-0.749,2.07-1.458,3.121-2.158c2.102-1.398,4.226-2.75,6.352-4.09
		c4.253-2.676,8.52-5.292,12.777-7.887c8.536-5.151,17.006-10.262,25.409-15.332c8.399-5.074,16.732-10.106,24.996-15.098
		c4.119-2.517,8.214-5.036,12.257-7.597c2.02-1.283,4.029-2.573,5.998-3.911c0.98-0.672,1.962-1.349,2.88-2.087
		c0.362-0.242,1.177-1.125,0.587-0.694c-0.541,0.161-1.082,0.424-1.612,0.675c-4.229,2.127-8.293,4.561-12.355,6.929
		c-4.041,2.414-8.063,4.817-12.069,7.209c-7.979,4.84-15.889,9.638-23.728,14.393c-7.84,4.754-15.609,9.466-23.368,14.034
		c-3.887,2.272-7.75,4.544-11.709,6.613c-1.004,0.497-1.972,1.037-3.081,1.366c-1.288-0.002,0.194-1.093,0.313-1.191
		c0.433-0.356,0.879-0.689,1.327-1.02c1.798-1.31,3.639-2.542,5.478-3.766c14.776-9.697,29.534-18.785,43.868-27.895
		c7.164-4.558,14.278-9.041,21.144-13.729c0.854-0.591,1.704-1.187,2.535-1.803c0.416-0.308,0.827-0.621,1.225-0.947
		c0.342-0.238,0.909-0.872,0.907-0.869c-0.442,0.075-0.939,0.332-1.396,0.538c-0.465,0.22-0.924,0.453-1.382,0.69
		c-0.914,0.474-1.818,0.965-2.72,1.461c-3.6,1.989-7.14,4.045-10.656,6.096c-14.049,8.231-27.685,16.47-41.054,24.449
		c-6.688,3.985-13.288,7.94-19.888,11.718c-1.662,0.928-3.288,1.894-5.023,2.685c-0.891,0.438-0.176-0.825,0.138-0.808
		c0.367-0.302,0.747-0.583,1.129-0.861c0.765-0.553,1.542-1.084,2.321-1.609c3.123-2.091,6.277-4.087,9.415-6.067
		c12.601-7.834,24.888-15.474,36.854-22.914c5.955-3.762,11.856-7.444,17.468-11.375c0.697-0.497,1.388-1.001,2.055-1.531
		c0.331-0.266,0.66-0.537,0.961-0.832c0.296-0.29,0.679-0.774,0.054-0.464c-1.553,0.662-3.025,1.527-4.502,2.339
		c-2.943,1.659-5.836,3.361-8.705,5.057c-11.468,6.791-22.506,13.55-33.321,19.918c-1.358,0.785-2.712,1.567-4.06,2.346
		c-0.678,0.383-1.357,0.761-2.043,1.124c-0.344,0.181-0.688,0.359-1.044,0.519c-0.533,0.394-0.76-0.22-0.222-0.46
		c1.155-1.043,2.421-1.918,3.66-2.82c1.256-0.877,2.507-1.751,3.753-2.621c5.013-3.437,9.994-6.743,14.881-10.008
		c4.888-3.265,9.696-6.468,14.373-9.684c2.333-1.614,4.65-3.213,6.856-4.913c0.545-0.431,1.098-0.859,1.578-1.35
		c0.347-0.316,0.332-0.534-0.128-0.275c-0.315,0.135-0.623,0.292-0.93,0.449c-1.223,0.639-2.416,1.322-3.602,2.002
		c-9.462,5.501-18.426,11.042-27.142,16.185c-1.094,0.636-2.182,1.269-3.264,1.898l-1.636,0.914l-0.828,0.433
		c-0.156,0.016-0.812,0.552-0.695,0.031c0.845-0.935,1.88-1.615,2.852-2.362c0.987-0.728,1.981-1.433,2.974-2.131
		c3.973-2.783,7.911-5.433,11.755-8.029c3.843-2.6,7.597-5.14,11.263-7.62c1.822-1.255,3.627-2.49,5.357-3.78
		c0.427-0.327,0.865-0.648,1.242-1.022c0.331-0.316-0.166-0.021-0.344,0.062l-0.705,0.379c-0.928,0.524-1.85,1.044-2.767,1.562
		c-7.299,4.201-14.178,8.264-20.691,12.079c-6.513,3.816-12.637,7.426-18.417,10.735c-0.727,0.407-1.447,0.81-2.162,1.21
		l-0.543,0.285c-0.213,0.198-0.446,0.08-0.181-0.147c0.279-0.298,0.594-0.553,0.904-0.81c1.252-1.011,2.531-1.942,3.784-2.858
		c2.512-1.826,4.957-3.551,7.309-5.209c4.704-3.316,9.036-6.371,12.988-9.157c1.967-1.406,3.836-2.75,5.575-4.074
		c0.434-0.331,0.859-0.663,1.271-0.999c0.206-0.168,0.407-0.339,0.602-0.514c0.166-0.173,0.443-0.365,0.46-0.568
		c-0.893,0.517-1.761,1.018-2.604,1.505C212.704,160.21,205.73,164.236,205.73,164.236z"/>
</g>
</svg>
